/* XPM */
static char * StopDisabled_blue[] = {
"16 16 25 1",
" 	c None",
".	c #737373",
"+	c #959BBF",
"@	c #939CBF",
"#	c #939EBF",
"$	c #939FBF",
"%	c #8F9EBB",
"&	c #7F8591",
"*	c #92A0BE",
"=	c #909FBC",
"-	c #8A97B0",
";	c #7C818A",
">	c #8E9DB8",
",	c #8D9CB7",
"'	c #8895AC",
")	c #7C8188",
"!	c #8E9CB8",
"~	c #8D9DB7",
"{	c #8994AB",
"]	c #8D9BB5",
"^	c #8893AA",
"/	c #868FA2",
"(	c #7A7E86",
"_	c #7D8189",
":	c #787A7C",
"................",
"................",
"..+@########$%&.",
"..@*========%-;.",
"..#=>>>>>>>>,').",
"..#=>!!!!!!!~{).",
"..#=>!!!!!!!~{).",
"..#=>!!!!!!!~{).",
"..#=>!!!!!!!~{).",
"..#=>!!!!!!!~{).",
"..#=>!!!!!!!~{).",
"..#=>!!!!!!!~{).",
"..$%,~~~~~~~]^).",
"..%-'{{{{{{{^/(.",
"..&_)))))))))(:.",
"................"};
