/* XPM */
static const char * ZoomFitVDisabled[] = {
"27 27 5 1",
" 	c None",
".	c #A8A8A8",
"+	c #737373",
"@	c #B7B7B7",
"#	c #CFCECC",
"...........................",
"...........................",
"...........................",
"...........................",
"...........++++............",
".........++@@@#++..+++++...",
".........+@@++@@++..+++....",
"........+@@+@@@@@+...+.....",
"........+@+@@@@@@++..+.....",
"........+@@@@@@@@++..+.....",
"........+@@@@@@@@++..+.....",
".........+@@@@@@+++..+.....",
"........+++@@@@+++...+.....",
".......++++++++++....+.....",
"......+++++.++++.....+.....",
".....+++++...........+.....",
"....+++++............+.....",
"...+++++............+++....",
"...++++............+++++...",
"....++.....................",
"...........................",
"...........................",
"...........................",
"...........................",
"...........................",
"...........................",
"..........................."};
