/* XPM */
static char * Thinklabs_button_Rate_over_xpm[] = {
"64 42 270 2",
"  	c #0C5FCC",
". 	c #1C6ACF",
"+ 	c #AAC2DF",
"@ 	c #2C73D0",
"# 	c #206CCF",
"$ 	c #B3C6E0",
"% 	c #1F6BCF",
"& 	c #2D74D0",
"* 	c #9CB8DD",
"= 	c #2E74D1",
"- 	c #1565CE",
"; 	c #91B2DD",
"> 	c #256ED0",
", 	c #2B74D1",
"' 	c #E4E6E9",
") 	c #4282D4",
"! 	c #95B9E8",
"~ 	c #F6F6F6",
"{ 	c #6C9CDA",
"] 	c #518BD7",
"^ 	c #FCFCFC",
"/ 	c #4885D6",
"( 	c #74A0DB",
"_ 	c #FEFEFE",
": 	c #4C88D5",
"< 	c #377AD3",
"[ 	c #F1F1F1",
"} 	c #719ED9",
"| 	c #4B88D7",
"1 	c #87AEE1",
"2 	c #8AB2E6",
"3 	c #F7F7F7",
"4 	c #6F9EDA",
"5 	c #FFFFFF",
"6 	c #4D88D7",
"7 	c #6899DA",
"8 	c #4886D6",
"9 	c #4181D6",
"0 	c #74A1DB",
"a 	c #4C86D7",
"b 	c #FDFDFD",
"c 	c #7EA9E3",
"d 	c #F9F9F9",
"e 	c #729FDA",
"f 	c #4F8AD6",
"g 	c #5B91D8",
"h 	c #4483D5",
"i 	c #4181D5",
"j 	c #72A0DA",
"k 	c #4C87D7",
"l 	c #88AEE1",
"m 	c #71A1E0",
"n 	c #FAFAFA",
"o 	c #75A1DA",
"p 	c #4E89D6",
"q 	c #578FD8",
"r 	c #518AD7",
"s 	c #4382D5",
"t 	c #4B87D7",
"u 	c #89AFE0",
"v 	c #6598DE",
"w 	c #77A2DB",
"x 	c #4D88D6",
"y 	c #5D93DA",
"z 	c #4986D5",
"A 	c #4182D6",
"B 	c #4080D6",
"C 	c #6E9DDA",
"D 	c #4B86D6",
"E 	c #8CB1DF",
"F 	c #548FDA",
"G 	c #74A0DA",
"H 	c #4785D5",
"I 	c #5E94DA",
"J 	c #3D7FD4",
"K 	c #3C7ED5",
"L 	c #397CD5",
"M 	c #6496D9",
"N 	c #3F7FD5",
"O 	c #78A4DD",
"P 	c #4684D8",
"Q 	c #407FD5",
"R 	c #5F95DB",
"S 	c #3076D2",
"T 	c #367BD4",
"U 	c #3579D4",
"V 	c #5C91D8",
"W 	c #367AD3",
"X 	c #6196DA",
"Y 	c #3F80D6",
"Z 	c #85ADDF",
"` 	c #2670D1",
" .	c #548ED9",
"..	c #7AA7E0",
"+.	c #2871D1",
"@.	c #4484D6",
"#.	c #538DDA",
"$.	c #2972D2",
"%.	c #2A73D2",
"&.	c #2B73D2",
"*.	c #2C73D2",
"=.	c #2D74D2",
"-.	c #2E75D2",
";.	c #2F76D3",
">.	c #518DD9",
",.	c #73A1DD",
"'.	c #3177D3",
").	c #3277D3",
"!.	c #3378D3",
"~.	c #3478D3",
"{.	c #367AD4",
"].	c #377CD4",
"^.	c #397DD4",
"/.	c #5E93DB",
"(.	c #82ABE0",
"_.	c #3E7FD5",
":.	c #3E80D5",
"<.	c #4081D6",
"[.	c #4182D7",
"}.	c #4282D7",
"|.	c #2871D2",
"1.	c #256FD0",
"2.	c #F0F3F7",
"3.	c #FEFFFF",
"4.	c #BED2EB",
"5.	c #4786D7",
"6.	c #4685D7",
"7.	c #4584D6",
"8.	c #4483D6",
"9.	c #4382D6",
"0.	c #4282D6",
"a.	c #3F81D6",
"b.	c #3D80D5",
"c.	c #3D7ED5",
"d.	c #3A7DD5",
"e.	c #397CD4",
"f.	c #387CD4",
"g.	c #357AD4",
"h.	c #3479D4",
"i.	c #3379D3",
"j.	c #3278D3",
"k.	c #3077D3",
"l.	c #2E74D2",
"m.	c #2C74D2",
"n.	c #2B73D1",
"o.	c #2B72D1",
"p.	c #2972D1",
"q.	c #1968CE",
"r.	c #2C74D3",
"s.	c #367BD5",
"t.	c #2D75D3",
"u.	c #1263CE",
"v.	c #CBDDF4",
"w.	c #E9F0FB",
"x.	c #95BAE9",
"y.	c #0E61CD",
"z.	c #96BAE9",
"A.	c #F5F9FD",
"B.	c #E5EEFA",
"C.	c #E6EEFA",
"D.	c #EAF2FB",
"E.	c #FAFCFE",
"F.	c #81ACE5",
"G.	c #5E95DE",
"H.	c #FCFDFF",
"I.	c #D3E2F6",
"J.	c #A2C2EC",
"K.	c #246FD2",
"L.	c #DBE8F8",
"M.	c #D8E6F7",
"N.	c #7EAAE4",
"O.	c #A0C1EB",
"P.	c #1D6AD0",
"Q.	c #A1C1EC",
"R.	c #E8F0FA",
"S.	c #FBFCFE",
"T.	c #DDE9F8",
"U.	c #B5CEF0",
"V.	c #72A2E2",
"W.	c #F7FAFE",
"X.	c #D2E1F6",
"Y.	c #558FDC",
"Z.	c #1364CE",
"`.	c #91B7E8",
" +	c #DFEAF9",
".+	c #C9DCF4",
"++	c #538EDB",
"@+	c #A5C4EC",
"#+	c #1766CF",
"$+	c #2671D2",
"%+	c #4685D9",
"&+	c #E7EFFA",
"*+	c #B3CDEF",
"=+	c #BCD3F1",
"-+	c #F8FAFE",
";+	c #D6E4F7",
">+	c #DEE9F8",
",+	c #8AB2E7",
"'+	c #669BDF",
")+	c #BDD4F2",
"!+	c #D4E3F6",
"~+	c #FEFEFF",
"{+	c #6398DF",
"]+	c #3278D4",
"^+	c #CCDDF5",
"/+	c #3379D5",
"(+	c #1867CF",
"_+	c #1163CE",
":+	c #84AEE6",
"<+	c #0F61CD",
"[+	c #548FDC",
"}+	c #F4F8FD",
"|+	c #E1EBF9",
"1+	c #F6F9FD",
"2+	c #7AA7E3",
"3+	c #206CD1",
"4+	c #2872D2",
"5+	c #699DE0",
"6+	c #ABC8EE",
"7+	c #3479D5",
"8+	c #91B6E8",
"9+	c #C7DAF4",
"0+	c #397CD6",
"a+	c #3077D4",
"b+	c #3E80D7",
"c+	c #EBF2FB",
"d+	c #CDDEF5",
"e+	c #1F6BD0",
"f+	c #4F8CDB",
"g+	c #D3E3F6",
"h+	c #AFCBEF",
"i+	c #4E8ADA",
"j+	c #B1CCEF",
"k+	c #2972D3",
"l+	c #90B6E8",
"m+	c #3177D4",
"n+	c #9FC0EB",
"o+	c #4D8ADA",
"p+	c #226DD1",
"q+	c #9EBFEB",
"r+	c #6499DF",
"s+	c #6298DE",
"t+	c #508CDB",
"u+	c #377BD5",
"v+	c #78A6E3",
"w+	c #DCE8F8",
"x+	c #6D9FE1",
"y+	c #E9F1FB",
"z+	c #1A68CF",
"A+	c #4585D8",
"B+	c #B9D1F1",
"C+	c #8FB5E8",
"D+	c #3F81D7",
"E+	c #BAD2F1",
"F+	c #98BBEA",
"G+	c #EFF5FC",
"H+	c #4887D9",
"I+	c #6599DF",
"J+	c #D1E1F6",
"K+	c #6A9DE0",
"L+	c #1465CE",
"M+	c #85AFE6",
"N+	c #7CA9E4",
"O+	c #C2D7F3",
"P+	c #7DAAE4",
"Q+	c #236FD1",
"R+	c #C0D6F2",
"S+	c #1B69D0",
"T+	c #1062CD",
"U+	c #0D60CD",
"                                                                                                                                ",
"                                                                                                                                ",
"                                                                                                                                ",
"                                                                                                                                ",
"                                                                                                                                ",
"                                                                                                                                ",
"                                                                                                                                ",
"      . + @           # $ %           & * =                           - ; >                           , ' )                     ",
"      ! ~ {           ] ^ /           ( _ :                           < [ }                           | ^ 1                     ",
"      2 3 4           ] 5 6           7 5 8                           9 5 0                           a b 1                     ",
"      c d e           f 5 ]           g 5 h                           i 5 j                           k b l                     ",
"      m n o           p 5 q           r 5 s                           9 5 4                           t _ u                     ",
"      v ^ w           x 5 y           z 5 A                           B 5 C                           D _ E                     ",
"      F b G           H _ I           J 5 K                           L 5 M                           N 5 O                     ",
"      P _ (           Q _ R           S 5 T                           U 5 V                           W 5 X                     ",
"      Y 5 Z ` ` ` ` `  .b ..+.+.+.+.+.@.5 #.$.%.&.&.&.*.*.=.=.=.-.-.;.>.5 ,.'.).!.!.~.U {.{.T ].].^.^./.5 (._.:.<.[.}.|.        ",
"      1.2.5 _ _ _ 3.5 5 5 5 5 5 5 5 5 5 5 5 5 5 5 5 5 5 5 5 5 5 5 5 5 5 5 5 5 5 5 5 5 5 5 5 5 5 5 5 5 5 5 5 5 _ _ _ _ 4.        ",
"        |.5.6.7.8.9.0.9 a.:.b.c.c.K d.e.e.f.{.{.{.g.h.i.i.j.'.'.k.k.-.-.-.l.l.=.=.m.m.m.m.n.o.o.o.o.o.p.p.p.p.p.p.p.+.q.        ",
"                                                                                                                                ",
"                                                                                                                                ",
"                                                                                                                                ",
"                                                                                                                                ",
"                                                                                                                                ",
"                              r.s.s.s.s.t.u.                                                                                    ",
"                              v.5 5 5 5 5 5 w.x.y.                        s.z.                                                  ",
"                              v.5 A.B.C.D.E.5 5 F.                      G.H.I.                                                  ",
"                              v.5 J.      K.L.5 M.                      N.5 I.                                                  ",
"                              v.5 J.        O.5 B.    P.Q.R.S.T.U.t.  V.R.5 W.X.Y.  Z.`. +A..+++                                ",
"                              v.5 @+Z.#+$+%+&+5 *+    =+5 -+;+S.5 >+  ,+5 5 5 5 '+  )+5 A.!+~+5 {+                              ",
"                              v.5 5 5 5 5 5 5 &+]+  - O.^+/+  %+5 5 (+_+:+5 !+#+<+[+5 }+r.  {+5 |+<+                            ",
"                              v.5 -+1+5 5 E.2+3+          4+5+6+5 5 7+  N.5 I.    8+5 9+s.s.0+H.5 a+                            ",
"                              v.5 J.  b+c+5 d+e+      f+g+5 5 C.5 5 7+  N.5 I.    h+5 5 5 5 5 5 5 i+                            ",
"                              v.5 J.    Y.5 5 j+    k+E.5 l+m+3+5 5 ]+  N.5 g+    n+5 9+o+o+o+o+o+p+                            ",
"                              v.5 J.      q+5 5 r+  s+5 1+_+  t+5 5 u+  v+5 w+    x+5 y+z+  A+B+C+#+                            ",
"                              v.5 J.      z+B.5 c+P.D+5 5 E+F+G+5 5 H+  I+5 5 J+K+L+|+5 w+Q.w.5 )+                              ",
"                              v.5 J.        ++5 5 q+  M+H.5 1+N+O+5 M+  P.;+5 5 P+  Q+R+H.5 ~+j+S+                              ",
"                                                        (+]+T+            U+t.z+        Z./+S+                                  ",
"                                                                                                                                ",
"                                                                                                                                ",
"                                                                                                                                ",
"                                                                                                                                ",
"                                                                                                                                "};
