/* XPM */
static char * Thinklabs_button_Display_over_xpm[] = {
"64 42 771 2",
"  	c #0B5DC8",
". 	c #0C5FCC",
"+ 	c #0B5FCC",
"@ 	c #0B5ECC",
"# 	c #0A56BB",
"$ 	c #0B5DC9",
"% 	c #0B5CC6",
"& 	c #0B5ECA",
"* 	c #0B5ECB",
"= 	c #031B3B",
"- 	c #010812",
"; 	c #010811",
"> 	c #000710",
", 	c #0E151E",
"' 	c #707780",
") 	c #7A818A",
"! 	c #0D141D",
"~ 	c #00070F",
"{ 	c #000A18",
"] 	c #0B5CC7",
"^ 	c #0B5DCA",
"/ 	c #02132A",
"( 	c #000000",
"_ 	c #1F1F1F",
": 	c #FBFBFB",
"< 	c #FFFFFF",
"[ 	c #2F2F2F",
"} 	c #009195",
"| 	c #00E9F1",
"1 	c #001115",
"2 	c #001C24",
"3 	c #00AECA",
"4 	c #006367",
"5 	c #00050B",
"6 	c #0B5AC5",
"7 	c #0B5AC4",
"8 	c #000D10",
"9 	c #0092B7",
"0 	c #001015",
"a 	c #1E1E1E",
"b 	c #303030",
"c 	c #003A3C",
"d 	c #00FDFE",
"e 	c #00FFFF",
"f 	c #00AEB3",
"g 	c #000B0E",
"h 	c #00A0B8",
"i 	c #00FAFD",
"j 	c #00E5EC",
"k 	c #002C2F",
"l 	c #0A5AC2",
"m 	c #002631",
"n 	c #00F9FF",
"o 	c #008995",
"p 	c #FCFCFC",
"q 	c #000304",
"r 	c #000C0F",
"s 	c #000E11",
"t 	c #003A3D",
"u 	c #00ECEE",
"v 	c #00EAF8",
"w 	c #00C5D1",
"x 	c #00F7F9",
"y 	c #001E21",
"z 	c #002E36",
"A 	c #00FAFF",
"B 	c #00CFD2",
"C 	c #00F7FF",
"D 	c #00BFC3",
"E 	c #000505",
"F 	c #001920",
"G 	c #000F13",
"H 	c #001418",
"I 	c #001B1F",
"J 	c #002124",
"K 	c #002123",
"L 	c #002427",
"M 	c #002629",
"N 	c #001214",
"O 	c #0A59C2",
"P 	c #0B5BC5",
"Q 	c #0A59C1",
"R 	c #02142B",
"S 	c #006F7A",
"T 	c #00D9E2",
"U 	c #1D1D1D",
"V 	c #313131",
"W 	c #003745",
"X 	c #00F3FE",
"Y 	c #00FDFF",
"Z 	c #00E7F3",
"` 	c #002B36",
" .	c #00444B",
"..	c #008488",
"+.	c #00D5DF",
"@.	c #00F0F3",
"#.	c #000202",
"$.	c #00CCD4",
"%.	c #00F3F9",
"&.	c #006163",
"*.	c #000C0C",
"=.	c #007D8B",
"-.	c #00E5EF",
";.	c #00FBFF",
">.	c #00FCFF",
",.	c #00F8FE",
"'.	c #00B9C5",
").	c #0B5BC4",
"!.	c #0A59C0",
"~.	c #00D3DA",
"{.	c #00F3F8",
"].	c #00F7FB",
"^.	c #323232",
"/.	c #000608",
"(.	c #003A40",
"_.	c #00484F",
":.	c #003940",
"<.	c #00171C",
"[.	c #00E8F7",
"}.	c #00E9EC",
"|.	c #005257",
"1.	c #00262A",
"2.	c #00ECF7",
"3.	c #00F6F7",
"4.	c #00E7EC",
"5.	c #00D5D7",
"6.	c #00464A",
"7.	c #00262C",
"8.	c #00252B",
"9.	c #002329",
"0.	c #001D25",
"a.	c #001F27",
"b.	c #001116",
"c.	c #0A58BF",
"d.	c #0A5AC4",
"e.	c #001A22",
"f.	c #00BCD6",
"g.	c #004C54",
"h.	c #00B4C3",
"i.	c #00FEFF",
"j.	c #003C40",
"k.	c #1C1C1C",
"l.	c #FDFDFD",
"m.	c #008CA4",
"n.	c #00F4FA",
"o.	c #00D8E1",
"p.	c #00323F",
"q.	c #00D6F2",
"r.	c #00F2F9",
"s.	c #00898D",
"t.	c #0A5AC3",
"u.	c #008CA1",
"v.	c #00F8FC",
"w.	c #00B2C4",
"x.	c #006C7A",
"y.	c #00F0F9",
"z.	c #00BABE",
"A.	c #007F98",
"B.	c #007285",
"C.	c #000A0A",
"D.	c #333333",
"E.	c #00242E",
"F.	c #00BADB",
"G.	c #005B5E",
"H.	c #003542",
"I.	c #000E12",
"J.	c #0A58BE",
"K.	c #000102",
"L.	c #001013",
"M.	c #00191C",
"N.	c #002C31",
"O.	c #00F3FA",
"P.	c #00EEF1",
"Q.	c #00414B",
"R.	c #00AFC1",
"S.	c #001014",
"T.	c #00F1FF",
"U.	c #00D8DF",
"V.	c #002526",
"W.	c #003B3D",
"X.	c #004346",
"Y.	c #001F21",
"Z.	c #000506",
"`.	c #1B1B1B",
" +	c #3D3D3D",
".+	c #0C0C0C",
"++	c #080C12",
"@+	c #0A57BD",
"#+	c #021329",
"$+	c #006C70",
"%+	c #00FCFE",
"&+	c #00767A",
"*+	c #002227",
"=+	c #00161B",
"-+	c #00191D",
";+	c #005162",
">+	c #00FAFC",
",+	c #00888E",
"'+	c #00FAFE",
")+	c #007E84",
"!+	c #00FBFD",
"~+	c #004354",
"{+	c #FEFEFE",
"]+	c #C9C9C9",
"^+	c #C2C2C2",
"/+	c #C3C3C3",
"(+	c #C4C4C4",
"_+	c #C5C5C5",
":+	c #C6C6C6",
"<+	c #C7C7C7",
"[+	c #C8C8C8",
"}+	c #8A8E94",
"|+	c #021228",
"1+	c #001315",
"2+	c #006067",
"3+	c #006D73",
"4+	c #006064",
"5+	c #004849",
"6+	c #000F12",
"7+	c #00F9FC",
"8+	c #008D97",
"9+	c #00404A",
"0+	c #001316",
"a+	c #00161C",
"b+	c #00F5FF",
"c+	c #00E5E8",
"d+	c #00EEF5",
"e+	c #001215",
"f+	c #006E7C",
"g+	c #003E4B",
"h+	c #003441",
"i+	c #002C38",
"j+	c #002833",
"k+	c #4D4D4D",
"l+	c #202020",
"m+	c #858585",
"n+	c #D8D8D8",
"o+	c #E4E4E4",
"p+	c #E3E3E3",
"q+	c #E1E1E1",
"r+	c #E0E0E0",
"s+	c #DCDCDC",
"t+	c #DADADA",
"u+	c #D9D9D9",
"v+	c #D6D6D6",
"w+	c #D4D4D4",
"x+	c #E2E2E2",
"y+	c #D1D1D1",
"z+	c #2C2C2C",
"A+	c #10151B",
"B+	c #021024",
"C+	c #00E6EB",
"D+	c #00D1DC",
"E+	c #008898",
"F+	c #00DDF4",
"G+	c #00FCFD",
"H+	c #00D5DE",
"I+	c #1A1A1A",
"J+	c #353535",
"K+	c #ABABB1",
"L+	c #DCDCE2",
"M+	c #DADAE3",
"N+	c #D8D8E2",
"O+	c #D8D8E0",
"P+	c #DDDDE0",
"Q+	c #DEDEDF",
"R+	c #E0E0E1",
"S+	c #DFDFE0",
"T+	c #E3E3E4",
"U+	c #E3E5E5",
"V+	c #DBE2E2",
"W+	c #DFDFDF",
"X+	c #DEDEDE",
"Y+	c #232323",
"Z+	c #0A55BA",
"`+	c #010B18",
" @	c #00ACB1",
".@	c #00F7FC",
"+@	c #00C1CE",
"@@	c #00EFF2",
"#@	c #0095B2",
"$@	c #00ACB6",
"%@	c #363636",
"&@	c #B4B4D1",
"*@	c #9F9FE1",
"=@	c #6CB5FD",
"-@	c #19EFFF",
";@	c #05FBFF",
">@	c #3CD0F8",
",@	c #57BCF6",
"'@	c #8184DC",
")@	c #5F5F9F",
"!@	c #34B1D4",
"~@	c #46A1D0",
"{@	c #6386C9",
"]@	c #6E80CC",
"^@	c #6B79C4",
"/@	c #6666AA",
"(@	c #666AAC",
"_@	c #77A7D2",
":@	c #76B7D5",
"<@	c #48D3E6",
"[@	c #07F8FB",
"}@	c #6391B0",
"|@	c #747490",
"1@	c #797988",
"2@	c #C9C9CA",
"3@	c #050505",
"4@	c #0954B8",
"5@	c #000104",
"6@	c #003235",
"7@	c #00F0F6",
"8@	c #00CDD4",
"9@	c #00586D",
"0@	c #008C92",
"a@	c #191919",
"b@	c #373737",
"c@	c #A0A3A5",
"d@	c #0FCEDC",
"e@	c #0CECFB",
"f@	c #14EEFD",
"g@	c #35D2F6",
"h@	c #0BEEF6",
"i@	c #2CBCDD",
"j@	c #24DDF6",
"k@	c #20B7CD",
"l@	c #04B9C3",
"m@	c #01ECF2",
"n@	c #028CAB",
"o@	c #0089AB",
"p@	c #00C9E0",
"q@	c #00DDE8",
"r@	c #01DDED",
"s@	c #00DEE3",
"t@	c #04F5FA",
"u@	c #0BE4EE",
"v@	c #16CFE0",
"w@	c #39AED7",
"x@	c #2B697D",
"y@	c #0955B7",
"z@	c #0B5AC2",
"A@	c #00E9F3",
"B@	c #008087",
"C@	c #00E9F9",
"D@	c #006165",
"E@	c #0B8999",
"F@	c #01DFE4",
"G@	c #3F6162",
"H@	c #A40000",
"I@	c #1D4D5C",
"J@	c #00E4F1",
"K@	c #00E6EF",
"L@	c #00F8FB",
"M@	c #01E9FA",
"N@	c #3597BC",
"O@	c #3C6680",
"P@	c #912F3B",
"Q@	c #880000",
"R@	c #0B2E3A",
"S@	c #012B37",
"T@	c #253133",
"U@	c #BB1D1D",
"V@	c #1C2029",
"W@	c #367592",
"X@	c #913E4B",
"Y@	c #0A7389",
"Z@	c #00A8C3",
"`@	c #00C3D4",
" #	c #00B4C1",
".#	c #0954B6",
"+#	c #0091A6",
"@#	c #003D44",
"##	c #001818",
"$#	c #181818",
"%#	c #5C0808",
"&#	c #B71919",
"*#	c #F60E0E",
"=#	c #FE1919",
"-#	c #FA0101",
";#	c #7A0506",
">#	c #032630",
",#	c #3C596F",
"'#	c #D0212A",
")#	c #BC2931",
"!#	c #EC2121",
"~#	c #EF1414",
"{#	c #EA0000",
"]#	c #EF0000",
"^#	c #F90000",
"/#	c #F80000",
"(#	c #F30000",
"_#	c #B80000",
":#	c #A10000",
"<#	c #D90000",
"[#	c #EB0000",
"}#	c #CD0202",
"|#	c #FD1717",
"1#	c #F61E1E",
"2#	c #080000",
"3#	c #0953B5",
"4#	c #002933",
"5#	c #00AEDA",
"6#	c #000D11",
"7#	c #A70000",
"8#	c #AC2C2C",
"9#	c #FFD4D4",
"0#	c #FFF8F8",
"a#	c #FDAEAE",
"b#	c #E81111",
"c#	c #E90000",
"d#	c #F70000",
"e#	c #EB0808",
"f#	c #F4EDED",
"g#	c #683838",
"h#	c #F50000",
"i#	c #F60000",
"j#	c #AF0000",
"k#	c #ED0000",
"l#	c #8C3F3F",
"m#	c #FEF4F4",
"n#	c #ED3232",
"o#	c #FE1313",
"p#	c #D56F6F",
"q#	c #0B5CC8",
"r#	c #AE0000",
"s#	c #F90202",
"t#	c #FF0E0E",
"u#	c #E20000",
"v#	c #D20000",
"w#	c #F0A4A4",
"x#	c #FEFCFC",
"y#	c #E7DEDE",
"z#	c #BD4242",
"A#	c #DA0000",
"B#	c #AC0000",
"C#	c #BD0000",
"D#	c #CA8484",
"E#	c #FED1D1",
"F#	c #F44D4D",
"G#	c #A50000",
"H#	c #0A0000",
"I#	c #0953B4",
"J#	c #032045",
"K#	c #00050C",
"L#	c #0A0F17",
"M#	c #757B82",
"N#	c #A5ABB2",
"O#	c #1B2128",
"P#	c #00060D",
"Q#	c #76060D",
"R#	c #A1060D",
"S#	c #A6060E",
"T#	c #9C0911",
"U#	c #B3565D",
"V#	c #98060E",
"W#	c #94060E",
"X#	c #C4070F",
"Y#	c #CE0C14",
"Z#	c #992129",
"`#	c #9F2F38",
" $	c #9C2931",
".$	c #921019",
"+$	c #8E0710",
"@$	c #8D0710",
"#$	c #8F0C15",
"$$	c #981F28",
"%$	c #8E0912",
"&$	c #8A0710",
"*$	c #860811",
"=$	c #A40811",
"-$	c #400811",
";$	c #021A3A",
">$	c #0955B8",
",$	c #1058B5",
"'$	c #0C5ECA",
")$	c #0C5EC9",
"!$	c #C2CDDB",
"~$	c #E9F1FB",
"{$	c #E9F0FB",
"]$	c #E0EAF5",
"^$	c #93A6C0",
"/$	c #0C57B9",
"($	c #B8CADF",
"_$	c #E7EFFA",
":$	c #637EA4",
"<$	c #0B5CC9",
"[$	c #B8CBE4",
"}$	c #DFEAF9",
"|$	c #5676A1",
"1$	c #CDD4DC",
"2$	c #F4F6F8",
"3$	c #E4E8ED",
"4$	c #EFF2F4",
"5$	c #FCFDFD",
"6$	c #BCC9DA",
"7$	c #0952B2",
"8$	c #BECBDE",
"9$	c #F1F6FB",
"0$	c #6A819E",
"a$	c #0A5BC4",
"b$	c #CFD9E6",
"c$	c #617A9A",
"d$	c #98A5B7",
"e$	c #0B54B4",
"f$	c #7A8CA5",
"g$	c #587499",
"h$	c #0A55B8",
"i$	c #0B5DCB",
"j$	c #0B5CCA",
"k$	c #0957BD",
"l$	c #CFDAE7",
"m$	c #94A3B8",
"n$	c #0A54B7",
"o$	c #BAC3CF",
"p$	c #B4C5DA",
"q$	c #0A59C3",
"r$	c #B2C3D9",
"s$	c #D3DFEE",
"t$	c #5D82B3",
"u$	c #084EAB",
"v$	c #56759D",
"w$	c #B3C6DE",
"x$	c #D0DFF2",
"y$	c #B2C4DD",
"z$	c #55739C",
"A$	c #0953B3",
"B$	c #0C5AC3",
"C$	c #A6BEDB",
"D$	c #0D5DC5",
"E$	c #91A9C8",
"F$	c #CADAEE",
"G$	c #B7C9E1",
"H$	c #5A79A2",
"I$	c #084DA7",
"J$	c #D0DAE7",
"K$	c #607A9B",
"L$	c #0A55B9",
"M$	c #396195",
"N$	c #B4C3D8",
"O$	c #DEE8F4",
"P$	c #DDE6F2",
"Q$	c #BAC8DA",
"R$	c #7289A8",
"S$	c #07489C",
"T$	c #A8BBD5",
"U$	c #C1CDDD",
"V$	c #567092",
"W$	c #0B5AC3",
"X$	c #7696C0",
"Y$	c #C3CFDD",
"Z$	c #6B85A8",
"`$	c #7C8DA4",
" %	c #D2DFF0",
".%	c #E9EEF3",
"+%	c #9CABC0",
"@%	c #4A6B98",
"#%	c #F5F7F8",
"$%	c #BCC6D3",
"%%	c #C5CFDB",
"&%	c #FEFFFF",
"*%	c #4D698E",
"=%	c #0C5AC2",
"-%	c #F2F7FD",
";%	c #E2E6EB",
">%	c #F2F4F6",
",%	c #E8EBEF",
"'%	c #70839B",
")%	c #284E80",
"!%	c #F9FAFB",
"~%	c #E1E5EA",
"{%	c #93A6BF",
"]%	c #BDC6D1",
"^%	c #0D4FA5",
"/%	c #F3F7FB",
"(%	c #3F5B82",
"_%	c #607590",
":%	c #C9D4E0",
"<%	c #8093AE",
"[%	c #97AAC1",
"}%	c #95A3B5",
"|%	c #0B5BC3",
"1%	c #5F7FA9",
"2%	c #8195B1",
"3%	c #325A8F",
"4%	c #0C5BC3",
"5%	c #C5CDD7",
"6%	c #0C4B9E",
"7%	c #9DAABB",
"8%	c #EDF0F3",
"9%	c #60799B",
"0%	c #436189",
"a%	c #A1B3CB",
"b%	c #92A5BD",
"c%	c #084EA9",
"d%	c #0950AE",
"e%	c #B0BAC8",
"f%	c #8EA0B9",
"g%	c #3C5982",
"h%	c #0F51A9",
"i%	c #4A6E9E",
"j%	c #0A53B4",
"k%	c #0B5AC1",
"l%	c #637792",
"m%	c #DEE9F8",
"n%	c #6B81A0",
"o%	c #788EAC",
"p%	c #D9E2ED",
"q%	c #90A3BC",
"r%	c #4D6584",
"s%	c #0B52B0",
"t%	c #084CA5",
"u%	c #0C5BC4",
"v%	c #516786",
"w%	c #07499F",
"x%	c #0951B1",
"y%	c #1352A6",
"z%	c #105CBF",
"A%	c #084493",
"B%	c #305990",
"C%	c #708AAC",
"D%	c #D8DDE4",
"E%	c #AAB9CC",
"F%	c #C0D0E6",
"G%	c #627996",
"H%	c #96ACC9",
"I%	c #8B9AB0",
"J%	c #7F90A6",
"K%	c #D1DEF1",
"L%	c #0B5BC6",
"M%	c #0C428B",
"N%	c #ABBACE",
"O%	c #FAFCFE",
"P%	c #E6EAEE",
"Q%	c #3E5B83",
"R%	c #0C5BC5",
"S%	c #375173",
"T%	c #084DA8",
"U%	c #0952B1",
"V%	c #155FC2",
"W%	c #CED9E6",
"X%	c #5F799B",
"Y%	c #94A2B5",
"Z%	c #EEF1F4",
"`%	c #EAEDF1",
" &	c #ABB9CC",
".&	c #8494A9",
"+&	c #A2B5CF",
"@&	c #0C55B5",
"#&	c #EFF4F8",
"$&	c #1B56A4",
"%&	c #0A56BA",
"&&	c #BDC7D5",
"*&	c #AEBFD8",
"=&	c #C9D3E0",
"-&	c #053F8C",
";&	c #6F86A5",
">&	c #BBC4D0",
",&	c #FBFCFD",
"'&	c #C9D5E4",
")&	c #0C5CC6",
"!&	c #104FA3",
"~&	c #105DC2",
"{&	c #CDD8E6",
"]&	c #7791B3",
"^&	c #DEE3E8",
"/&	c #4B678D",
"(&	c #8596AD",
"_&	c #A9B8CA",
":&	c #1357B0",
"<&	c #687C96",
"[&	c #D4DAE1",
"}&	c #99A8BC",
"|&	c #0D53B0",
"1&	c #0F5BBE",
"2&	c #8697AE",
"3&	c #55739B",
"4&	c #8096B2",
"5&	c #BFC8D3",
"6&	c #68809F",
"7&	c #657994",
"8&	c #DCE5F2",
"9&	c #0C5CC7",
"0&	c #F1F6FC",
"a&	c #B9C2CE",
"b&	c #0A57BC",
"c&	c #6E85A2",
"d&	c #CCD8E6",
"e&	c #5E799C",
"f&	c #BFCBDA",
"g&	c #8998AD",
"h&	c #084BA3",
"i&	c #AEBBCE",
"j&	c #C0CBD8",
"k&	c #798AA2",
"l&	c #97ADC8",
"m&	c #7E93B0",
"n&	c #F6F8F9",
"o&	c #97AAC3",
"p&	c #8B9EB7",
"q&	c #E3E7EC",
"r&	c #93A5BF",
"s&	c #0C5DC8",
"t&	c #D5DBE2",
"u&	c #BCC5D1",
"v&	c #768FB0",
"w&	c #CAD7E6",
"x&	c #9DAEC3",
"y&	c #8B9AAE",
"z&	c #C0CBDA",
"A&	c #637A99",
"B&	c #1352A5",
"C&	c #C1CDDB",
"D&	c #F0F5FC",
"E&	c #EFF5FC",
"F&	c #EEF5FC",
"G&	c #B9C6D7",
"H&	c #4D6C97",
"I&	c #0951AF",
"J&	c #BBCBDF",
"K&	c #EDF4FC",
"L&	c #637FA4",
"M&	c #748EB0",
"N&	c #DFE7F3",
"O&	c #EBF2FB",
"P&	c #E7EFF9",
"Q&	c #8FA2BB",
"R&	c #0C56B7",
"S&	c #D7DEE7",
"T&	c #EDF3FB",
"U&	c #8C9EB7",
"V&	c #BFD0E5",
"W&	c #58779F",
"X&	c #1152A8",
"Y&	c #C2CEDC",
"Z&	c #C1CDDC",
"`&	c #587293",
" *	c #DEE8F6",
".*	c #0D52AF",
"+*	c #EEF3F9",
"@*	c #C1C9D4",
"#*	c #084FAC",
"$*	c #365073",
"%*	c #0C5DC9",
"&*	c #0C5ECB",
"**	c #104EA1",
"=*	c #F5F8FA",
"-*	c #657A96",
";*	c #0A55B7",
">*	c #0A5BC5",
",*	c #0B59C1",
"'*	c #0C5DCA",
")*	c #084EAA",
"!*	c #2C4D7B",
"~*	c #B3BFCF",
"{*	c #F1F3F6",
"]*	c #0D4DA0",
"^*	c #0A58BD",
"/*	c #0A57BB",
"(*	c #0A56B9",
"_*	c #0954B5",
":*	c #084FAB",
"<*	c #76889F",
"[*	c #657FA2",
"}*	c #0955B9",
"|*	c #1461C5",
"1*	c #1F63BD",
"2*	c #0D57BA",
"3*	c #234C83",
"4*	c #7D92AE",
"5*	c #798EAA",
"6*	c #3C5980",
"  . . . + + + + + + + + + + + + + + + + + + + + + + + + + + + + + + + + + + + + + + + + + + + + + + + + + . . . . . . . . . @ # ",
"$ + . . . . . + + + + @ @ @ @ @ @ @ @ @ @ @ + + + + + + + + + . . . . . . . . . . . . . . . . . . . . . . . . . . . . . . . . + ",
"% & + % . . . . . . . . . . . . . . . . . . . . . . . . . . . . . . . . . . . . . . . . . . . . . . . . . . . . . . . . . . . + ",
"* * +   = - - ; ; ; ; ; ; ; ; ; ; ; > > > > > > > > > > > , ' ) ! > > > > > > > > > > > ~ ~ ~ ~ ~ ~ ~ ~ ~ ~ ~ ~ ~ ~ ~ { ] + . * ",
"^ + . % / ( ( ( ( ( ( ( ( ( ( ( ( ( ( ( ( ( ( ( ( ( ( ( ( _ : < [ ( ( ( ( ( } | 1 ( ( 2 3 4 ( ( ( ( ( ( ( ( ( ( ( ( ( 5 6 + . & ",
". . + 7 / ( ( ( ( ( ( ( ( ( 8 9 0 ( ( ( ( ( ( ( ( ( ( ( ( a : < b ( ( ( ( c d e f ( g h i j k ( ( ( ( ( ( ( ( ( ( ( ( 5 7 . .   ",
". . & l / ( ( ( ( ( ( ( ( ( m n o ( ( ( ( ( ( ( ( ( ( ( ( a p < b q r s t u v w x y z A B C D E ( ( F G H I J K L M N 5 O . . P ",
". . & Q R ( ( ( ( ( ( ( ( ( S e T g ( ( ( ( ( ( ( ( ( ( ( U p < V W X Y Y Z `  .n ..+.@.#.$.%.&.*.=.-.;.>.>.;.>.;.,.'.5 Q . . ).",
". . . !./ ( ( ( ( ( ( ( ( ( ~.{.].g ( ( ( ( ( ( ( ( ( ( ( U p < ^./.(._.:.<.( g [.}.A |.( 1.2.3.4.A 5.6.7.7.8.9.0.a.b.5 c.. . d.",
". . + !./ ( ( ( ( e.f.g.( g x h.i.j.( G ( ( ( ( ( ( ( ( ( k.l.< ^.( ( ( ( ( ( ( m.n.o.( ( ( p.q.r.s.( ( ( ( ( ( ( ( ( 5 c.. . t.",
". . * !./ ( ( ( ( u.v.w.g g d x.y.z.q A.B.C.( ( ( ( ( ( ( k.l.< D.( ( ( ( ( ( ( E.F.G.( ( ( ( H.I.( ( ( ( ( ( ( ( ( ( 5 J.. . t.",
". . * !./ K.L.M.N.O.P.v.r r i.Q.R.@.S.T.A U.V.g L W.X.Y.Z.`.l.<  +.+.+.+.+.+.+.+.+.+.+.+.+.+.+.+.+.+.+.+.+.+.+.+.+.+.+++@+. . t.",
". . & Q #+$+%+e e d &+e *+=+e -+;+>+,+'+)+!+e e e e e '+~+`.{+< ]+^+^+^+^+/+/+/+/+/+(+(+_+_+_+:+:+:+:+<+<+<+<+<+<+<+[+}+# + . Q ",
". . * Q |+1+2+3+4+5+6+7+8+9+i.0+a+b+c+d+e+G f+g+h+i+j+E.g `.{+< k+l+m+n+o+o+o+p+q+r+s+t+u+n+v+w+n+t+u+w+r+x+p+x+u+y+z+A+# + . Q ",
". . + ).B+( ( ( ( ( ( C+D+E+!+g g F+G+H+g ( ( ( ( ( ( ( ( I+{+< J+( K+L+M+N+O+P+p+p+q+r+r+r+q+Q+R+S+p+T+U+V+W+q+X+t+Y+5 Z++ . Q ",
". . + ] `+( ( ( ( ( (  @.@+@@@g g #@e $@( ( ( ( ( ( ( ( ( I+{+< %@( &@*@=@-@;@>@,@'@)@!@~@{@]@^@/@(@_@:@<@[@}@|@1@2@3@5 4@@ . l ",
". . @   5@( ( ( ( ( ( 6@>.7@8@( ( 9@Y 0@( ( ( ( ( ( ( ( ( a@< < b@( c@d@7+e@f@g@h@i@j@k@l@m@n@o@o@p@q@r@s@t@u@v@w@x@( 5 y@@ . z@",
". . . ] ( ( ( ( ( ( ( g A@e B@( ( 0.C@D@( ( ( ( ( ( ( ( ( a@< < b@( E@F@G@H@I@J@K@L@M@N@O@P@Q@R@S@T@U@V@W@X@Y@Z@`@ #( 5 .#& . 7 ",
"  . . % ( ( ( ( ( ( ( ( +#>.@#( ( ( ##*.( ( ( ( ( ( ( ( ( $#< < b@( %#&#*#=#-#;#>#,#'#)#!#~#{#]#^#/#(#_#:#<#[#}#|#1#2#5 3#$ . % ",
"] . + ] ( ( ( ( ( ( ( ( 4#5#6#( ( ( ( ( ( ( ( ( ( ( ( ( ( $#< < b@( 7#8#9#0#a#b#c#d#e#f#< < g#h#i#j#k#l#p < m#n#o#p#( 5 3#q#. ] ",
"$ . & $ ( ( ( ( ( ( ( ( ( ( ( ( ( ( ( ( ( ( ( ( ( ( ( ( ( $#< < b@( r#s#< < < t#u#v#w#x#< < y#z#A#B#C#D#< < < E#F#G#H#5 I#] . q#",
"$ +   & J#K#K#K#K#K#K#K#K#K#K#K#K#K#K#K#K#K#K#K#K#K#K#K#K#L#M#N#O#P#Q#R#S#T#U#V#W#W#X#Y#Z#`# $.$+$+$+$@$#$$$%$&$*$=$-$;$>$  .   ",
"$ . + @ $ ] ] ] q#q#q#q#$ $ $ $ $ $ $ $ $ $ & & & & & & * * * * * * * + + + + + + . . . . . . . . . . . . . . . . . . . .   . $ ",
"$ . * ,$. . . . . . . . . . * . . . * * * * * * * * * * * * * & & & & & & & & '$'$)$^ ^ ^ ^ $ $ $ $ $ q#q#q#q#q#q#] $ & ] $ . $ ",
"$ . $ !$~${${${${$]$^$/$* *   ($_$:$P . . . * * * * * * & & ^ ^ ^ ^ ^ <$<$<$c.[$}$|$. . . . . . . . . @ @ * * & & ^ * $   $ . ^ ",
"* . $ 1$< 2$3$4$5$< < 6$7$+ ] 8$9$0$q#. . . . . . . . . . . . . . . . . . a$. b$< c$. . . . . . . . . . . . . . . . . . ^ * . ^ ",
"+ . * 1$< d$% !.e$f$< < g$& ] h$!.J.  ^ q#q#q#q#q#q#^ i$* q#q#^ q#q#q#q#^ j$k$l$< c$. * * * + + . . . . . . . + + + @ & Q . . ^ ",
"* @ $ 1$< m$& . * n$o$< p$$ q$r$s$t$+ u$v$w$x$x$y$z$A$. B$C$C$D$E$F$G$H$I$.#* J$< K$. L$M$N$O$P$Q$R$S$. T$U$V$7$W$W$X$Y$Z$. . ^ ",
"c.* $ 1$< m$  * &   `$<  %$ W$.%< +%+ @%< #%$%%%&%< *%. =%-%< ;%>%,%< < '%] + l$< K$. )%!%< ~%3$< < c$. {%< ]%% $ ^%/%< (%. . $ ",
"!.*   1$< m$$   . Q _%< }$)$7 :%< <%+ [%< }%|%* 1%2%3%. 4%-%< 5%6%$ 7%< 8%& + l$< 9%. 0%a%b%c%d%e%< f%+ g%< 5$h%P i%< 3$j%+ . $ ",
"k%+ ] 1$< m$+ Q . n$l%< m%)$P :%< n%+ o%< < p%q%r%s%t%. u%-%< v%w%x%y%< < z%+ b$< 9%. A$3#A%B%C%D%< E%* h$F%< G%A$H%< I%P . . & ",
").* ] 1$< m$* z@* W$J%< K%$ L%:%< n%+ M%N%O%< < < P%Q%. R%-%< S%T%U%).< < V%. W%< X%+ $ Y%Z%< !%`%<  && $ .&< +&@&#&< $&* . . & ",
"] * ).1$< m$  W$%&] &&< *&$ ] =&< n%+ -&I$z%;&>&,&< '&. )&-%< v%A$7$!&< < ~&. {&< X%+ ]&< ^&/&s%(&< _&$ P :&&%,&<&< [&% . @ . & ",
"  & !.1$< }&)&|&1&2&< < 3&  ] =&< n%+ 4&5&6&!.c%7&< 8&. 9&0&< a&b&%&c&< #%u%. d&< e&* f&< g&W$h&>&< i&q#] ).j&< 4$< k&+ . ^ . & ",
"] * J.1$< < < < < < < l&@+* q#=&< n%+ m&< n&o&p&q&< r&. s&0&< &%t&u&&%< v&. . w&< e&* x&< Z%y&u&< < z&).. + A&< < &%B&. + q#. * ",
"% * c.C&D&D&E&F&p%G&H&I&  <$^ J&K&L&+ T%M&N&O&O&P&Q&R&. s&0&< 7&S&0&T&U&k%* + V&0&W&* X&Y&D&D&Z&`&E& *4%$ & .*+*< @*#*).!.q#. * ",
"P * * & & * * * * @ + + . . . . . . . . . . . . . . . . '$0&< $*x%%*] $ $ @ . $ $ ^ . * & &*&** * * + + + + **=*< -*;** @ + . + ",
").* >*!.z@).] $ * . * &   + + % ,*c.. $ ] & &   P W$.#. '*0&< $*;*>$Q . . . . P @+h$  L$A$)*I&3#L$@+k%% !*/&~*< {*]*P ] ^*!.. * ",
").+ $ & . . . *   $ $ J.  @ * . & % * ] % * + + . * ).. &*0&< $*c./*P ).. . . . . . . * (*(*h$_*d%c%:*P <*< < < [*. ).. * }*. . ",
"W$+ q#% & * * + . . * . . . . . . + + & . . . . . . ] + h$|*1*2*%&>$* & & . . *   ] & & & &   P !.).% z@3*4*5*6*A$+ ] $ J.$ % + ",
"% + & . + + + + + + + + + . + + + + + + + + + + + + + . + + + + + + + + . . . . . . . . . + + + + + + + + + + + + + + + + + P + ",
"% . . + & & & & * * * * * * % O Q Q !.Q l d.P %     ] % % % % % % ]       * . . . + *   $ $ $ $ $ &   & @ * ^     $ & & * * @ !."};
