/* XPM */
static char * Thinklabs_button_Rate_dis_xpm[] = {
"64 42 36 1",
" 	c #DCDCDC",
".	c #E2E2E2",
"+	c #EFEFEF",
"@	c #DFDFDF",
"#	c #E0E0E0",
"$	c #ECECEC",
"%	c #E8E8E8",
"&	c #E3E3E3",
"*	c #F0F0F0",
"=	c #E1E1E1",
"-	c #E6E6E6",
";	c #FDFDFD",
">	c #FFFFFF",
",	c #E7E7E7",
"'	c #FEFEFE",
")	c #E5E5E5",
"!	c #E4E4E4",
"~	c #EAEAEA",
"{	c #DEDEDE",
"]	c #F5F5F5",
"^	c #F2F2F2",
"/	c #DDDDDD",
"(	c #F8F8F8",
"_	c #FCFCFC",
":	c #EDEDED",
"<	c #F9F9F9",
"[	c #FAFAFA",
"}	c #FBFBFB",
"|	c #EBEBEB",
"1	c #F4F4F4",
"2	c #F6F6F6",
"3	c #E9E9E9",
"4	c #EEEEEE",
"5	c #F3F3F3",
"6	c #F7F7F7",
"7	c #F1F1F1",
"                                                                ",
"                                                                ",
"                                                                ",
"                                                                ",
"                                                                ",
"                                                                ",
"                                                                ",
"   .+@     #$@     #%@             @%@             &*=          ",
"   -;.     .>.     ,;=             -;&             -'&          ",
"   -;.     .>.     -'=             )'&             !>&          ",
"   -;&     .>.     !'=             !'.             &>&          ",
"   )'&     .>.     !>#             !>.             &>)          ",
"   )'&     .>&     &>#             &>.             .>)          ",
"   )'&     .>&     .>=             &>.             .>-          ",
"   !'&     .>.     #>#             =>.             #')          ",
"   &'-@@@@@!>!@@@@@&>&@@@@@@@@@@@@@!>)@@@@@@@@@@@@@&;~@@@@@{    ",
"   #]';;;;;''';;;;;'>';;;''''''''''>>>'''''''''''''>>>'''>>^    ",
"    #)))))!!!!!!!!!!!!!!!!!!!!&&&&&&&&&&&&&&&&&&&&&&.......#    ",
"                                                                ",
"                                                                ",
"                                                                ",
"                                                                ",
"                                                                ",
"               =....=/                                          ",
"               (>>>>>>_*/            .*                         ",
"               (>'___>>>:           %><                         ",
"               (>^   #[>[           :><                         ",
"               (>^    ^>_  @^_>}]= |_>'<, /*}'(,                ",
"               (>^/{#)_>1  2>'[>>} +>>>>3 2>'<>>3               ",
"               (>>>>>>>_. {^(. )>>{/4><{/,>'= 3>}/              ",
"               (>''>>>$@     #~5>>. :><  *>6..&>>.              ",
"               (>^ !;>(@   -<>>_>>. :><  1>>>>>>>-              ",
"               (>^  ,>>1  =>>+.@>>. :><  ^>6-----#              ",
"               (>^   7>>3 3>'/ ->>& $>[  ~>_{ )]+{              ",
"               (>^   {_>;@!>>]7;>>) 3>><~{}>[^_>2               ",
"               (>^    ,>>7 4>>':6>4 @[>>: #2>>>1@               ",
"                            {./      /={    /.@                 ",
"                                                                ",
"                                                                ",
"                                                                ",
"                                                                ",
"                                                                "};
