/* XPM */
static char * Thinklabs_button_Amplify_dis_xpm[] = {
"64 42 36 1",
" 	c #DCDCDC",
".	c #DFDFDF",
"+	c #EFEFEF",
"@	c #F3F3F3",
"#	c #DEDEDE",
"$	c #FAFAFA",
"%	c #FDFDFD",
"&	c #FCFCFC",
"*	c #EEEEEE",
"=	c #FFFFFF",
"-	c #E5E5E5",
";	c #E2E2E2",
">	c #FBFBFB",
",	c #F9F9F9",
"'	c #FEFEFE",
")	c #ECECEC",
"!	c #E0E0E0",
"~	c #F8F8F8",
"{	c #E3E3E3",
"]	c #EAEAEA",
"^	c #F2F2F2",
"/	c #E1E1E1",
"(	c #DDDDDD",
"_	c #E4E4E4",
":	c #E8E8E8",
"<	c #F6F6F6",
"[	c #F1F1F1",
"}	c #EDEDED",
"|	c #E7E7E7",
"1	c #F7F7F7",
"2	c #F4F4F4",
"3	c #F0F0F0",
"4	c #E6E6E6",
"5	c #EBEBEB",
"6	c #F5F5F5",
"7	c #E9E9E9",
"                                                                ",
"                                                                ",
"                                                                ",
"                                                                ",
"                                                                ",
"                                                                ",
"                             .+@.                               ",
"                            #$%&@#                              ",
"                            *%===-                              ",
"                           ;=====>#                             ",
"                          #,'%===')                             ",
"                          *%=======!                            ",
"                         ;==%======@                            ",
"                        #~%&========{                           ",
"                        *%=%=%======,#                          ",
"                       ;=='========'=]                          ",
"                      #~%'==========='.                         ",
"                      *&==============^                         ",
"                     !&===============%.                        ",
"                      !!!!!!!!!!!!!!!!.                         ",
"                                                                ",
"                                                                ",
"                                                                ",
"      .;;#                              /;. #;;(  (_:{(         ",
"      ^==)                              $=) _==. (<===/         ",
"     #'==$                              $=) _==. {==[}(         ",
"     ]='==_                             $=)      |==(           ",
"     1=[,=^    ~,{@%$]#[&>*  #,,;2%>)   $=) {,,#}>==,3~,:   ^,} ",
"    /==_)='#   '=&%&==$'$==] .==&'&==)  $=) _==.[====2@=<  .==4 ",
"    +=>(!==5   '=~(#&=%!(~=^ .==~#([=%# $=) _==.(:='((4==. ]=&( ",
"   (&=+  <=~   '=)  ~=2  ^=6 .==:  !==_ $=) _==. :='  (&=] 6=3  ",
"   4==>,,&=={  '=:  1=3  3=< .==_  (==| $=) _==. :='   +=6#'={  ",
"   2========[  '=:  1=+  3=< .==:  .==_ $=) _==. :='   ;==5=,   ",
"  .==+----2=%# '=:  1=+  3=< .==<( )='. $=) _==. :='    ~=%=}   ",
"  5==!    _==7 '=:  1=+  3=< .===$<==3  $=) _==. :='    5===!   ",
"  ,=<     ($=1 '=:  1=+  3=< .==]>==[(  $=) _==. :='    .==1    ",
"                             .==_(/#                    !==]    ",
"                             .==_                     {:<=%#    ",
"                             .==_                     }===5     ",
"                             (77.                     {+*-      ",
"                                                                ",
"                                                                "};
