/* XPM */
static char * Thinklabs_button_Import_xpm[] = {
"64 42 357 2",
"  	c #00214D",
". 	c #122731",
"+ 	c #1B2A22",
"@ 	c #122732",
"# 	c #042247",
"$ 	c #5C708A",
"% 	c #AFB7C2",
"& 	c #CACFD4",
"* 	c #D6D9DC",
"= 	c #D9DBDE",
"- 	c #D8DADD",
"; 	c #B3BBC4",
"> 	c #61748E",
", 	c #1C3960",
"' 	c #03244F",
") 	c #1C2B21",
"! 	c #2B300A",
"~ 	c #1C2B22",
"{ 	c #062343",
"] 	c #B0B8C3",
"^ 	c #E5E5E5",
"/ 	c #CED2D6",
"( 	c #596E89",
"_ 	c #00214C",
": 	c #252E14",
"< 	c #042246",
"[ 	c #1B385A",
"} 	c #193759",
"| 	c #01224D",
"1 	c #546985",
"2 	c #E0E1E2",
"3 	c #E2E3E4",
"4 	c #B1B9C3",
"5 	c #4F6482",
"6 	c #1A375F",
"7 	c #73849B",
"8 	c #CDD1D6",
"9 	c #BBC1CA",
"0 	c #13325A",
"a 	c #1E2C1E",
"b 	c #1A3140",
"c 	c #0E2D54",
"d 	c #213E5E",
"e 	c #173558",
"f 	c #1D3A5B",
"g 	c #2B4662",
"h 	c #506775",
"i 	c #92A096",
"j 	c #C5CDAF",
"k 	c #E5E9C0",
"l 	c #FBFCCA",
"m 	c #6B7E83",
"n 	c #04244F",
"o 	c #8190A3",
"p 	c #ADB5BF",
"q 	c #4B637F",
"r 	c #092851",
"s 	c #062651",
"t 	c #9BA7B5",
"u 	c #E4E5E5",
"v 	c #E1E2E3",
"w 	c #455C7C",
"x 	c #354F67",
"y 	c #768888",
"z 	c #B2B896",
"A 	c #DFE1B5",
"B 	c #F8F9C9",
"C 	c #FFFFCC",
"D 	c #E2E6BE",
"E 	c #B5BEA7",
"F 	c #DDE2BB",
"G 	c #F6F7C8",
"H 	c #F4F6C1",
"I 	c #DEE3A6",
"J 	c #C4CC99",
"K 	c #CED498",
"L 	c #284461",
"M 	c #213D5D",
"N 	c #40586C",
"O 	c #869690",
"P 	c #798A89",
"Q 	c #19375E",
"R 	c #9EA9B6",
"S 	c #516784",
"T 	c #01224E",
"U 	c #2B466A",
"V 	c #FEFFCC",
"W 	c #ECEFBA",
"X 	c #D8DC98",
"Y 	c #D3D77A",
"Z 	c #D4D667",
"` 	c #DFE061",
" .	c #F2F262",
"..	c #FCFC65",
"+.	c #FFFF66",
"@.	c #C3CB68",
"#.	c #C8D1B1",
"$.	c #B7C0A8",
"%.	c #F0F3C5",
"&.	c #FBFBCA",
"*.	c #475F7D",
"=.	c #B2BAC5",
"-.	c #314B6E",
";.	c #082852",
">.	c #133257",
",.	c #F7F8C8",
"'.	c #FFFFCB",
").	c #E6EABF",
"!.	c #C4C899",
"~.	c #C2C571",
"{.	c #C6CD6D",
"].	c #DDDF62",
"^.	c #F8F863",
"/.	c #FBFB64",
"(.	c #FEFE65",
"_.	c #F8F864",
":.	c #EEEE64",
"<.	c #E2E36E",
"[.	c #DDDF88",
"}.	c #E9EBBC",
"|.	c #FEFECC",
"1.	c #F4F5C6",
"2.	c #E6E9C0",
"3.	c #ECEEC2",
"4.	c #F2F4C6",
"5.	c #BAC3AA",
"6.	c #3E5677",
"7.	c #D2D5D9",
"8.	c #243F65",
"9.	c #A0AAB9",
"0.	c #CFD6B4",
"a.	c #DBE0BA",
"b.	c #565F44",
"c.	c #C7C750",
"d.	c #F4F462",
"e.	c #FAFA64",
"f.	c #F2F260",
"g.	c #E6E661",
"h.	c #DFDF6E",
"i.	c #D8D97E",
"j.	c #CDD199",
"k.	c #E6E9B8",
"l.	c #F4F6C7",
"m.	c #E4E8BF",
"n.	c #E8EBC0",
"o.	c #FAFBCA",
"p.	c #546A77",
"q.	c #4D6380",
"r.	c #E4E4E4",
"s.	c #D9DBDD",
"t.	c #DADDE0",
"u.	c #092853",
"v.	c #516775",
"w.	c #606132",
"x.	c #EFEF5D",
"y.	c #E2E259",
"z.	c #777A3F",
"A.	c #D3D7AF",
"B.	c #FEFECB",
"C.	c #FDFDCB",
"D.	c #F5F6C7",
"E.	c #EDF0C3",
"F.	c #F0F2C5",
"G.	c #FAFBC9",
"H.	c #102F55",
"I.	c #465E7C",
"J.	c #1C395A",
"K.	c #FCFDCB",
"L.	c #9FA173",
"M.	c #EAEA5B",
"N.	c #DDDD59",
"O.	c #D0D6B5",
"P.	c #DADFBA",
"Q.	c #EEF0C3",
"R.	c #F2F4C5",
"S.	c #FDFECB",
"T.	c #F8F9C8",
"U.	c #A3AE9D",
"V.	c #0A2A54",
"W.	c #5D718B",
"X.	c #D9DADD",
"Y.	c #C6CDAF",
"Z.	c #E8E9BA",
"`.	c #DDDD57",
" +	c #ECEC5F",
".+	c #BFC7AC",
"++	c #304A65",
"@+	c #354E70",
"#+	c #DCDEE0",
"$+	c #1B385F",
"%+	c #475E70",
"&+	c #CECE52",
"*+	c #F3F361",
"=+	c #F4F5C7",
"-+	c #FCFCCA",
";+	c #F3F5C6",
">+	c #E5E8BF",
",+	c #E9ECC1",
"'+	c #213E63",
")+	c #445B7A",
"!+	c #3E5676",
"~+	c #2C476A",
"{+	c #092954",
"]+	c #D0D178",
"^+	c #EFEF61",
"/+	c #F9FAC9",
"(+	c #FAFCCA",
"_+	c #BDC6AB",
":+	c #E9ECB5",
"<+	c #BFC576",
"[+	c #EEF0C4",
"}+	c #3D566B",
"|+	c #A6B19F",
"1+	c #F6F8C8",
"2+	c #F3F5C7",
"3+	c #F9F9C9",
"4+	c #F6F7C7",
"5+	c #FAFAC9",
"6+	c #D2D8B6",
"7+	c #8B9A92",
"8+	c #0A2A52",
"9+	c #E6E9BF",
"0+	c #E3E6BE",
"a+	c #DFE4BC",
"b+	c #6E8184",
"c+	c #284361",
"d+	c #B9C2A9",
"e+	c #E1E5BD",
"f+	c #DAE0BA",
"g+	c #B4BEA7",
"h+	c #526876",
"i+	c #203D5D",
"j+	c #2F4A65",
"k+	c #FEFFCB",
"l+	c #D9DEBA",
"m+	c #9AA79A",
"n+	c #3D566C",
"o+	c #1A375A",
"p+	c #264267",
"q+	c #2C476C",
"r+	c #18365E",
"s+	c #DBE0E6",
"t+	c #FFFFFF",
"u+	c #8E9DB0",
"v+	c #17355D",
"w+	c #9DAABB",
"x+	c #2B466B",
"y+	c #F0F2F5",
"z+	c #0A2954",
"A+	c #425A7B",
"B+	c #445C7C",
"C+	c #CFD6DE",
"D+	c #A3AFBF",
"E+	c #3E5778",
"F+	c #C8CFD9",
"G+	c #F4F6F8",
"H+	c #C5CDD7",
"I+	c #29446A",
"J+	c #BEC7D2",
"K+	c #F3F5F7",
"L+	c #CBD2DB",
"M+	c #4B6281",
"N+	c #4A6181",
"O+	c #A2AEBE",
"P+	c #40597A",
"Q+	c #C3CBD5",
"R+	c #607590",
"S+	c #CDD4DC",
"T+	c #F8F9FB",
"U+	c #E5E9ED",
"V+	c #AEB9C7",
"W+	c #254167",
"X+	c #C9D0DA",
"Y+	c #435B7C",
"Z+	c #D3D9E1",
"`+	c #E7EBEF",
" @	c #A1ADBE",
".@	c #DCE1E7",
"+@	c #D1D7DF",
"@@	c #7E8FA5",
"#@	c #546A88",
"$@	c #EFF2F4",
"%@	c #F9FAFB",
"&@	c #DADFE6",
"*@	c #EEF1F4",
"=@	c #E9ECF0",
"-@	c #1F3C63",
";@	c #5B708D",
">@	c #EAEDF1",
",@	c #F6F8F9",
"'@	c #FBFCFD",
")@	c #385274",
"!@	c #8696AB",
"~@	c #F5F7F8",
"{@	c #395275",
"]@	c #EBEEF1",
"^@	c #95A3B5",
"/@	c #9BA8B9",
"(@	c #72849D",
"_@	c #496080",
":@	c #B2BCCA",
"<@	c #02224E",
"[@	c #4F6684",
"}@	c #8B9AAE",
"|@	c #0F2E57",
"1@	c #BCC5D1",
"2@	c #284469",
"3@	c #FDFEFE",
"4@	c #8595AA",
"5@	c #03234F",
"6@	c #112F59",
"7@	c #D5DBE2",
"8@	c #E8EBEF",
"9@	c #344E71",
"0@	c #072752",
"a@	c #16345C",
"b@	c #233F65",
"c@	c #566C89",
"d@	c #697C96",
"e@	c #FEFFFF",
"f@	c #0C2B55",
"g@	c #7A8BA2",
"h@	c #042450",
"i@	c #3C5577",
"j@	c #DEE3E8",
"k@	c #6C7F98",
"l@	c #102F58",
"m@	c #70839B",
"n@	c #354F72",
"o@	c #576D8A",
"p@	c #8191A7",
"q@	c #0B2A55",
"r@	c #788AA1",
"s@	c #B5BFCC",
"t@	c #C7CFD8",
"u@	c #3F5879",
"v@	c #5C718D",
"w@	c #E4E8ED",
"x@	c #052550",
"y@	c #3B5476",
"z@	c #15335C",
"A@	c #C0C8D3",
"B@	c #D0D6DF",
"C@	c #B3BDCA",
"D@	c #536987",
"E@	c #274368",
"F@	c #D7DDE3",
"G@	c #96A4B6",
"H@	c #5D728E",
"I@	c #F2F4F6",
"J@	c #637792",
"K@	c #8D9CB0",
"L@	c #F1F3F6",
"M@	c #DDE2E8",
"N@	c #48607F",
"O@	c #AFBAC7",
"P@	c #213D64",
"                                                                                                                                ",
"                                                                                                                                ",
"                                                                                                                                ",
"                      . + @ @ @ @ @ #                               $ % & * = - ; > , '                                         ",
"                      ) ! ~ ~ ~ ~ ~ {                           ] ^ ^ ^ ^ ^ ^ ^ ^ ^ ^ / (                                       ",
"                      _ : <                       [ } |     1 2 ^ 3 4 5 6       7 8 ^ ^ ^ 9 0                                   ",
"                        a b c d e c c [ f g h i j k l m n   o p q   r               s t u ^ v w                                 ",
"                    x y z A B C D E F G C C C H I J K C L c c M N O P n                 Q R ^ ^ S       T U                     ",
"                  N V C C C C C C W X Y Z `  ...+.+.@.C #.$.%.C C &.C [                     *.^ ^ =.T   -.^ ;.                  ",
"                >.,.'.).!.~.{.]. .^./.(..._.:.<.[.}.C |.C 1.2.3.4.C 5.c                       6.3 ^ 7.8.9.^ ;.                  ",
"                  0.a.b.c.d.e.f.g.h.i.j.k.C |.V |.l.m.n.o.C C C C |.p.                          q.r.^ s.t.^ u.                  ",
"                  v.C w.x.y.z.A.B.C.,.C l D.E.,.V C C C C C C l F.G.H.                            I.^ ^ ^ ^ u.                  ",
"                  J.K.L.M.N.O.C 2.P.Q.R.K.C C C C C C C S.C C T.C U.                            V.W.X.^ ^ ^ V.                  ",
"                    Y.Z.`. +C .+K.C C C C C C C |.C C C |.C C D.C ++                          @+#+^ ^ ^ ^ 2 $+                  ",
"                    %+C &+*+C =+C C C |.C |.B.B.C.-+C C C S.;+>+,+[                             '+)+!+~+{+s                     ",
"                    [ o.]+^+C /+C (+C l C.K.C.C C C B.B B l.,+&.i                                                               ",
"                      _+:+<+C F.C C C C &.;+V C C D.|./+[+&.C ,.e                                                               ",
"                      }+C |+1+2+3+4+C S.|.C C C &.C C 5+6+7+x 8+                                                                ",
"                      [ T.9+0+a+,.|.C./+/+C C 4.j b+c+[ c                                                                       ",
"                        d+|.e+f+T.C C 2.g+h+i+[                                                                                 ",
"                        j+k+|.l+m+n+f [                                                                                         ",
"                          c o+[                                                                                                 ",
"                                                                                                                                ",
"            p+q+r+                                                                                                              ",
"            s+t+u+                                                                                        v+w+u.                ",
"            s+t+u+                                                                                      x+y+t+z+                ",
"            s+t+u+                                                                                      A+t+t+z+                ",
"            s+t+u+  B+C+D+E+F+G+H+x+I+J+K+L+M+    N+C+O+P+Q+G+L+P+        R+S+T+U+V+W+      X+C+Y+Z+`+ @.@t+t++@@@              ",
"            s+t+u+  #@t+$@%@&@G+t+`+*@U+=@t+G+-@  ;@t+>@,@`+K+t+'@)@    !@t+t+G+'@t+~@{@    T+t+]@t+t+^@t+t+t+t+/@              ",
"            s+t+u+  #@t+t+(@  _@t+t+:@<@, t+t+[@  ;@t+t+}@T |@C+t+1@  2@3@t+4@5@6@J+t+7@5@  T+t+8@9@M+0@M+t+t+a@0@              ",
"            s+t+u+  #@t+t+v+  b@t+t+c@    $@t+d@  ;@t+e@f@    R+t+K+  g@t+`+h@    9@t+t+p+  T+t+!@      A+t+t+z+                ",
"            s+t+u+  #@t+'@<@  v+t+t+i@    j@t+k@  ;@t+$@      Y+t+t+l@^@t+H+      |@t+t+N+  T+t+m@      A+t+t+z+                ",
"            s+t+u+  #@t+,@    a@t+t+n@    j@t+k@  ;@t+e@f@    o@t+,@T p@t+j@      2@t+t+x+  T+t+R+      A+t+t+q@                ",
"            s+t+u+  #@t+,@    a@t+t+n@    j@t+k@  ;@t+t+r@  <@s@t+t@  u@t+t+v@  <@O+t+w@x@  T+t+#@      y@t+t+z@                ",
"            s+t+u+  #@t+,@    a@t+t+n@    j@t+k@  ;@t+e@e@A@B@t+t+N+  T C@t+3@F+&@t+e@[@    T+t+D@      E@t+t+F@G@              ",
"            s+t+u+  #@t+,@    a@t+t+n@    j@t+k@  ;@t+*@H@K+t+I@J@      u.K@L@t+t+M@N@      T+t+D@        O@t+t+:@              ",
"                                                  ;@t+*@  x@W+h@            0@E@z@                          , 6                 ",
"                                                  ;@t+*@                                                                        ",
"                                                  ;@t+*@                                                                        ",
"                                                  P@v@c@                                                                        ",
"                                                                                                                                ",
"                                                                                                                                "};
