/* XPM */
static const char *SilenceAlpha[] = {
"20 18 3 1",
" 	c None",
".	c #000000",
"+	c #FFFFFF",
"....................",
"....................",
"......+......+......",
".....++......+......",
".+..+++......+..+...",
"+++.+.+......+.+++.+",
"+.+.+.+......+.+.+.+",
"+.+.+.+......+.+.+.+",
"+.+.+.+......+.+.+.+",
"+.+.+.++++++++.+.+.+",
"+.+.+.+......+.+.+.+",
"+.+.+.+......+.+.+.+",
"+.+++.+......+.+.+++",
"...+..+......+++..+.",
"......+......++.....",
"......+......+......",
"....................",
"...................."};
