/* XPM */
static const char * Envelope[] = {
"27 27 4 1",
" 	c None",
".	c #FFFFFF",
"+	c #9A9997",
"@	c #1C1C1C",
"...........................",
"..................++.......",
"................++.........",
"....@@@@@@....++...........",
"....@@@@@@..++.............",
"....@@@@@@++...............",
"....@@@@@@.................",
"..++@@@@@@.................",
".+..@@@@.@.................",
".......@..@................",
".......@...@...............",
".......@....@..............",
".......@.....@.............",
".......@......@............",
".......@.......@...........",
".......@........@..........",
".......@.........@.........",
".......@..........@........",
".......@........@@.........",
".......@......@@...........",
".......@...@..@............",
".......@.@@.@..@...........",
".......@@...@..@...........",
".............@..@..........",
".............@..@..........",
"..............@@...........",
"..........................."};