/* XPM */
static const char * IBeam[] = {
"27 27 3 1",
" 	c None",
".	c #FFFFFF",
"+	c #000000",
"...........................",
"...........................",
"...........................",
"...........................",
"..........++...++..........",
"............+++............",
".............+.............",
".............+.............",
".............+.............",
".............+.............",
".............+.............",
".............+.............",
".............+.............",
".............+.............",
".............+.............",
".............+.............",
".............+.............",
".............+.............",
".............+.............",
".............+.............",
"............+++............",
"..........++...++..........",
"...........................",
"...........................",
"...........................",
"...........................",
"..........................."};