/* XPM */
static char * Loop[] = {
"16 16 5 1",
" 	c None",
".	c #1B1B1B",
"+	c #7EE478",
"@	c #75D570",
"#	c #62B25D",
"......+...+.....",
"....+++...+++...",
"...+++@@.+++@@..",
"..++@@@#..+@@@#.",
".++@@@@#...@@@@.",
".++@@@@#....@@@#",
"++@@####.....@@#",
"++@..........@@#",
"++@..........@@#",
"++@.....+++++@@#",
"++@@....++++@@#.",
".+@@@...++@@@##.",
".+@@@#..++@@##..",
"..@@@@#.+@@##...",
"...###...###....",
".....#...#......"};
