/* XPM */
static char * StopDisabled[] = {
"16 16 27 1",
" 	c None",
".	c #6B6B6B",
"+	c #B7B28D",
"@	c #B7AE8B",
"#	c #B7AC8A",
"$	c #B7AB89",
"%	c #B2A486",
"&	c #888276",
"*	c #B6A888",
"=	c #B4A587",
"-	c #B4A486",
";	c #A79B82",
">	c #817C73",
",	c #B0A285",
"'	c #AEA085",
")	c #A39880",
"!	c #7F7B73",
"~	c #B0A185",
"{	c #AEA084",
"]	c #A39780",
"^	c #7F7B72",
"/	c #AD9F84",
"(	c #A2967F",
"_	c #A29680",
":	c #9A907D",
"<	c #7E7A72",
"[	c #74726E",
"................",
"................",
"..+@########$%&.",
"..@*=-------%;>.",
"..#=,,,,,,,,')!.",
"..#-,~~~~~~~{]^.",
"..#-,~~~~~~~{]^.",
"..#-,~~~~~~~{]^.",
"..#-,~~~~~~~{]^.",
"..#-,~~~~~~~{]^.",
"..#-,~~~~~~~{]^.",
"..#-,~~~~~~~{]^.",
"..$%'{{{{{{{/(^.",
"..%;)]]]]]]]_:<.",
"..&>!^^^^^^^^<[.",
"................"};
