/* XPM */
static char * perc_xpm[] = {
"48 48 371 2",
"  	c #969696",
". 	c #7A7A7A",
"+ 	c #686868",
"@ 	c #595959",
"# 	c #999999",
"$ 	c #D9D9D9",
"% 	c #8B8B8B",
"& 	c #A6A6A6",
"* 	c #B8B8B8",
"= 	c #C9C9C9",
"- 	c #52545A",
"; 	c #A58680",
"> 	c #B18E85",
", 	c #BC9386",
"' 	c #B88C7E",
") 	c #AE8375",
"! 	c #AB8573",
"~ 	c #AD8B79",
"{ 	c #AE917D",
"] 	c #AB927D",
"^ 	c #A3907A",
"/ 	c #918472",
"( 	c #867E6C",
"_ 	c #847E6F",
": 	c #7F7B70",
"< 	c #73736D",
"[ 	c #646666",
"} 	c #3F4751",
"| 	c #5E5356",
"1 	c #97726A",
"2 	c #8A706B",
"3 	c #87736B",
"4 	c #837068",
"5 	c #836F67",
"6 	c #968172",
"7 	c #9E8B79",
"8 	c #A4937F",
"9 	c #AC9B85",
"0 	c #B3A68C",
"a 	c #B5AB90",
"b 	c #B6AC90",
"c 	c #B4AA8E",
"d 	c #ADA48A",
"e 	c #A29C87",
"f 	c #8F8A7B",
"g 	c #81796D",
"h 	c #4B4A51",
"i 	c #956157",
"j 	c #BA7160",
"k 	c #9D6A5E",
"l 	c #855E54",
"m 	c #795850",
"n 	c #84665B",
"o 	c #A78B6B",
"p 	c #AF9773",
"q 	c #A28F72",
"r 	c #97876F",
"s 	c #A18F71",
"t 	c #A99775",
"u 	c #B09B77",
"v 	c #B29A75",
"w 	c #AE946F",
"x 	c #A68D6B",
"y 	c #927D62",
"z 	c #7E6C5A",
"A 	c #3D4752",
"B 	c #685254",
"C 	c #DA7B66",
"D 	c #EC886D",
"E 	c #C37964",
"F 	c #995C4F",
"G 	c #905548",
"H 	c #B0755A",
"I 	c #DBAB6F",
"J 	c #E1B575",
"K 	c #BC996B",
"L 	c #957B5A",
"M 	c #9D7B51",
"N 	c #A37D4E",
"O 	c #A9814E",
"P 	c #AF824F",
"Q 	c #B27F4C",
"R 	c #AF7C48",
"S 	c #926C44",
"T 	c #715A44",
"U 	c #40454F",
"V 	c #825651",
"W 	c #F28B6F",
"X 	c #EB9A7E",
"Y 	c #A16E60",
"Z 	c #6C4E4A",
"` 	c #7C5547",
" .	c #C0875C",
"..	c #F9CB84",
"+.	c #FFD488",
"@.	c #CEAB76",
"#.	c #A48966",
"$.	c #C59A61",
"%.	c #DDA65E",
"&.	c #EAAE64",
"*.	c #EDB069",
"=.	c #EDAA63",
"-.	c #E5A65D",
";.	c #AE8552",
">.	c #735F48",
",.	c #E6E6E6",
"'.	c #49464D",
").	c #9A6158",
"!.	c #FE9D7F",
"~.	c #E5A489",
"{.	c #95645A",
"].	c #574043",
"^.	c #745646",
"/.	c #CF9A64",
"(.	c #FDDF98",
"_.	c #F2D18E",
":.	c #917D62",
"<.	c #484647",
"[.	c #997B57",
"}.	c #CE9C5B",
"|.	c #E4AB63",
"1.	c #E2AA6B",
"2.	c #DFA261",
"3.	c #D6A060",
"4.	c #8C714F",
"5.	c #3E3D3B",
"6.	c #52484E",
"7.	c #A86C60",
"8.	c #FEAB8F",
"9.	c #E6AE95",
"0.	c #BF735F",
"a.	c #97574E",
"b.	c #A46D53",
"c.	c #DAA96E",
"d.	c #FDE9B0",
"e.	c #F7D799",
"f.	c #B69467",
"g.	c #856E56",
"h.	c #B99264",
"i.	c #CC9B5C",
"j.	c #D39E5C",
"k.	c #D5A164",
"l.	c #CB9258",
"m.	c #CC9B62",
"n.	c #A8875C",
"o.	c #76624A",
"p.	c #56494D",
"q.	c #AC7265",
"r.	c #FCB195",
"s.	c #E8B097",
"t.	c #DC7D63",
"u.	c #C36654",
"v.	c #C27B59",
"w.	c #DFB076",
"x.	c #FCECBD",
"y.	c #FCDC9D",
"z.	c #E6B36F",
"A.	c #D5A369",
"B.	c #DBA86C",
"C.	c #CB995B",
"D.	c #C69356",
"E.	c #CB975D",
"F.	c #BD8851",
"G.	c #C39561",
"H.	c #BE9563",
"I.	c #A98153",
"J.	c #53494D",
"K.	c #A86F62",
"L.	c #FAA98D",
"M.	c #E7A88E",
"N.	c #D67862",
"O.	c #B85E4F",
"P.	c #BA7455",
"Q.	c #DEB076",
"R.	c #FCE8B8",
"S.	c #F8D699",
"T.	c #E8B46D",
"U.	c #DFA966",
"V.	c #C49256",
"W.	c #BE8C52",
"X.	c #C08F56",
"Y.	c #B6854E",
"Z.	c #B88C5B",
"`.	c #B08859",
" +	c #9D764A",
".+	c #4B474D",
"++	c #9D655B",
"@+	c #F3957A",
"#+	c #E5987F",
"$+	c #D4775F",
"%+	c #B55E4F",
"&+	c #B47153",
"*+	c #D7A870",
"=+	c #FCDFA6",
"-+	c #F8D08E",
";+	c #E2AE69",
">+	c #D3A161",
",+	c #CC9A5C",
"'+	c #BF8D54",
")+	c #B78750",
"!+	c #B5874F",
"~+	c #AE814B",
"{+	c #B08554",
"]+	c #A57C4F",
"^+	c #916B41",
"/+	c #43444C",
"(+	c #925C54",
"_+	c #EE876E",
":+	c #E78E76",
"<+	c #D47760",
"[+	c #B45D4E",
"}+	c #AE674D",
"|+	c #CE9A66",
"1+	c #FBD393",
"2+	c #F7C985",
"3+	c #E0AC69",
"4+	c #D29F5F",
"5+	c #C9975B",
"6+	c #BE8D55",
"7+	c #B68750",
"8+	c #B1854C",
"9+	c #AA7E4A",
"0+	c #A97E4F",
"a+	c #9E7649",
"b+	c #8B683D",
"c+	c #3C444E",
"d+	c #795451",
"e+	c #D97964",
"f+	c #E8876D",
"g+	c #D47861",
"h+	c #B76050",
"i+	c #AA624C",
"j+	c #C0885D",
"k+	c #F2C17D",
"l+	c #F7C67E",
"m+	c #E3AF6C",
"n+	c #D09C5C",
"o+	c #C59357",
"p+	c #B98A53",
"q+	c #B18450",
"r+	c #AC804C",
"s+	c #A57B4A",
"t+	c #A07948",
"u+	c #916D40",
"v+	c #7F6039",
"w+	c #3B4651",
"x+	c #5A4B50",
"y+	c #BD6E60",
"z+	c #EA856B",
"A+	c #D37962",
"B+	c #BC6754",
"C+	c #A65E4D",
"D+	c #AE7456",
"E+	c #E7B171",
"F+	c #F4C178",
"G+	c #E3B06C",
"H+	c #CD9A5D",
"I+	c #BF8F56",
"J+	c #B18552",
"K+	c #A87E4D",
"L+	c #A37A49",
"M+	c #9F7849",
"N+	c #977245",
"O+	c #86643C",
"P+	c #755837",
"Q+	c #444750",
"R+	c #97645C",
"S+	c #E9876E",
"T+	c #D47C64",
"U+	c #C06E5A",
"V+	c #A55C4E",
"W+	c #A3664F",
"X+	c #DEA76F",
"Y+	c #F0BC75",
"Z+	c #E2B06A",
"`+	c #C99B5F",
" @	c #B88C56",
".@	c #A8804F",
"+@	c #9D784A",
"@@	c #987446",
"#@	c #987448",
"$@	c #906C42",
"%@	c #7E5E3B",
"&@	c #6C543B",
"*@	c #3D4651",
"=@	c #705857",
"-@	c #E18670",
";@	c #D87F69",
">@	c #C5735E",
",@	c #A95F50",
"'@	c #A56551",
")@	c #D7A36F",
"!@	c #EDBB78",
"~@	c #E1B06E",
"{@	c #C5985E",
"]@	c #AF8753",
"^@	c #9E7A4D",
"/@	c #957248",
"(@	c #937045",
"_@	c #927045",
":@	c #89653C",
"<@	c #71583B",
"[@	c #5A5045",
"}@	c #534E54",
"|@	c #D0806E",
"1@	c #D8806A",
"2@	c #C77560",
"3@	c #AA6153",
"4@	c #A46253",
"5@	c #C69369",
"6@	c #E0B173",
"7@	c #D9AB6B",
"8@	c #BA8F5A",
"9@	c #A67F52",
"0@	c #937149",
"a@	c #896A43",
"b@	c #886941",
"c@	c #886842",
"d@	c #826039",
"e@	c #5F503F",
"f@	c #44494E",
"g@	c #454952",
"h@	c #A76F65",
"i@	c #E5866F",
"j@	c #DF8169",
"k@	c #BE6B5A",
"l@	c #B06455",
"m@	c #C08363",
"n@	c #DAA66E",
"o@	c #D4A769",
"p@	c #B18958",
"q@	c #9E794F",
"r@	c #8B6B45",
"s@	c #80633F",
"t@	c #7F623E",
"u@	c #81613D",
"v@	c #765937",
"w@	c #4C4A47",
"x@	c #3E4852",
"y@	c #3F4752",
"z@	c #5E5255",
"A@	c #AE7063",
"B@	c #C97864",
"C@	c #B36959",
"D@	c #A25F50",
"E@	c #A06655",
"F@	c #B78961",
"G@	c #C19A63",
"H@	c #AE8957",
"I@	c #98764B",
"J@	c #856741",
"K@	c #7C5F3C",
"L@	c #7B5D3C",
"M@	c #7A5B3A",
"N@	c #594E41",
"O@	c #40474F",
"P@	c #3E4650",
"Q@	c #5A4F50",
"R@	c #7A5854",
"S@	c #7E5751",
"T@	c #72504B",
"U@	c #674846",
"V@	c #7E6250",
"W@	c #9C7F59",
"X@	c #A28256",
"Y@	c #8C6F4B",
"Z@	c #7B6241",
"`@	c #755B3C",
" #	c #74593C",
".#	c #6F563B",
"+#	c #47494B",
"                                                                                                ",
"                                                                                                ",
"                                                                                                ",
"                                                                                                ",
"                                                                                                ",
"                                                                                                ",
"                                                    . + . . @ + @ + @ @ @ @ @ @ + @ @           ",
"                                                    @ @ + + + + + @ . + @ @ + + + + .           ",
"                                                    + @ . . + + + . + @ @ + + + + + @           ",
"                                                    + @ . . + + + . + @ @ + + + + + @           ",
"                                                        # #   $ .   %   &   . . & $             ",
"                                                        * *   $ .   #   &   . . & $             ",
"                                                        * *   & .   #   &   % % # $             ",
"                                                        = =   & .   #   &   % % % $             ",
"                                                        * *   # .   &   &   % % % $             ",
"                                                        & &   & .   &   &   # # % $             ",
"                                                        # #   # .   #   &   # # & $             ",
"                                                        . .   % %   #   &   # # & $             ",
"                                                        . .   % %   #   &   # # & $             ",
"                                                        . .   # %   #   &   % % & $             ",
"                                                        + +   % %   %   &   % % * $             ",
"              - ; > , ' ) ! ~ { ] ^ / ( ( _ : < [       + +   % *       &   % % * $             ",
"            } | 1 2 3 4 5 6 7 8 9 0 a b c d e f g       + +   % *           % % * $             ",
"            h i j k l m n o p q r s t u v w x y z       + +   %             % % = $             ",
"          A B C D E F G H I J K L M N O P Q R S T       + +   =             . . $ =             ",
"          U V W X Y Z `  ...+.@.#.$.%.&.*.=.-.;.>.      . .                     ,.&             ",
"          '.).!.~.{.].^./.(._.:.<.[.}.|.1.2.3.4.5.      % %                       #             ",
"          6.7.8.9.0.a.b.c.d.e.f.g.h.i.j.k.l.m.n.o.      % %                       #             ",
"          p.q.r.s.t.u.v.w.x.y.z.A.B.C.D.E.F.G.H.I.                                              ",
"          J.K.L.M.N.O.P.Q.R.S.T.U.k.V.W.X.Y.Z.`. +                                              ",
"          .+++@+#+$+%+&+*+=+-+;+>+,+'+)+!+~+{+]+^+                                              ",
"          /+(+_+:+<+[+}+|+1+2+3+4+5+6+7+8+9+0+a+b+                                              ",
"          c+d+e+f+g+h+i+j+k+l+m+n+o+p+q+r+s+t+u+v+                                              ",
"          w+x+y+z+A+B+C+D+E+F+G+H+I+J+K+L+M+N+O+P+                                              ",
"            Q+R+S+T+U+V+W+X+Y+Z+`+ @.@+@@@#@$@%@&@                                              ",
"            *@=@-@;@>@,@'@)@!@~@{@]@^@/@(@_@:@<@[@                                              ",
"              }@|@1@2@3@4@5@6@7@8@9@0@a@b@c@d@e@f@                                              ",
"              g@h@i@j@k@l@m@n@o@p@q@r@s@t@u@v@w@x@                                              ",
"              y@z@A@B@C@D@E@F@G@H@I@J@K@L@M@N@O@                                                ",
"                P@Q@R@S@T@U@V@W@X@Y@Z@`@ #.#+#A                                                 ",
"                                                                                                ",
"                                                                                                ",
"                                                                                                ",
"                                                                                                ",
"                                                                                                ",
"                                                                                                ",
"                                                                                                ",
"                                                                                                "};
