/* XPM */
static char * string_violin_cello_xpm[] = {
"48 48 327 2",
"  	c #969696",
". 	c #6F5A5D",
"+ 	c #595C64",
"@ 	c #635B60",
"# 	c #565B64",
"$ 	c #585F63",
"% 	c #5A5F65",
"& 	c #595F66",
"* 	c #6D7277",
"= 	c #48525C",
"- 	c #565A5D",
"; 	c #5A6066",
"> 	c #49525C",
", 	c #575F65",
"' 	c #525B64",
") 	c #57606A",
"! 	c #505963",
"~ 	c #575F6A",
"{ 	c #525A65",
"] 	c #525B65",
"^ 	c #555D68",
"/ 	c #535B65",
"( 	c #545C67",
"_ 	c #525A64",
": 	c #525C6A",
"< 	c #56606B",
"[ 	c #4F5C6D",
"} 	c #576371",
"| 	c #616266",
"1 	c #725F56",
"2 	c #634B41",
"3 	c #484F5E",
"4 	c #52535F",
"5 	c #7A553C",
"6 	c #7D6755",
"7 	c #606165",
"8 	c #796459",
"9 	c #974214",
"0 	c #9D3106",
"a 	c #782B14",
"b 	c #545664",
"c 	c #6D5B61",
"d 	c #AB3D06",
"e 	c #BE5200",
"f 	c #AB5B0E",
"g 	c #836A55",
"h 	c #6D6665",
"i 	c #953E0D",
"j 	c #B74308",
"k 	c #9D3411",
"l 	c #7D3626",
"m 	c #4E5C72",
"n 	c #68606F",
"o 	c #9D3F1B",
"p 	c #B65614",
"q 	c #C66A0A",
"r 	c #AB5912",
"s 	c #726964",
"t 	c #865540",
"u 	c #AD3F03",
"v 	c #AC4810",
"w 	c #973812",
"x 	c #783721",
"y 	c #555C71",
"z 	c #6B6579",
"A 	c #923D18",
"B 	c #B14816",
"C 	c #B46212",
"D 	c #C05A01",
"E 	c #965E3C",
"F 	c #814E38",
"G 	c #AC3C0B",
"H 	c #A84112",
"I 	c #8D2D0E",
"J 	c #733220",
"K 	c #535B72",
"L 	c #6E687C",
"M 	c #903C19",
"N 	c #AA410E",
"O 	c #B55E0D",
"P 	c #C45D03",
"Q 	c #996138",
"R 	c #7A574D",
"S 	c #992B09",
"T 	c #9C3413",
"U 	c #872810",
"V 	c #713226",
"W 	c #515C75",
"X 	c #69667A",
"Y 	c #913E1A",
"Z 	c #A83E0E",
"` 	c #B2590E",
" .	c #BD5B06",
"..	c #896850",
"+.	c #696265",
"@.	c #851D0A",
"#.	c #912814",
"$.	c #8A2913",
"%.	c #73342B",
"&.	c #505D77",
"*.	c #656277",
"=.	c #93401C",
"-.	c #A83D0B",
";.	c #B25B10",
">.	c #AF560A",
",.	c #6B6666",
"'.	c #555A63",
").	c #6F1E14",
"!.	c #86230E",
"~.	c #8E230C",
"{.	c #72372D",
"].	c #4A5C76",
"^.	c #666177",
"/.	c #90432F",
"(.	c #AE4208",
"_.	c #B45F06",
":.	c #914B1D",
"<.	c #515760",
"[.	c #6A5C60",
"}.	c #692E24",
"|.	c #852A14",
"1.	c #6D3B32",
"2.	c #4A5968",
"3.	c #676675",
"4.	c #904530",
"5.	c #AE4009",
"6.	c #8E4C25",
"7.	c #6D6364",
"8.	c #6E3B37",
"9.	c #89200B",
"0.	c #802B1B",
"a.	c #764336",
"b.	c #82453C",
"c.	c #973C1B",
"d.	c #A6460A",
"e.	c #865138",
"f.	c #6F3E3C",
"g.	c #73170B",
"h.	c #7F2213",
"i.	c #953917",
"j.	c #993210",
"k.	c #8B2912",
"l.	c #87380B",
"m.	c #895537",
"n.	c #4C545D",
"o.	c #603229",
"p.	c #5E1D12",
"q.	c #872E15",
"r.	c #943716",
"s.	c #963715",
"t.	c #922F12",
"u.	c #752C0C",
"v.	c #763825",
"w.	c #4F555F",
"x.	c #6C6064",
"y.	c #6B110B",
"z.	c #622217",
"A.	c #9F482B",
"B.	c #A0583E",
"C.	c #97603F",
"D.	c #9F572C",
"E.	c #793214",
"F.	c #7D1C12",
"G.	c #716061",
"H.	c #515761",
"I.	c #68595C",
"J.	c #5E312A",
"K.	c #57160F",
"L.	c #5C2019",
"M.	c #7D2D1D",
"N.	c #7E3529",
"O.	c #833D2C",
"P.	c #983D21",
"Q.	c #822F1A",
"R.	c #682916",
"S.	c #6D3924",
"T.	c #765650",
"U.	c #606066",
"V.	c #695D63",
"W.	c #620200",
"X.	c #58180D",
"Y.	c #531F16",
"Z.	c #702217",
"`.	c #7A1C0F",
" +	c #751914",
".+	c #812016",
"++	c #992B0C",
"@+	c #9B341B",
"#+	c #6A3118",
"$+	c #7D2709",
"%+	c #851600",
"&+	c #6F5C5A",
"*+	c #6A4F4D",
"=+	c #661204",
"-+	c #7E1E1C",
";+	c #842320",
">+	c #852111",
",+	c #861E0D",
"'+	c #7B2615",
")+	c #7E2F19",
"!+	c #88320C",
"~+	c #9E3012",
"{+	c #9E351D",
"]+	c #A93517",
"^+	c #90360B",
"/+	c #764E40",
"(+	c #6C2C21",
"_+	c #772110",
":+	c #892419",
"<+	c #802812",
"[+	c #802211",
"}+	c #7C1F10",
"|+	c #6D2A17",
"1+	c #632A1C",
"2+	c #832B19",
"3+	c #9B3013",
"4+	c #9E3911",
"5+	c #A13F12",
"6+	c #A23D10",
"7+	c #883619",
"8+	c #5C5F65",
"9+	c #646066",
"0+	c #7E1C08",
"a+	c #7F2712",
"b+	c #852516",
"c+	c #78250E",
"d+	c #772115",
"e+	c #641D16",
"f+	c #421E16",
"g+	c #3A201E",
"h+	c #722A1B",
"i+	c #97320E",
"j+	c #993A10",
"k+	c #9D3E0E",
"l+	c #A24011",
"m+	c #9F3002",
"n+	c #72625D",
"o+	c #6B5857",
"p+	c #7C1503",
"q+	c #7C2411",
"r+	c #7F2217",
"s+	c #71220E",
"t+	c #691B11",
"u+	c #521B18",
"v+	c #371C18",
"w+	c #411E1D",
"x+	c #6F2619",
"y+	c #872B0D",
"z+	c #913611",
"A+	c #993B11",
"B+	c #9D3B13",
"C+	c #9E3008",
"D+	c #74564F",
"E+	c #695754",
"F+	c #761506",
"G+	c #782115",
"H+	c #7C221D",
"I+	c #702214",
"J+	c #671C11",
"K+	c #531C19",
"L+	c #421E18",
"M+	c #5C1D18",
"N+	c #782217",
"O+	c #7E2912",
"P+	c #8C3415",
"Q+	c #953815",
"R+	c #943311",
"S+	c #90290A",
"T+	c #6F5351",
"U+	c #4B545D",
"V+	c #A5887F",
"W+	c #651A0E",
"X+	c #801D0E",
"Y+	c #7B2515",
"Z+	c #75221A",
"`+	c #6E2016",
" @	c #611B17",
".@	c #441F1D",
"+@	c #522017",
"@@	c #7C2119",
"#@	c #7D2817",
"$@	c #8B3213",
"%@	c #8E310F",
"&@	c #8E2E12",
"*@	c #801908",
"=@	c #695E61",
"-@	c #575D64",
";@	c #753F33",
">@	c #6F1405",
",@	c #832211",
"'@	c #802115",
")@	c #732513",
"!@	c #671E13",
"~@	c #46201A",
"{@	c #4E2315",
"]@	c #792017",
"^@	c #802719",
"/@	c #903017",
"(@	c #8F2E13",
"_@	c #811E0A",
":@	c #6B3D36",
"<@	c #47505A",
"[@	c #616366",
"}@	c #613D35",
"|@	c #651507",
"1@	c #791B0F",
"2@	c #7A2412",
"3@	c #6F1B13",
"4@	c #4A1B1B",
"5@	c #4D2018",
"6@	c #7A2012",
"7@	c #811F07",
"8@	c #851E01",
"9@	c #7B1D00",
"0@	c #6E3F33",
"a@	c #5A6065",
"b@	c #655B5C",
"c@	c #4C464D",
"d@	c #533733",
"e@	c #4C2F33",
"f@	c #393D47",
"g@	c #333338",
"h@	c #473D43",
"i@	c #673C33",
"j@	c #705751",
"k@	c #686365",
"l@	c #464F59",
"                                                                                                ",
"                                                                                                ",
"                                                                                                ",
"                                                                                                ",
"                                                                                                ",
"                                                                                                ",
"                                              . +                                               ",
"                                              @ #                                               ",
"                                              $ % &                                             ",
"                                          * = - ; >                                             ",
"                                              , '                                               ",
"                                              ) !                                               ",
"                                              ~ {                                               ",
"                                              ~ ]                                               ",
"                                              ^ /                                               ",
"                                              ^ ]                                               ",
"                                              ( _                                               ",
"                                              : <                                               ",
"                                              [ }                                               ",
"                                        | 1 2 3 4 5 6 7                                         ",
"                                      8 9 0 a b c d e f g                                       ",
"                                    h i j k l m n o p q r s                                     ",
"                                    t u v w x y z A B C D E                                     ",
"                                    F G H I J K L M N O P Q                                     ",
"                                    R S T U V W X Y Z `  ...                                    ",
"                                    +.@.#.$.%.&.*.=.-.;.>.,.                                    ",
"                                    '.).!.~.{.].^./.(._.:.<.                                    ",
"                                      [.}.|.1.2.3.4.5.6.7.                                      ",
"                                        8.9.0.a.b.c.d.e.                                        ",
"                                        f.g.h.i.j.k.l.m.                                        ",
"                                      n.o.p.q.r.s.t.u.v.w.                                      ",
"                                      x.y.z.A.B.C.D.E.F.G.                                      ",
"                                  H.I.J.K.L.M.N.O.P.Q.R.S.T.U.                                  ",
"                                  V.W.X.Y.Z.`. +.+++@+#+$+%+&+                                  ",
"                                  *+=+-+;+>+,+'+)+!+~+{+]+^+/+                                  ",
"                                H.(+_+:+<+[+}+|+1+2+3+4+5+6+7+8+                                ",
"                                9+0+a+b+c+d+e+f+g+h+i+j+k+l+m+n+                                ",
"                                o+p+q+r+s+t+u+v+w+x+y+z+A+B+C+D+                                ",
"                                E+F+G+H+I+J+K+L+M+N+O+P+Q+R+S+T+                                ",
"                              U+V+W+X+Y+Z+`+ @.@+@@@#@$@%@&@*@=@                                ",
"                                -@;@>@,@'@)@!@~@{@]@^@/@(@_@:@<@                                ",
"                                * [@}@|@1@2@3@4@5@6@7@8@9@0@'.                                  ",
"                                    a@b@c@d@e@f@g@h@i@j@k@l@                                    ",
"                                                                                                ",
"                                                                                                ",
"                                                                                                ",
"                                                                                                ",
"                                                                                                "};
