/* XPM */
static char * AudacitySmall_XPM[] = {
"103 25 675 2",
"  	c None",
". 	c #CCCCCC",
"+ 	c #CBCBCB",
"@ 	c #A5A6A8",
"# 	c #72777F",
"$ 	c #6F747C",
"% 	c #6E737B",
"& 	c #B1B1B2",
"* 	c #C4C4C4",
"= 	c #CACACA",
"- 	c #8E9196",
"; 	c #7F848B",
"> 	c #7C8187",
", 	c #9E9FA1",
"' 	c #C8C8C8",
") 	c #C1C1C1",
"! 	c #9C9D9F",
"~ 	c #989A9C",
"{ 	c #999B9D",
"] 	c #C2C2C2",
"^ 	c #6E757F",
"/ 	c #001A44",
"( 	c #001942",
"_ 	c #00183F",
": 	c #585B61",
"< 	c #A7A7A7",
"[ 	c #BFBFBF",
"} 	c #38475E",
"| 	c #001A43",
"1 	c #1D2C44",
"2 	c #A1A1A1",
"3 	c #B8B8B8",
"4 	c #81858B",
"5 	c #001B45",
"6 	c #878788",
"7 	c #B3B3B3",
"8 	c #96999D",
"9 	c #6A727D",
"0 	c #C7C7C7",
"a 	c #BCBCBD",
"b 	c #122A51",
"c 	c #00183E",
"d 	c #001639",
"e 	c #001535",
"f 	c #2B2E33",
"g 	c #767676",
"h 	c #ACACAC",
"i 	c #0A234A",
"j 	c #00173C",
"k 	c #001537",
"l 	c #1D232E",
"m 	c #686868",
"n 	c #9C9C9C",
"o 	c #606875",
"p 	c #00163A",
"q 	c #001333",
"r 	c #05152E",
"s 	c #5F5F5F",
"t 	c #8E8E8E",
"u 	c #C9C9C9",
"v 	c #1D3356",
"w 	c #3C4553",
"x 	c #A5A5A5",
"y 	c #B4B4B4",
"z 	c #C6C6C6",
"A 	c #576172",
"B 	c #001538",
"C 	c #001539",
"D 	c #001536",
"E 	c #10141A",
"F 	c #565656",
"G 	c #9D9D9D",
"H 	c #C0C0C0",
"I 	c #B9B9B9",
"J 	c #B7B7B7",
"K 	c #BDBDBD",
"L 	c #BABABA",
"M 	c #B8B8B9",
"N 	c #8F9296",
"O 	c #001434",
"P 	c #14161A",
"Q 	c #484848",
"R 	c #8F8F8F",
"S 	c #BEBEBF",
"T 	c #BDBDBE",
"U 	c #BBBCBC",
"V 	c #BABBBB",
"W 	c #BEBEBE",
"X 	c #C3C3C3",
"Y 	c #A3A4A5",
"Z 	c #65676A",
"` 	c #3B3C40",
" .	c #292A2B",
"..	c #454545",
"+.	c #7E7E7E",
"@.	c #B2B2B2",
"#.	c #9A9C9E",
"$.	c #263B5C",
"%.	c #001940",
"&.	c #42464E",
"*.	c #6F7070",
"=.	c #929292",
"-.	c #B0B0B0",
";.	c #B5B5B5",
">.	c #B6B6B6",
",.	c #BCBCBC",
"'.	c #B4B5B5",
").	c #A6A7A9",
"!.	c #05204B",
"~.	c #070F1D",
"{.	c #0A0E14",
"].	c #4C4C4C",
"^.	c #989898",
"/.	c #B0B0B1",
"(.	c #072048",
"_.	c #001B46",
":.	c #374354",
"<.	c #AEAEAE",
"[.	c #626A77",
"}.	c #021B43",
"|.	c #9A9A9B",
"1.	c #757C86",
"2.	c #394861",
"3.	c #2E405D",
"4.	c #2C3E5C",
"5.	c #2C3E5B",
"6.	c #182F53",
"7.	c #00122E",
"8.	c #151515",
"9.	c #4D4D4D",
"0.	c #A5A6A7",
"a.	c #08234C",
"b.	c #07214A",
"c.	c #07204A",
"d.	c #0A234B",
"e.	c #424C5C",
"f.	c #AFAFAF",
"g.	c #B3B3B4",
"h.	c #545F71",
"i.	c #193155",
"j.	c #07214B",
"k.	c #7D7F82",
"l.	c #898B8F",
"m.	c #072047",
"n.	c #061F49",
"o.	c #031D46",
"p.	c #222933",
"q.	c #595959",
"r.	c #464F5C",
"s.	c #273958",
"t.	c #021D4A",
"u.	c #001941",
"v.	c #02173A",
"w.	c #051F48",
"x.	c #374457",
"y.	c #162A49",
"z.	c #0F2445",
"A.	c #9F9F9F",
"B.	c #021C47",
"C.	c #0B2144",
"D.	c #A9A9A9",
"E.	c #374762",
"F.	c #081324",
"G.	c #0F1013",
"H.	c #00183D",
"I.	c #001435",
"J.	c #080E17",
"K.	c #959595",
"L.	c #A0A1A3",
"M.	c #011B43",
"N.	c #2F333B",
"O.	c #7B7B7B",
"P.	c #A8A8A8",
"Q.	c #445064",
"R.	c #041530",
"S.	c #696969",
"T.	c #BBBBBB",
"U.	c #4C596C",
"V.	c #001B47",
"W.	c #020F23",
"X.	c #202020",
"Y.	c #606060",
"Z.	c #8E9093",
"`.	c #00173B",
" +	c #56585B",
".+	c #A0A0A0",
"++	c #A6A6A7",
"@+	c #142D55",
"#+	c #001331",
"$+	c #848484",
"%+	c #011A41",
"&+	c #25282E",
"*+	c #072149",
"=+	c #001637",
"-+	c #2B3038",
";+	c #383D47",
">+	c #4D4F52",
",+	c #949494",
"'+	c #4F5B6E",
")+	c #35393F",
"!+	c #757575",
"~+	c #9E9E9E",
"{+	c #898C92",
"]+	c #001330",
"^+	c #131416",
"/+	c #1C1D20",
"(+	c #00193F",
"_+	c #070E18",
":+	c #72777E",
"<+	c #1E1F21",
"[+	c #555555",
"}+	c #9A9A9A",
"|+	c #192F51",
"1+	c #081223",
"2+	c #3C3C3C",
"3+	c #7C7C7C",
"4+	c #73777F",
"5+	c #001C47",
"6+	c #00112D",
"7+	c #00112C",
"8+	c #040A14",
"9+	c #2C2C2C",
"0+	c #747474",
"a+	c #B1B1B1",
"b+	c #696B6F",
"c+	c #3E4145",
"d+	c #24262B",
"e+	c #1C1E23",
"f+	c #1B1D22",
"g+	c #0A1525",
"h+	c #001433",
"i+	c #282A2D",
"j+	c #2F3F5A",
"k+	c #031229",
"l+	c #041024",
"m+	c #10151F",
"n+	c #3E3E3E",
"o+	c #474849",
"p+	c #0E213D",
"q+	c #00112F",
"r+	c #010D21",
"s+	c #020E22",
"t+	c #041022",
"u+	c #212223",
"v+	c #38393C",
"w+	c #181D25",
"x+	c #6B6B6B",
"y+	c #C5C5C5",
"z+	c #9B9DA0",
"A+	c #021E49",
"B+	c #0C182B",
"C+	c #323232",
"D+	c #585858",
"E+	c #C3C3C4",
"F+	c #1B3255",
"G+	c #0C131F",
"H+	c #1F1F1F",
"I+	c #3A3B3D",
"J+	c #001436",
"K+	c #060D19",
"L+	c #434343",
"M+	c #465162",
"N+	c #001638",
"O+	c #00122D",
"P+	c #1A1A1A",
"Q+	c #AEAFAF",
"R+	c #031C46",
"S+	c #080D15",
"T+	c #343434",
"U+	c #797979",
"V+	c #142C51",
"W+	c #041229",
"X+	c #101113",
"Y+	c #181818",
"Z+	c #212121",
"`+	c #1C1E21",
" @	c #00173A",
".@	c #001332",
"+@	c #090B0E",
"@@	c #3B3B3B",
"#@	c #878787",
"$@	c #ADADAD",
"%@	c #808080",
"&@	c #5C5C5C",
"*@	c #515151",
"=@	c #4F4F4F",
"-@	c #282E37",
";@	c #00183C",
">@	c #1C1C1C",
",@	c #484A4C",
"'@	c #011B46",
")@	c #071020",
"!@	c #131313",
"~@	c #303030",
"{@	c #383838",
"]@	c #454B56",
"^@	c #01112C",
"/@	c #545454",
"(@	c #646568",
"_@	c #001334",
":@	c #02070E",
"<@	c #101010",
"[@	c #222222",
"}@	c #404040",
"|@	c #0A1E3C",
"1@	c #061022",
"2@	c #505050",
"3@	c #999999",
"4@	c #263A59",
"5@	c #222325",
"6@	c #68707C",
"7@	c #02122C",
"8@	c #161717",
"9@	c #353535",
"0@	c #5E5F60",
"a@	c #050D18",
"b@	c #8B8B8B",
"c@	c #1A3050",
"d@	c #030E20",
"e@	c #232323",
"f@	c #656565",
"g@	c #AAAAAA",
"h@	c #888B8F",
"i@	c #001A42",
"j@	c #001432",
"k@	c #0D0E11",
"l@	c #565B62",
"m@	c #0E1012",
"n@	c #424242",
"o@	c #5E5E5E",
"p@	c #363D46",
"q@	c #00112E",
"r@	c #131314",
"s@	c #888B90",
"t@	c #4C586B",
"u@	c #38465D",
"v@	c #313F56",
"w@	c #2C3A51",
"x@	c #2A384F",
"y@	c #29384E",
"z@	c #0D2549",
"A@	c #010F26",
"B@	c #263041",
"C@	c #0C0D0E",
"D@	c #262626",
"E@	c #6F6F6F",
"F@	c #324156",
"G@	c #040F20",
"H@	c #252525",
"I@	c #646464",
"J@	c #505660",
"K@	c #080A0C",
"L@	c #5A5A5A",
"M@	c #969696",
"N@	c #313C4E",
"O@	c #01122E",
"P@	c #3A3A3A",
"Q@	c #888888",
"R@	c #696F79",
"S@	c #161C27",
"T@	c #282828",
"U@	c #909090",
"V@	c #0A244E",
"W@	c #0F131A",
"X@	c #242424",
"Y@	c #828283",
"Z@	c #040D1A",
"`@	c #3D3D3D",
" #	c #7A7A7B",
".#	c #070C14",
"+#	c #787878",
"@#	c #5F6774",
"##	c #151616",
"$#	c #253752",
"%#	c #041025",
"&#	c #171717",
"*#	c #323F56",
"=#	c #7C7E82",
"-#	c #021E4A",
";#	c #00173D",
">#	c #040C1A",
",#	c #272727",
"'#	c #0D2346",
")#	c #020F25",
"!#	c #4A4A4A",
"~#	c #898989",
"{#	c #11284C",
"]#	c #090E16",
"^#	c #344258",
"/#	c #161616",
"(#	c #696D73",
"_#	c #232426",
":#	c #686969",
"<#	c #0B254E",
"[#	c #06152E",
"}#	c #455369",
"|#	c #02132F",
"1#	c #101318",
"2#	c #292C30",
"3#	c #595C60",
"4#	c #70747A",
"5#	c #040D1C",
"6#	c #595C61",
"7#	c #35445C",
"8#	c #020F24",
"9#	c #575858",
"0#	c #021D46",
"a#	c #292929",
"b#	c #6A6A6A",
"c#	c #10274C",
"d#	c #070D16",
"e#	c #2E3F59",
"f#	c #061329",
"g#	c #03142E",
"h#	c #060A10",
"i#	c #2C2C2D",
"j#	c #011B44",
"k#	c #070C15",
"l#	c #6C6C6C",
"m#	c #ABABAB",
"n#	c #ABACAD",
"o#	c #0D0F12",
"p#	c #868686",
"q#	c #13294D",
"r#	c #A3A3A4",
"s#	c #02193C",
"t#	c #11161C",
"u#	c #202E45",
"v#	c #1E2126",
"w#	c #999C9F",
"x#	c #011D48",
"y#	c #001B44",
"z#	c #030E21",
"A#	c #384150",
"B#	c #151516",
"C#	c #0E264C",
"D#	c #060D17",
"E#	c #2B2B2B",
"F#	c #494C52",
"G#	c #121213",
"H#	c #A3A4A6",
"I#	c #747576",
"J#	c #031D47",
"K#	c #0B1018",
"L#	c #161E2A",
"M#	c #0C0D0F",
"N#	c #2B2E32",
"O#	c #0B0D10",
"P#	c #7D8188",
"Q#	c #161617",
"R#	c #2F2F2F",
"S#	c #1A2B46",
"T#	c #021531",
"U#	c #001C46",
"V#	c #0D1728",
"W#	c #464646",
"X#	c #253959",
"Y#	c #182A48",
"Z#	c #030F23",
"`#	c #626262",
" $	c #A4A5A6",
".$	c #0A0D12",
"+$	c #37404F",
"@$	c #031126",
"#$	c #1E1E1E",
"$$	c #737982",
"%$	c #4E4E4E",
"&$	c #585D66",
"*$	c #111111",
"=$	c #2E2E2E",
"-$	c #717171",
";$	c #292F39",
">$	c #111213",
",$	c #979797",
"'$	c #4D586A",
")$	c #031025",
"!$	c #616161",
"~$	c #666A71",
"{$	c #0C0D10",
"]$	c #4B535F",
"^$	c #1C1C1D",
"/$	c #6D6D6D",
"($	c #787D86",
"_$	c #011230",
":$	c #080D14",
"<$	c #090D13",
"[$	c #0D1117",
"}$	c #10141B",
"|$	c #011432",
"1$	c #010F22",
"2$	c #2D2D2D",
"3$	c #041D44",
"4$	c #060C17",
"5$	c #797D84",
"6$	c #28374D",
"7$	c #021027",
"8$	c #414D62",
"9$	c #3B4758",
"0$	c #919191",
"a$	c #A2A3A3",
"b$	c #082048",
"c$	c #020D21",
"d$	c #262F3E",
"e$	c #151617",
"f$	c #575757",
"g$	c #223554",
"h$	c #070D19",
"i$	c #737373",
"j$	c #465060",
"k$	c #141415",
"l$	c #838588",
"m$	c #525252",
"n$	c #102951",
"o$	c #0C111B",
"p$	c #051B3F",
"q$	c #010F25",
"r$	c #202327",
"s$	c #363636",
"t$	c #818181",
"u$	c #364660",
"v$	c #01112A",
"w$	c #1B1B1B",
"x$	c #1F2F48",
"y$	c #001437",
"z$	c #111925",
"A$	c #56585A",
"B$	c #818386",
"C$	c #6D737D",
"D$	c #0A254D",
"E$	c #080D16",
"F$	c #273853",
"G$	c #011330",
"H$	c #181C24",
"I$	c #474B51",
"J$	c #646C79",
"K$	c #050B15",
"L$	c #293344",
"M$	c #091220",
"N$	c #9E9FA2",
"O$	c #7A808A",
"P$	c #B3B4B4",
"Q$	c #021C45",
"R$	c #0C0E13",
"S$	c #393939",
"T$	c #838383",
"U$	c #203451",
"V$	c #1D1D1D",
"W$	c #5D5D5D",
"X$	c #A3A3A3",
"Y$	c #9D9FA2",
"Z$	c #071C3E",
"`$	c #000E25",
" %	c #0F0F10",
".%	c #546071",
"+%	c #03122B",
"@%	c #8C8C8C",
"#%	c #0A2145",
"$%	c #131A26",
"%%	c #061B3C",
"&%	c #112545",
"*%	c #040D1D",
"=%	c #303C50",
"-%	c #172B4A",
";%	c #22334E",
">%	c #1A2D4B",
",%	c #090B0F",
"'%	c #3D434D",
")%	c #011A40",
"!%	c #51565F",
"~%	c #74767A",
"{%	c #121314",
"]%	c #494949",
"^%	c #051E47",
"/%	c #031634",
"(%	c #0C2141",
"_%	c #152949",
":%	c #313F55",
"<%	c #092248",
"[%	c #07080C",
"}%	c #041F4A",
"|%	c #0F1218",
"1%	c #9B9B9B",
"2%	c #0D2448",
"3%	c #0E1726",
"4%	c #061939",
"5%	c #070B12",
"6%	c #333333",
"7%	c #65686E",
"8%	c #021330",
"9%	c #222934",
"0%	c #404A5A",
"a%	c #111928",
"b%	c #142135",
"c%	c #111112",
"d%	c #737374",
"e%	c #051939",
"f%	c #434446",
"g%	c #363E4B",
"h%	c #353A41",
"i%	c #7F7F7F",
"j%	c #A4A4A4",
"k%	c #4A576B",
"l%	c #08101E",
"m%	c #83878D",
"n%	c #13233C",
"o%	c #0B182E",
"p%	c #051227",
"q%	c #101319",
"r%	c #303D51",
"s%	c #0A182E",
"t%	c #041126",
"u%	c #1D1D1F",
"v%	c #121B29",
"w%	c #010E24",
"x%	c #010F24",
"y%	c #051022",
"z%	c #15191F",
"A%	c #031026",
"B%	c #0B0F16",
"C%	c #4B4F55",
"D%	c #0C172A",
"E%	c #020E23",
"F%	c #0E1116",
"G%	c #191D24",
"H%	c #05142C",
"I%	c #1B1C1E",
"J%	c #9B9C9D",
"K%	c #232C3C",
"L%	c #051328",
"M%	c #010E23",
"N%	c #19191A",
"O%	c #111B2C",
"P%	c #05132A",
"Q%	c #010F23",
"R%	c #17191B",
"S%	c #707173",
"T%	c #192230",
"U%	c #031125",
"V%	c #021025",
"W%	c #0B121E",
"X%	c #32373F",
"Y%	c #0B1931",
"Z%	c #061429",
"`%	c #8B8C8E",
" &	c #12223D",
".&	c #06162E",
"+&	c #02102A",
"@&	c #000F28",
"#&	c #011029",
"$&	c #989A9D",
"%&	c #02122D",
"&&	c #171818",
"*&	c #474747",
"=&	c #535353",
"-&	c #313131",
";&	c #373737",
">&	c #5B5B5B",
",&	c #444444",
"'&	c #727272",
")&	c #2A2A2A",
"!&	c #A6A6A6",
"~&	c #14181F",
"{&	c #7D7D7D",
"]&	c #939393",
"^&	c #858585",
"/&	c #7A7A7A",
"(&	c #8A8A8A",
"_&	c #6D747F",
":&	c #091529",
"<&	c #0C254D",
"[&	c #13171D",
"}&	c #7A7C80",
"|&	c #515357",
"1&	c #2A2C30",
"2&	c #1F2123",
". + . + . . . . . . . . + . . . . . . . . . . . . + . . . . . . . . . . . . . . . . . . . . . . . . + . . . . . . . . . . . . . . . . . . . . . . . . . . . . . . . . . . . . . . . . . . . . . . . . . . + . ",
". . . . . . . . . . . @ # $ % % % & * = . . . . . + . . . . . . . . . . . . . . . . + - ; > , * ' . + . . . . . . . . . . . . . . . . . . . . . . ) ! ~ { ] ' + . . . . . . . . . . . . . . . . . . . . . + . ",
". . . . . . . . . . . ^ / ( ( ( _ : < [ = . . . . + . . . . . . . . . . . . . . . . . } | ( 1 2 3 ' + . . . . . . . . . . . . . . . . . . . . . . 4 5 / _ 6 7 * + . 8 9 * 0 + . . . . . . . . . . . . . . + . ",
"+ + . + . . . . . . a b c d d d e f g h 0 . . . . + . . . . . . . . . . . . . . . . ) i j k l m n ) + . . . . . . . . . . . . . . . . . . . . . . o p q r s t 3 u [ v w x y z . . . . . . . . . . . . . . + . ",
"+ + + + + + + + + + A | d e B C D E F G H I 3 J K 0 = + ) L 3 M z u . + . . = = u u N | p O P Q R K S T a a U V U W 0 ' = + + + ' W a U U U U X H Y Z `  ...+.@.#.$.%.&.*.=.-.;.>.;.,.0 u + + + * L J '.z ' + ",
"+ + + + . . . . . ).!.j O ~.B d D {.].^./.(._.5 :.<.[ u [._._.}.|.J z 0 1.2.3.4.4.5.6.%.d 7.8.9.^.0.a.b.b.c.c.c.c.d.e.f.[ ' g.h.i.j.b.b.c.c.(.k.l.m.n.o.p.q.r.s.t.u.d v.o.w.x.y.5 _.z.A.L 0 + + ).B._.C.D.I 0 ",
"+ + + + . + . + + E.u.B F.G.H.B I.J.Q K.L.M.j k N.O.P.* Q._ p R.S.K.T.U.V._ H.H.H.H.H.d k W.X.Y.x Z.c D D D D d `.`.k  +.+++@+| c `.p p p p #+Y.$+%+j k &+Y.*+_ `.d k =+d B -+;+`.`.e >+,+T.= + '+| k )+!+~+[ ",
"+ + + + . + . + {+V.`.]+^+/+(+d I._+..=.:+( d #+<+[+}+H |+H.k 1+2+3+4+5+`.B ]+6+7+7.D B I.8+9+0+a+T.b+c+d+e+f+g+D k h+i+!+j+u.d D k+l+l+l+l+m+n+ +| p #+<+o+p+k B k q+r+s+t+u+v+`.d e w+x+D.y+z+A+`.B+C+D+K.H ",
"+ + + + + . . E+F+_ D G+H+I+_ p J+K+L+R M+_ N+O+P+[+~+Q+R+`.e S+T+U+V+c B W+X+Y+Z+`+ @B .@+@@@#@T.* $@%@&@*@=@-@;@d q+>@,@'@`.k )@!@X.9+~@C+{@*@]@u.d ^@>@/@(@c N+_@:@<@[@~@}@&@|@p k 1@2@3@,.4@%.#+5@C+x+< y+",
"+ + + + . . . 6@5 d 7@8@9@0@%.p D a@}@b@c@H.k d@e@f@g@h@i@p j@k@}@l@/ p .@m@X.n@o@p@u.N+q@r@9.^.s@t@u@v@w@x@y@z@_ B A@H+B@u.d ]+C@D@2@E@U+3+%@R F@c k G@H@I@J@u.N+.@K@9+L@g $+M@N@p k O@P@Q@R@5 k S@T@2@U@T.u ",
"+ + + + . . g.V@H.O W@X@D+Y@_ p k Z@`@ #o.`.D .#~@+#y @#%.d 7.##=@$#_ B %#&#L++.2 *#c k W.X.Y.=#-#u.c H.;#;#c c d k >#,#'#H.B )#&#!#~#$@>.3 I L {#j e ]#~@+#^#c N+7+/#9.R -.L K (#`.N+q _#:#<#H.[#H@P@+#f.z . ",
". + + + . . }#i@d |#1#2#3#4#|  @k 5#@@6#i@p h+k@n+~#T.7#c B 8#H+9#0#`.I.{.a#b#P.a c#j e d#9+0+e#%.d O k+f#f#g#k d I.h#i#j#`.D k#T@l#m#y+= + = n#|  @h+o#}@p#q#j k d@[@f@P.y+= u r#s#d I.t#u#i@O v#9+o@G ) = . ",
". . . . . w#x#`.d d %.| | y#%.d k z#{@A#%.d 7.B#2@3@K C#j D D#E#F#i@d 7.G#}@~#T.H#/ p h+o#2+I#J#`.I.K#&#H@~@L#j d .@M#N#( p h+O#2+p#T.= . . . P#i@d 7.Q#2@Y@/ `.D k#R#+#y u . . ] S#p N+T#U#p V#D@W##@3 u + . ",
"+ + + + z X#%.d I.O e D D D N+C B s+T+Y#c B Z#X.`#<  $M.`.O .${@+$(+N+@$#$q..+* $$u.d 7.8@%$&$( d ^@*$=$D+-$S#c N+7+8.;$%.d .@>$].,$) + + + + '$_ N+)$Z+!$~$( d h+{$n+~#T.= + + y+]$`.d d `.7.^$C+/$< * + + + ",
"+ + + + ($5 p _$:$h#<$[$W@}$|$N+B 1$2$3$`.D 4$9+0+a+5$i@d #+G#Q 6$H.B 7$,#l#$@z 8$_ B t+[@!$9$_ B l+#$/@0$a$b$j k c$Z+d$c d h+e$f$2 y+. . + = g$H.D h$9+i$j$_ d 7.k$%$3@] . + + ' l$`.d C I..#[@m$,+K = . + . ",
"+ + + a n$c D o$Y+=$n@Q !#W#p$`.B q$r$| p D k#s$t$f.u$%.N+v$w$D+x$j d y$z$A$B$C$D$j D E$=$0+F$H.N+G$H$I$4#J$5 p D K$9+L$H.d B M$m$,$;.>.N$O$P$Q$`.O R$S$T$U$H.N+7+V$W$X$Y$* u + + y Z$d B `$ %P@3+@.' . . + . ",
"+ + + .%| d +%Q#T+m @%K.K.R #%`.B A@$%%.d d B %%&%<#_.`.k *%D@S.=%`.d d p ( / -%c d h+o#n+p#;%j B d H.| %.>%;#d O ,%P@'%j d d d )%J#_._.5 !%~%i@p ]+{%]%Q@^%`.B N+/%(%_%:%-.L 0 = & <%`.#+[%H@!$.+] + . . + + ",
"+ + ).}%`.O |%H@&@1%L H ) 3 2%p k 7+3%j B B B  @`.4%d B I.5%6%O.7%d k B B d 8%9%`.B 7.##2@,$0%p B B y$k a%b% @B #+c%]%d%e%k B B d p p p O f%g%%.B v$V$L@~%| d B B p j d h%i%j%] = k%| k l%Y+Q b@I u . . . + . ",
"+ + m%n%o%p%q%n+t$>.' . + y+r%s%t%s+u%v%p%8#w%x%y%z%W+A%x%B%L+@%$@C%D%)#w%E%F%G%H%@$8#I%!$j%J%K%L%8#M%*%N%O%P%A%Q%R%L@,$S%T%U%x%x%V%A%)$W%~@X%Y%Z%t+T@l#`% &.&+&@&@&#&t% .&@}+H $&A+`.%&&&6%-$h z . . . . + . ",
"+ + X j%l#}@`@I@~+] . . + ' 7 3+*&9@L+q.=&2+~@R#-&;&}@2+T+P@`#G T.< 0+Q T+~@s$]%D+!#{@W#U+f.,.3@!$2+R#~@`@[+>&,&T+n@0+P.$@$+/@{@~@~@~@~@T+!#'&3+f$2+].$+-..+f@S$)&T@)&R#}@/$!&[ X#%.I.~&H@f$^.[ + . . . . + . ",
"+ + ' y M@t$t$,$>.' . . + + H j%Q@{&$+,+]&$+3+U+O.%@Q@^&+.%@,+y y+H P.R i%O.%@R ^.@%%@^&.+,.y+3 n $+O.3+p#,$^.Q@{&$+G L ) a+^.$+3+U+U+/&{&@%X$!&U@%@(&< W J ^.+.0+0+0+g t$G T._&5 d :&#$}@%@y ' . . . . . + . ",
". + + y+W 3 3 W z + . . + . u X T.3 L W [ T.3 J J 3 ,.T.3 3 W z + = y+W I 3 I W H ,.3 I H ' + ' ) T.J 3 T.H H T.3 I H ' + ' ) T.3 J J J 3 ,.X * K 3 T.] ' 0 [ J y y y y 3 H ,.<&k .@[&9+f@j%* . . . . . . + . ",
". + + + + + + + . . . . + . . . + + + + . + + + + = + + + + + . . . . + + + + + . + + + + . . . . + = + + . . + + + + . . . . + + + + + + + . . + + + . . . + = = = = = = + 0 }&|&1&2&Q ~#I = . . . . . . + . ",
". . . + . . . . . . . . + . . . . . . . . . . . . + . . . . . . . . . . . . . . . . . . . . . . . . + . . . . . . . . . . . . . . . . . . . . . . . . . . . . . . . . . . . u 3 U@m s U+< * . . . . . . . + . ",
". + . + . . . . . . . . + . . . . . . . . . . . . + . . . . . . . . . . . . . . . . . . . . . . . . + . . . . . . . . . . . . . . . . . . . . . . . . . . . . . . . . . . . + * y !&X$$@[ u . . . . . . . + . "};
