/* XPM */
static char * LockAlpha[] = {
"16 16 42 1",
" 	c None",
".	c #000000",
"+	c #9C9C9C",
"@	c #DCDCDC",
"#	c #D3D3D3",
"$	c #A3A3A3",
"%	c #8D8D8D",
"&	c #B4B4B4",
"*	c #ECECEC",
"=	c #F0F0F0",
"-	c #F4F4F4",
";	c #F5F5F5",
">	c #FFFFFF",
",	c #C0C0C0",
"'	c #919191",
")	c #3D3D3D",
"!	c #DEDEDE",
"~	c #EBEBEB",
"{	c #F2F2F2",
"]	c #A0A0A0",
"^	c #D7D7D7",
"/	c #EAEAEA",
"(	c #F6F6F6",
"_	c #DFDFDF",
":	c #A1A1A1",
"<	c #9F9F9F",
"[	c #B2B2B2",
"}	c #999999",
"|	c #E1E1E1",
"1	c #D4D4D4",
"2	c #C3C3C3",
"3	c #AEAEAE",
"4	c #BCBCBC",
"5	c #C8C8C8",
"6	c #484848",
"7	c #454545",
"8	c #DDDDDD",
"9	c #E7E7E7",
"0	c #EEEEEE",
"a	c #E4E4E4",
"b	c #BDBDBD",
"c	c #C1C1C1",
"......+@#$%.....",
"....&*=-;>>,'...",
"..)!~{>>>>>>>]..",
"..^/>(_:<[>>>>}.",
".&|>>12...3>>>4.",
".!>>5......6>>^.",
".!;>>......7>>>.",
".8>>>>>>>>>>>>>.",
".9>>>>>>>>>>>>>.",
".9>>>>>>>>>>>>>.",
".0>>>>>>>>>>>>a.",
".(>>>>>>>>>>>>>.",
".>>>>>>>>>>>>>>.",
".>>>>>>>>>>>>>b.",
".5c5>>>>>{,b5>,.",
"................"};
