/* XPM */
static char * Pause_yellow[] = {
"16 16 72 1",
" 	c None",
".	c #F5F5F5",
"+	c #F9F9F9",
"@	c #FAFAFA",
"#	c #F7F7F7",
"$	c #F3F3F3",
"%	c #F2F2F2",
"&	c #EFEAE3",
"*	c #E7E3D3",
"=	c #E5E1D1",
"-	c #E4E0D2",
";	c #E8E8E8",
">	c #F6F6F6",
",	c #EBE6D7",
"'	c #E7CF6F",
")	c #E4C456",
"!	c #E2C358",
"~	c #E3C757",
"{	c #D0B762",
"]	c #CDC9BD",
"^	c #EBE7DB",
"/	c #CCC8BC",
"(	c #D6D0BC",
"_	c #D6B852",
":	c #F9D145",
"<	c #F7D047",
"[	c #F2CB44",
"}	c #BAA348",
"|	c #B1ADA1",
"1	c #D5D1C1",
"2	c #F1F1F1",
"3	c #D2CDBA",
"4	c #D1B451",
"5	c #F0CA46",
"6	c #EFC947",
"7	c #EEC844",
"8	c #B69D46",
"9	c #ADA99D",
"0	c #F0F0F0",
"a	c #D2CEBE",
"b	c #ACA79C",
"c	c #F0EEEE",
"d	c #EEC742",
"e	c #EDCC45",
"f	c #EAC942",
"g	c #B59C45",
"h	c #CFCBBD",
"i	c #BBA559",
"j	c #AB9641",
"k	c #AA9542",
"l	c #A99441",
"m	c #A6924E",
"n	c #B3B0A3",
"o	c #EBEBEB",
"p	c #CECABE",
"q	c #EAEAEA",
"r	c #D5D4D1",
"s	c #B7B5A9",
"t	c #9E9B90",
"u	c #9B988D",
"v	c #9D9A8F",
"w	c #AAA79C",
"x	c #C1C1C1",
"y	c #E9E9E9",
"z	c #D5D5D5",
"A	c #EDEDED",
"B	c #E6E6E6",
"C	c #DFDDDD",
"D	c #DBDBDB",
"E	c #DDDBDB",
"F	c #E0E0E0",
"G	c #EEEEEE",
".+@@@#$%.+@@@#$%",
"+&*==-;#+&*==-;>",
",')!~{]#^')!~{/>",
"(_:<[}|%1_:<[}|2",
"34567890a45678bc",
"34567890a45678bc",
"34567890a45678bc",
"34567890a45678bc",
"34567890a45678bc",
"34567890a45678bc",
"34567890a45678bc",
"34567890a45678bc",
"34defg90a4defg9c",
"hijklmnopijklmnq",
"rstuvwxyzstuvwx;",
"ABCDEF;GABCDEF;G"};
