/* XPM */
static char * PauseDisabled_yellow[] = {
"16 16 46 1",
" 	c None",
".	c #8D8D8D",
"+	c #8E8E8E",
"@	c #8F8F8F",
"#	c #8C8B8A",
"$	c #8A8A86",
"%	c #8A8986",
"&	c #898885",
"*	c #8A8A8A",
"=	c #8B8A87",
"-	c #8A8572",
";	c #89826D",
">	c #857F6F",
",	c #858583",
"'	c #848382",
")	c #868482",
"!	c #867E6A",
"~	c #8E8266",
"{	c #8D8165",
"]	c #817A67",
"^	c #80807E",
"/	c #868582",
"(	c #8C8C8C",
"_	c #8C8266",
":	c #8C8166",
"<	c #807866",
"[	c #7F7E7D",
"}	c #8B8165",
"|	c #807966",
"1	c #858481",
"2	c #827B6C",
"3	c #7F7865",
"4	c #7F7765",
"5	c #7E786A",
"6	c #807F7E",
"7	c #8B8B8B",
"8	c #858483",
"9	c #868686",
"0	c #81817F",
"a	c #7C7B7A",
"b	c #7C7C7A",
"c	c #7E7E7C",
"d	c #828282",
"e	c #888888",
"f	c #878787",
"g	c #898989",
".+@@@+...+@@@+..",
"+#$%%&*++#$%%&*+",
"=-;;;>,+=-;;;>'+",
")!~~{]^./!~~{]^(",
"/!__:<[(/!__:<[(",
"/!__:<[(/!__:<[(",
"/!__:<[(/!__:<[(",
"/!__:<[(/!__:<[(",
"/!__:<[(/!__:<[(",
"/!__:<[(/!__:<[(",
"/!__:<[(/!__:<[(",
"/!__:<[(/!__:<[(",
"/!:_}|[(/!:_}|[(",
"1234356782343567",
"90abacd790abacd*",
"7*efeg*(7*efeg*("};
