/* XPM */
static const char * arrow_xpm[] = {
"24 24 3 1",
" 	c None",
".	c #FFFFFF",
"+	c #000000",
"........................",
"........................",
"........................",
"........................",
"........................",
"...............+........",
"...............++.......",
"...............+++......",
"...............++++.....",
"...............++++.....",
"...............+++++....",
"...............+++++....",
"...+++++++++++++++++....",
"...+++++++++++++++++....",
"...............++++.....",
"...............++++.....",
"...............+++......",
"...............+++......",
"...............++.......",
"...............+........",
"........................",
"........................",
"........................",
"........................"};

static const char * empty_24x24_xpm[] = {
"24 24 3 1",
" 	c None",
".	c #FFFFFF",
"+	c #000000",
"........................",
"........................",
"........................",
"........................",
"........................",
"........................",
"........................",
"........................",
"........................",
"........................",
"........................",
"........................",
"........................",
"........................",
"........................",
"........................",
"........................",
"........................",
"........................",
"........................",
"........................",
"........................",
"........................",
"........................"};
