/* XPM */
static char * Disabled[] = {
"48 48 210 2",
"  	c None",
". 	c #FEFEFE",
"+ 	c #FDFDFD",
"@ 	c #FCFCFC",
"# 	c #FBFBFB",
"$ 	c #FAFAFA",
"% 	c #F8F8F8",
"& 	c #F6F6F6",
"* 	c #F5F5F5",
"= 	c #F4F4F4",
"- 	c #F7F7F7",
"; 	c #F9F9F9",
"> 	c #F2F2F2",
", 	c #EFEFEF",
"' 	c #EEEEEE",
") 	c #EBEBEB",
"! 	c #E9E9E9",
"~ 	c #E6E6E6",
"{ 	c #E4E4E5",
"] 	c #F3F3F3",
"^ 	c #EDEDED",
"/ 	c #E8E8E9",
"( 	c #E3E3E4",
"_ 	c #E1E1E1",
": 	c #F1F1F1",
"< 	c #F0F0F0",
"[ 	c #ECECED",
"} 	c #EAEAEA",
"| 	c #E7E7E8",
"1 	c #DEDEDF",
"2 	c #F0F0F1",
"3 	c #EDEDEE",
"4 	c #EAEAEB",
"5 	c #E8E8E8",
"6 	c #E6E6E7",
"7 	c #E5E5E5",
"8 	c #DCDCDC",
"9 	c #ECECEC",
"0 	c #E3E3E3",
"a 	c #E0E0E0",
"b 	c #DEDEDE",
"c 	c #DBDBDC",
"d 	c #D9D9D9",
"e 	c #E7E7E7",
"f 	c #E4E4E4",
"g 	c #E1E1E2",
"h 	c #DFDFDF",
"i 	c #DCDCDD",
"j 	c #DDDDDD",
"k 	c #DADADB",
"l 	c #D6D6D7",
"m 	c #E2E2E2",
"n 	c #DADADA",
"o 	c #D9D9DA",
"p 	c #D7D7D7",
"q 	c #D4D4D4",
"r 	c #E0E0E1",
"s 	c #D7D7D8",
"t 	c #D4D4D5",
"u 	c #D2D2D2",
"v 	c #D0D0D1",
"w 	c #E9E9EA",
"x 	c #DFDFE0",
"y 	c #D5D5D6",
"z 	c #D3D3D4",
"A 	c #D1D1D2",
"B 	c #CFCFD0",
"C 	c #CDCDCE",
"D 	c #D3D3D3",
"E 	c #CFCFCF",
"F 	c #CCCCCD",
"G 	c #CACACA",
"H 	c #DBDBDB",
"I 	c #CECECE",
"J 	c #C8C8C9",
"K 	c #DDDDDE",
"L 	c #CBCBCC",
"M 	c #C9C9CA",
"N 	c #C5C5C6",
"O 	c #C3C3C4",
"P 	c #E5E5E6",
"Q 	c #D8D8D9",
"R 	c #D8D8D8",
"S 	c #C0C0C1",
"T 	c #C6C6C6",
"U 	c #C3C3C3",
"V 	c #BDBDBE",
"W 	c #D5D5D5",
"X 	c #D2D2D3",
"Y 	c #D0D0D0",
"Z 	c #CBCBCB",
"` 	c #C4C4C5",
" .	c #C1C1C2",
"..	c #BCBCBD",
"+.	c #E2E2E3",
"@.	c #D6D6D6",
"#.	c #BFBFC0",
"$.	c #BBBBBC",
"%.	c #B9B9BA",
"&.	c #C7C7C8",
"*.	c #BABABB",
"=.	c #B8B8B9",
"-.	c #B7B7B8",
";.	c #C6C6C7",
">.	c #BEBEBF",
",.	c #B5B5B7",
"'.	c #B4B4B5",
").	c #C7C7C7",
"!.	c #B5B5B6",
"~.	c #B3B3B4",
"{.	c #B0B0B1",
"].	c #CCCCCC",
"^.	c #AEAEAF",
"/.	c #D1D1D1",
"(.	c #CACACB",
"_.	c #B2B2B3",
":.	c #AFAFB0",
"<.	c #ABABAC",
"[.	c #C2C2C3",
"}.	c #B1B1B3",
"|.	c #ACACAE",
"1.	c #ACACAD",
"2.	c #A9A9AB",
"3.	c #B6B6B8",
"4.	c #ADADAF",
"5.	c #A8A8AA",
"6.	c #A7A7A8",
"7.	c #CDCDCD",
"8.	c #C9C9C9",
"9.	c #C5C5C5",
"0.	c #B6B6B7",
"a.	c #ADADAE",
"b.	c #A8A8A9",
"c.	c #A6A6A7",
"d.	c #A4A4A5",
"e.	c #CECECF",
"f.	c #A5A5A7",
"g.	c #A3A3A4",
"h.	c #A2A2A4",
"i.	c #AAAAAC",
"j.	c #A0A0A2",
"k.	c #A0A0A1",
"l.	c #B3B3B5",
"m.	c #AFAFB1",
"n.	c #9E9E9F",
"o.	c #9D9D9F",
"p.	c #B1B1B2",
"q.	c #9A9A9C",
"r.	c #C1C1C1",
"s.	c #AAAAAB",
"t.	c #A5A5A6",
"u.	c #9C9C9D",
"v.	c #989899",
"w.	c #A7A7A9",
"x.	c #959597",
"y.	c #ABABAD",
"z.	c #A1A1A2",
"A.	c #9E9EA0",
"B.	c #99999B",
"C.	c #939394",
"D.	c #B4B4B6",
"E.	c #A3A3A5",
"F.	c #929294",
"G.	c #909092",
"H.	c #C8C8C8",
"I.	c #C2C2C2",
"J.	c #BDBDBD",
"K.	c #9B9B9D",
"L.	c #979799",
"M.	c #8D8D8F",
"N.	c #9A9A9B",
"O.	c #959596",
"P.	c #909091",
"Q.	c #8B8B8C",
"R.	c #A1A1A3",
"S.	c #9F9FA0",
"T.	c #9C9C9E",
"U.	c #8A8A8C",
"V.	c #88888A",
"W.	c #8F8F91",
"X.	c #858587",
"Y.	c #A9A9AA",
"Z.	c #949496",
"`.	c #838385",
" +	c #BEBEBE",
".+	c #808082",
"++	c #C4C4C4",
"@+	c #979798",
"#+	c #929293",
"$+	c #8D8D8E",
"%+	c #888889",
"&+	c #828284",
"*+	c #7F7F81",
"=+	c #A4A4A6",
"-+	c #878789",
";+	c #AEAEB0",
">+	c #919193",
",+	c #8C8C8E",
"'+	c #969698",
")+	c #99999A",
"!+	c #949495",
"~+	c #8F8F90",
"{+	c #8A8A8B",
"]+	c #858586",
"^+	c #848486",
"/+	c #89898B",
"(+	c #939395",
"_+	c #8E8E90",
":+	c #B8B8BA",
"<+	c #98989A",
". . + + + + + + + + @ @ + @ # $ # $ % % & * = = = = * * * * & & - - - ; $ $ - - = > , ' ) ! ~ { ",
". + + + + + + + + + @ @ # @ ; % % % & * & = ] ] = > > ] = * = = * - - % ; & = ] > , ^ ) / ~ ( _ ",
"+ + + + + + + + + + @ # % - & & & * = = ] > > > > : > ] ] > ] ] * & - & ] ] < ' ^ [ } | ~ ( _ 1 ",
"+ + @ @ @ @ @ @ @ @ $ % - - * * * ] ] = > , , < < , , : : > > ] = & = > 2 < 3 ) 4 5 6 7 ( _ 1 8 ",
"@ @ @ @ @ @ @ @ # ; ; % - & * = * > ] > , ' ' , < , , , < : : ] > > : , ' 9 ) 5 5 7 0 _ a b c d ",
"@ @ @ @ @ @ @ # ; ; - & & * ] ] * > : , ' ' ^ ^ ' ' ^ ^ < < < < < < ^ 9 ) } e 7 f g h i j k d l ",
"@ @ @ @ @ @ # $ % % - & * ] > < : ^ ' ^ ) } ) 9 ^ ' ^ ^ , , < ^ ' ^ ) 5 ! ~ { m g h i n o p l q ",
"@ # $ $ $ ; % % % % & = = : : < < ^ } } ) ! } ) ) 9 9 ' ' , 9 } } ) e { ~ ( m r h i n s p t u v ",
"$ $ $ $ $ % % & & - ] ] ] : < : ^ 9 } ! ! e 5 } } ! ^ ^ ' ' w 5 6 ~ { 0 ( _ x b i n s y z A B C ",
"$ $ $ $ ; % - & * ] < > : < , , 9 ) } 5 5 ! e ! ) } ) 9 ) } 5 7 f 0 m _ a b b 8 o p t D v E F G ",
"$ ; ; ; - - & * > > < , : < ' ^ 9 } } 5 5 ! 5 e } } ) ! e e ~ 0 a h a h j i H o p t D v I F G J ",
"; ; % % & * ] : : < ' ^ 9 ' ' } ) } } ) 5 5 ! 5 ! ! } e e f m m K b K j c n o p t D v I L M J N ",
"; % % - = = > ' ' , ^ ) ) 9 } } ) } ! } } ! } } } 5 e ~ 0 g a 1 h c n c d o p t D v C L M J N O ",
"; ; ; & = = < ' 9 9 ) 9 ) } } 5 } ! ! ! ! } ) ) w ~ P m g _ 1 H c H Q R Q y z A B F L J J N O S ",
"% % - * * : : ^ 9 9 ) ) ) } ) ! ! } 5 ! ! } ) } 5 ~ 7 m m a b H n p l R y q A E F G J T N U S V ",
"% - & = ] : , 9 9 ^ 9 9 ) ! ) ! 5 5 ! ! } ! ! 5 f ~ 7 0 a a 8 o R l p y W X Y C Z J T `  .S V ..",
"% * * > : , ' ^ ) } ) ! 5 ! 9 ) 5 5 ! 5 ! 5 e 7 e f +._ K 8 k p y @.z D v E F M J N `  .#...$.%.",
"& & * > < < 9 ) 9 ) 5 5 ! e ) 9 } ! 5 ! 7 f ~ 6 f +.m x b i n l D z D v C L M &.` O  .#...*.=.-.",
"& * = ] < ^ 9 } ! ! 5 e ! ! 9 ) } ! } 5 { m { 0 ( m g h K n s D X A v C L J ;.` O S >...*.-.,.'.",
"* = ] > ^ 9 9 ) 5 ! ! e ! 5 9 9 9 5 ~ 7 f f f _ m _ h 8 k p t q X Y C Z J ).` U S V $.=.-.!.~.{.",
"= ] > ' ^ ) ) ! 5 5 5 5 } 9 9 ^ 9 ! 7 ~ f 0 _ h h K H Q p t q z u B ].M ).`  .#.V $.=.-.'.~.{.^.",
"= = : ' ' } ! 5 e 5 5 5 5 9 9 9 9 ! ~ 7 g _ K j K 8 o R y D X /.v I (.&.`  .#...$.%.-.'._.:.^.<.",
"= ] < , ^ ) } 5 5 e ~ 7 ! 9 ' } e 6 7 +.b 1 8 K H o R l D v v B F L J ;.[.S V $.%.-.'.}.:.|.1.2.",
"] > < , ^ ) ! 5 5 e ~ e 5 9 } e 0 0 _ a j j 8 H o R l X X B C L (.&.;.O  .>.$.=.3.'.}.:.4.<.5.6.",
"] : < , 9 ) 5 5 e e e e 5 5 ! ~ m h h b j 8 c n s W t u B 7.L 8.;.9.O S >.$.%.0.!._.{.a.<.b.c.d.",
"] : , 9 ) ! ~ ~ 7 5 5 e ~ ~ 7 7 m h h i 8 o R s W z u e.I L 8.;.O  .#.>.$.%.0.!._.{.a.<.b.f.g.h.",
"] ] < ' } } ! e ~ 7 7 f m 0 f _ r h c n Q p l W z /.v I L J ;.O  .>...$.%.0.'._.{.a.i.b.f.g.j.k.",
"] ] : ^ ^ } ! e ~ f _ 1 h x a 1 b c p l q y q X v B C L J ;.[. .>...%.-.0.l._.m.a.i.b.f.g.j.n.o.",
"] : ' 9 } } ~ 7 0 _ b j j b b b p @.q D u z /.B I F Z J ;.O  .V ..%.3.'.l.p.m.a.i.b.f.g.j.n.o.q.",
"> < , 9 ! e ~ _ _ a j H n n 8 @.z u A D A /.B I L G &.T [.r.>.$.=.0.'.p.{.:.a.s.b.t.g.k.o.u.q.v.",
"] : ^ ) ! e 7 f h j H H R Q p t /.B Y v E C 7.L G &.` [.S V $.%.0.'.p.:.^.a.s.w.t.h.k.o.u.q.v.x.",
"> : ^ ) e 7 0 h j H o @.l @.z D v I F I F Z (.J &.N [.#.V *.=.0.'._.p.a.y.s.w.t.h.z.A.u.B.v.x.C.",
": ' ) } e g h K H Q W y q t /.B 7.L (.M J M J ;.` [.S >.$.%.0.D._.m.^.|.s.5.c.E.z.A.u.B.v.x.F.G.",
"> , 9 ! f m j H R @.q /././.I F Z J H.N ).&.T O I.#.J.$.=.0.'._.:.a.y.s.w.c.E.z.A.K.B.L.x.F.G.M.",
"> < 9 ~ 0 a b n R q u E e.E (.Z (.H.N 9.;.9.O r.#...*.=.0.~.p.:.^.s.s.6.c.g.j.n.K.N.L.O.F.P.M.Q.",
"] ' } f a b 8 o @.z /.e.].L G (.8.;.U [.O [.S >...*.-.0.~.p.^.a.<.5.b.f.d.R.S.T.N.L.O.F.P.M.U.V.",
"] 9 5 f x 8 o R t D v 7.M 8.J G &.` [.S  .#.>...*.-.!._.p.^.y.s.5.b.f.d.R.S.T.N.L.O.F.W.M.U.V.X.",
": 4 ~ ( a c d l D v E F J J &.;.` [.S #.S V $.*.-.!._.m.^.y.Y.5.6.f.g.R.S.T.N.L.Z.F.W.M.U.V.X.`.",
", 5 f m h 8 p W u B 7.M H.;.T [.I.S  +>.J.$.*.-.'._.:.a.<.s.6.6.d.g.z.A.u.B.L.Z.F.W.M.U.V.X.`..+",
"' 5 0 h j n s q B 7.(.8.;.++O I.S  +V ..$.*.=.!.~.{.^.<.s.6.c.d.h.z.A.u.B.@+Z.#+W.$+U.%+X.&+.+*+",
") | 0 1 8 Q @.X E F Z J 9.`  .#.>.V $.*.%.%.0.~.{.^.<.2.6.=+g.E.z.A.u.B.@+Z.#+W.$+U.-+X.&+.+*+*+",
"/ 7 g b o p t u B ].J N N [.S >.>.$.*.%.=.0.'.p.;+1.2.b.f.d.E.z.A.u.B.@+Z.>+W.,+U.-+X.&+.+*+*+*+",
"e +.a i R t u B C (.&.N `  .>.V $...%.-.!.l.p.;+1.2.6.f.g.E.z.A.u.B.'+Z.>+W.,+U.-+X.&+.+*+*+*+*+",
"~ 0 b c R z /.e.Z M T ` ++ . +V *.%.-.0.'._.^.1.Y.6.c.d.g.j.n.K.)+'+!+>+~+,+{+-+]+&+*+*+*+*+*+*+",
"( _ i n s q v 7.(.H.;.++ .>.>.$.*.-.0.~._.:.a.s.b.c.E.g.j.n.K.)+'+!+>+~+,+{+-+^+&+*+*+*+*+*+*+*+",
"_ 1 8 s W X E F 8.J N O #.>.....*.-.'.~.:.a.s.w.6.f.g.j.n.K.)+'+!+>+~+,+/+-+^+&+*+*+*+*+*+*+*+*+",
"x 8 o p z B C L M ;.`  .S >.V *.=.!.l.p.;+1.2.b.f.g.j.n.K.)+'+(+>+_+,+/+-+^+&+*+*+*+*+*+*+*+*+*+",
"h k s y X B C L J ;.O [.#.>.$.:+!.l.p.;+a.i.b.f.g.j.n.K.<+'+(+>+_+,+/+-+^+&+*+*+*+*+*+*+*+*+*+*+"};
