/* XPM */
static char * company_logo_over_xpm[] = {
"162 64 80 1",
" 	c None",
".	c #FFFFFF",
"+	c #FC6F64",
"@	c #FB6961",
"#	c #F75757",
"$	c #E73955",
"%	c #F8655E",
"&	c #EA3E56",
"*	c #E73553",
"=	c #EA4E68",
"-	c #F85E5A",
";	c #F14D58",
">	c #EC4055",
",	c #EE4454",
"'	c #F25057",
")	c #FCE6EA",
"!	c #F6B4BF",
"~	c #FEF2F4",
"{	c #F39BAA",
"]	c #EF4757",
"^	c #E9415D",
"/	c #EE7488",
"(	c #F18393",
"_	c #F9CDD4",
":	c #F28EA1",
"<	c #ED677D",
"[	c #F5A7B4",
"}	c #F08093",
"|	c #EC5A72",
"1	c #FFEEED",
"2	c #FED2CE",
"3	c #FEDCD8",
"4	c #FABCBF",
"5	c #F8C0C9",
"6	c #FEE4E2",
"7	c #FDB8B3",
"8	c #FEC1BC",
"9	c #FDA69F",
"0	c #FBA4A1",
"a	c #ED5D75",
"b	c #EA3A53",
"c	c #FFF7F5",
"d	c #FDADA7",
"e	c #FC8A82",
"f	c #F04A56",
"g	c #F55555",
"h	c #FBD9DF",
"i	c #F98181",
"j	c #EA445F",
"k	c #FECAC6",
"l	c #F35356",
"m	c #F36D77",
"n	c #FC9D96",
"o	c #F99595",
"p	c #F8A6AA",
"q	c #F9B9BF",
"r	c #F06E81",
"s	c #F79395",
"t	c #F27480",
"u	c #F597A0",
"v	c #F9C3CB",
"w	c #FB9999",
"x	c #F7B7C0",
"y	c #F07688",
"z	c #EB5167",
"A	c #FDDFE0",
"B	c #EB475E",
"C	c #F8B0B5",
"D	c #FB837D",
"E	c #FC948C",
"F	c #FA7672",
"G	c #FB8279",
"H	c #FAA8AA",
"I	c #EE6074",
"J	c #F27C87",
"K	c #F35960",
"L	c #F6A0AA",
"M	c #F49CA9",
"N	c #F98B8B",
"O	c #F4808B",
"....................................................................................................................................+++...........................",
".................................................................................................................................++@#$%+..........................",
"...............................................++++++++.........................................................................++&**=&-+.........................",
".............................................++-;>>>>,'%++.....................................................................+-$=)!~{$%+........................",
".............................................+]^/(___:<$,#++..................................................................+;${[~...}]+........................",
"............................................+;|~11123314:*>#+++..............................................................+-*5!.....)*%........................",
"............................................+$_31673869270a*bb-++............................................................+#*)......[$@........................",
"............................................@*..c.1dcec....:}}bfg@++........................................................+-&:.....h5[$+........................",
"...........................................+g*i8c...16.......)!}|*&f%+.....................++++++++........................+'$:)...~}~<<&+........................",
"...........................................+;j66c39k1............~!/*f+.............+++++++-##'$>##%+++++++..............+@]^_..~h!![|*;@+........................",
"...........................................+>(kd.6c37d971..~~.......h=l+...........+#>*********5|*******$,-+............+@&|~...:$&^=>g+..........................",
"...........................................+$mnk.68kk3.cc.do.{/{{___!=l+++++.....+++>/5h..............._5|;+...........+-$}...~}b-+ll@+...........................",
"..........................................+-*p16c9d3.12k.17qh|,f>>>>*>g;;g##+++++#g;b/!~...............)[<;+..........+'*[...~|&@+.++.............................",
"..........................................+'|3k..3.3877k.c.[<>@%',b**<<<<<<**b,b**</{{5___5{/^/.=********>-+........+@]^h...h=]++.................................",
"..........................................+]r92..378k3...2s{<;#*<{_~........~5:=~.............~h=;##-++++++........+-&<~...5^;+...................................",
"..........................................+>tkc.67k1.381.7u{<;'<...............:...............<,++++.............+g$:....!*l+....................................",
"..........................................%*v23c86c2k7k.cc}{<;;<...............<...............<'+.........+....++f^5....}$-+.....................................",
".........................................+#=wn6cc288k3c.ck^{<;l<.............._|h..............<;+......++++++.+@&|h...~/&-+......................................",
".........................................+;ad6.3d7kc.31.ks*{<>-*:[_..........___!:/5~5____~h{/!<'+.....+#f>;&l+#$}~...~|>@+.......................................",
".........................................+>!18.7kc1k871.3x*{!*+l;>$_:<<!...)__....~[h_}}{[~=,b{<#+....+f^:{}=^b*[....h^]++........................................",
".........................................+$_1..c2dd7k3..3y*{!*++++l^!~_.)}^****/!...55h~)~|]+>{<]+...+g^h....~=h....!^'+..........................................",
".........................................+,!383.c...66.30^${{*+...+g*:.{*]#+++%'b<)..[~).!b++>{!>+...+b!.nd........[$l+...........................................",
".........................................+-zA87339......_$;{)*+...+'=~}b-++....+@]^h..[..|l++>{{&++++l=..23.......}$-+............................................",
".........................................++-BC1c68......{,;{{*+...@$_{b@+........+]|~.!__$@ +>{{*###g$5........../&@+.............................................",
"..........................................++l*:...c....hj%;{{&+..+;})*-+..........+>{.~{{>+ +>55****={..........!b@+..............................................",
"..........................................+++f^......)/b-+;{{>+..+b5}]+...........+#^~._{>++#$[~...............!$-+...............................................",
"............................+++++++++++++++++b!......};++@&{{$-+.+*~=g+........+++++#DEDF-++@++G93............)*-+................................................",
"............................+++++++++++++++++*......~^@+@&}..[$-+@*)*+........++++++++++++++++++++d..........._$'g+...............................................",
"............................+++++++++++++++++*).....)$+@&}h!!h}b@g*_*+........+++++++++++++++++++++9...........!<=;+..............................................",
"............................+++;;;;;;;;#+++.+]=h....5>+>|_^{{^!}b*{h*+........+++#;;;;;;;#+-,$b]%+++k............[>+..............................................",
"............................+++********;+++.+,})..._=$*|_^&{{$*!}<~.*%........+++;*******;g*****$-++G...........h^f+..............................................",
"............................+++*|_____*;+++.+&_....5*/!h{$,{{b$/~!!./;+.......+++;*[____*f$*{~~{*b+++6........_}*'+...............................................",
"............................+++*<.....*;+++.+>w7777HI_^^!!*{{*J8KK7kL$@+++++..+++;*_....*&*}....}*#++k687777p*$]%+.....++++.......................................",
"............................+++*<.....*;+++++++++++++-'g${hMN%+++++++-@++++++++++;*_....***_...._*#++++++++++++++...+++++++++++...................................",
"............................+++*<.....*;++++++++++++++++-bOG+++++++++++++++++++++;*_....*&*!....!*-+++++++++++++..++++++++++++++..................................",
"............................+++*<.....*;+++++@#;;;#%+++++@+++++#';l%+++@g;;#@++++;*_....*f$=~..~=b+++++#';;#@+++++++++@g;;l#++++++................................",
"............................+++*<.....*;+++#,*******b'@++++++;b*****>#;$*****]%++;*_....*;**^::^**+++;$******]@+++++-,******$;@++++...............................",
"............................+++*<.....*;++f**^/{{{<***b-+++@&**|:{:=****|{{}=*$l+;*_....*;*=<<<<^*+@&**=:{{/**$-+++l***/{{:|**b-+++...............................",
"............................+++*<.....*;+]*=!.......!=*$-++&*|_.....[^=_.....[^*#;*_....*;*{....<*+,*^5.....~/*$@+l**:~.....h<*$-+++..............................",
"............................+++*<.....*;f*/~.........~}*$@;*|~.......h~.......h^b;*_....*;*{....<*g*^h........}*]-**!.........}*&+++..............................",
"............................+++*<.....*]*|~............|*]b*h..................[*&*_....*;*{....<*,*[.........~=*>*{...........<*l+++.............................",
"............................+++*<.....***h.............h*$*|...................~***_....*;*{....<**^...........[**=............)*,+++.............................",
"........................+++++++*<.....**<.....:**^{.....|**{....h</~....h</~....<**_....*;*{....<**<....h<:...._**[....!^*=h....|*+++.............................",
".......................++++++++*<.....**[....:*,#'*5....:**{....<**{....<**{....<**_....*;*{....<**{..../$*h....**h...h*f#b<....{*#++.............................",
".......................++++++++*<.....**_....*$+++&/....{**{....<**{....<**{....<**_....*;*{....<**{....<>*_....**....{*++f*....!*#+++............................",
".......................+++l;;;;*<.....**_....^*@++><....{**{....<**{....<**{....<**_....*;*{....<**{....<>*_....**....[*#+;*...._*#+++............................",
".......................+++>*****5....h**!....}*&;]$<....{**{....<**{....<**{....<**_....*;*{....<**{....<>*_....**_...)^*b**...._*#+++............................",
".......................+++>*___)....._**}....~}***=<....{**{....<**{....<**{....<**_....*;*{....<**{....<>*_....**[....h/<}=...._*#+++............................",
".......................+++>*.........:*>^~........{<....{**{....<**{....<**{....<**_....*;*{....<**{....<>*_....**=........<...._*#+++............................",
".......................+++>*........~^>%*/........{<....{**{....<**{....<**{....<**_....*;*{....<**{....<>*_....*$*{.......<...._*#+++............................",
".......................+++>*.......~}*#+;*}.......{<....{**{....<**{....<**{....<**_....*;*{....<**{....<>*_....*fb*!......<...._*#+++............................",
".......................+++>*.....)!=*]+++]*/).....:<....{**{....<**{....<**{....<**_....*;*{....<**{....<>*_....*;,**})....<...._*#+++............................",
".......................+++>*<<<^***$'+++++;**|{{:|*^<<<<=**=<<<<^**=<<<<^**=<<<<^**|<<<<*;*=<<<<^**=<<<<^>*|<<<<*;>****|<<=^....{*#++.............................",
".......................+++f>>>>>,;g++++++++%]$****>>>>>>>>>>>>>>>>>>>>>>>>>>>>>>>>>>>>>>>l>>>>>>>>>>>>>>>f>>>>>>>l>*=******!....:*@++.............................",
".......................++++++++++++++++.++++++%#-+++++++++++++++++++++++++++++++++++++++++++++++++++++++++++++++++>*.h[{{{h.....=b+++.............................",
".......................+++++++++++++++...+++++++++++++++++++++++++++++++++++++++++++++++++++++++++++++++++++++++++>*..........._*;+++.............................",
".......................++++++++++++........+++++++++++++++++++++++++++++++++++++++++++++++++++++++++++++++++++++++>*..........~=$@++..............................",
"...............................................................................................................+++>*.........h|*g+++..............................",
"...............................................................................................................+++>*:5)...)5}*$g+++...............................",
"...............................................................................................................+++#]$*******b;@++++...............................",
"...............................................................................................................++++++-#g;g#%++++++................................",
"...............................................................................................................+++++++++++++++++..................................",
"..................................................................................................................+++++++++++++...................................",
"......................................................................................................................+++++......................................."};
