/* XPM */
static char * SilenceDisabled[] = {
"20 18 4 1",
" 	c None",
".	c #A8A8A8",
"+	c #6B6B6B",
"@	c #7A7AA7",
"....................",
"....................",
"......+......+......",
".....@+......+......",
".@..@@+......+..@...",
"@@@.@.+......+.@@@.@",
"@.@.@.+......+.@.@.@",
"@.@.@.+......+.@.@.@",
"@.@.@.+......+.@.@.@",
"@.@.@.+@@@@@@+.@.@.@",
"@.@.@.+......+.@.@.@",
"@.@.@.+......+.@.@.@",
"@.@@@.+......+.@.@@@",
"...@..+......+@@..@.",
"......+......+@.....",
"......+......+......",
"....................",
"...................."};
