/* XPM */
static const char * TimeShift[] = {
"27 27 3 1",
" 	c None",
".	c #FFFFFF",
"+	c #000000",
"...........................",
"...........................",
"...........................",
"...........................",
"...........................",
"...........................",
"...........................",
"...........................",
"...........................",
"...........................",
"........+........+.........",
".......+..........+........",
"......+............+.......",
".....++++++++++++++++......",
"......+............+.......",
".......+..........+........",
"........+........+.........",
"...........................",
"...........................",
"...........................",
"...........................",
"...........................",
"...........................",
"...........................",
"...........................",
"...........................",
"..........................."};
