/* XPM */
static const char * Hilite[] = {
"27 27 54 1",
" 	c None",
".	c #EBEBEB",
"+	c #FCFCFC",
"@	c #FDFDFD",
"#	c #F0F0F0",
"$	c #DEDEDE",
"%	c #EDEDED",
"&	c #EEEEEE",
"*	c #EFEFEF",
"=	c #ECECEC",
"-	c #E1E1E1",
";	c #CBCBCB",
">	c #D7D7D7",
",	c #DADADA",
"'	c #DCDCDC",
")	c #DDDDDD",
"!	c #DBDBDB",
"~	c #DFDFDF",
"{	c #DDDDDA",
"]	c #D6D6D6",
"^	c #CECECE",
"/	c #D0D0D0",
"(	c #E4E4E4",
"_	c #E0E0E0",
":	c #E3E3E3",
"<	c #E2E2E2",
"[	c #DEDEE1",
"}	c #D4D4D4",
"|	c #E6E6E6",
"1	c #E5E5E5",
"2	c #E7E7E7",
"3	c #E5E5E2",
"4	c #D2D2D2",
"5	c #E9E9E9",
"6	c #E8E8E8",
"7	c #D5D5D5",
"8	c #EAEAEA",
"9	c #D9D9D9",
"0	c #D8D8D8",
"a	c #F1F1F1",
"b	c #F2F2F2",
"c	c #EEEEEF",
"d	c #F0F0F1",
"e	c #F3F3F3",
"f	c #F4F4F4",
"g	c #F5F5F5",
"h	c #F6F6F6",
"i	c #F7F7F7",
"j	c #F8F8F8",
"k	c #F9F9F9",
"l	c #FAFAFA",
"m	c #FBFBFB",
"n	c #FEFEFE",
"o	c #FFFFFF",
".+@@+@+@+@@+@+@+++@@@@@@++#",
"$%&&*#**#*##*##**###**&&*=-",
";>,')')!!~!,)~)'),')'{,')]^",
"/!-(_:<_<<:--<--<<<-<[-(_'^",
"}'<|:|1(|11||12|111((3<|:$4",
"}<22255552666265666666221(>",
"7<55558885555888555855562(9",
">:88...888...=...8.=.8..51,",
"91&&=%&=%&&&&%%&*%*%&&&..20",
",1&&=%&=%&&&&&&**%*%&**==60",
"9|=&%%&****&*##**&**&***%60",
",5**#**##****##***#####**8'",
",8*#####a#########aa####*8)",
"'8*#aababa##abb#bbaabbbac.'",
"'8#bbbbbbbaabbbaabbbbbbbd.'",
")8aeeeeeeebbeeeeaebebbeeb8'",
"$.#ffffgffffffgffeffffffb=_",
"$=affffgffffffgfffffffffe._",
"$&ffgghghhhghgghhhhghgggg.)",
")=fiiiiiijiiiiiiihiiiiiih%~",
")=fijjjjjkjjjjjjjijjjjjih*~",
")&hkllkllllklkkkkllkmlkkga~",
"$#j++m++m+mlmmlmm++mmmm+ja~",
"~ak@+@@@+@++@@+@@@@@+++@mb_",
"_gnoooooooooooooooooonnooh(",
"_e+nnnn@n@@@nn@@@nnnn++nng-",
")6*aaaaa#aaaaaaaaa#aa**aa8!"};
