/* XPM */
static char * Trim[] = {
"20 18 4 1",
" 	c None",
".	c #CCCCCC",
"+	c #000000",
"@	c #3232C8",
"....................",
"....................",
".....+.........+....",
".....+.@...@...+....",
".....+@@@.@@@.@+....",
".....+@.@.@.@.@+....",
".....+@.@.@.@.@+....",
".....+@.@.@.@.@+....",
".....+@.@.@.@.@+....",
"@@@@@+@.@.@.@.@+@@@@",
".....+@.@.@.@.@+....",
".....+@.@.@.@.@+....",
".....+@.@.@.@.@+....",
".....+@.@@@.@@@+....",
".....+...@...@.+....",
".....+.........+....",
"....................",
"...................."};
