/* XPM */
static char *Up[] =
{
/* width height ncolors chars_per_pixel */
"27 27 6 1",
/* colors */
"A c #FFFFFF",
"B c #EFEFEF",
"C c #DEDEE7",
"D c #DEDEDE",
"E c #CECECE",
"F c #ADADAD",
/* pixels */
"FFFFFFFFFFFFFFFFFFFFFFFFFFF",
"FBAAAAAAAAAAAAAAAAAAAAAAABF",
"FDBBBBBBBBBBBBBBBBBBBBBBBDF",
"FEEDEDDDDDDEDDDDDDDDDEDDEEF",
"FEDDBDDDDDDBDDDDDDDDDCDDDEF",
"FEDDDDBDBDBDDBDBDBDBDBDBDEF",
"FDDBBDBDBBDBBDBDBDBDBDBDBEF",
"FEDBDBDBBDBBDBDBBBDBBBDBDDF",
"FDDBBBBBDBBDBBBBDBBBDBBDBDF",
"FDDBBDBBBBBBBBBBBBBBBBBBBEF",
"FEBBBBBBBBBBBBBBBBBBBBBBDDF",
"FDDBBBBBBBBBBBBBBBBBBBBBBDF",
"FDBBBBBBBBBBBBBBBBBBBBBBDDF",
"FDBBBBBBBBBBBBBBBBBBBBBBBDF",
"FDDBBABBBABBABBABBABBBBBBDF",
"FDBBABBBABBBBABBBABBBABADDF",
"FDBBBBABBABABBABBBABABBBBDF",
"FDBBBABBABBBABBBABBABBABBDF",
"FDBBABABBAABBABABABBABBADDF",
"FDBBABBAABABABABABABABABBDF",
"FDBBBAABABAABABABABABABABDF",
"FDBAAABAAABAABAAAAAAAAAABDF",
"FDBBAAAAAAAAAAABAAABAAABBDF",
"FDBAAAAAAAAAAAAAAAAAAAAABBF",
"FDAAAAAAAAABAAAAAAAAABAAADF",
"FDDBBBBBBBBBBBBBBBBBBBBBDDF",
"FFFFFFFFFFFFFFFFFFFFFFFFFFF",
};
