/* XPM */
static char * Thinklabs_button_Filter_dis_xpm[] = {
"64 42 36 1",
" 	c #DCDCDC",
".	c #DEDEDE",
"+	c #EEEEEE",
"@	c #E3E3E3",
"#	c #E2E2E2",
"$	c #FFFFFF",
"%	c #E0E0E0",
"&	c #DDDDDD",
"*	c #DFDFDF",
"=	c #E1E1E1",
"-	c #EDEDED",
";	c #F9F9F9",
">	c #FAFAFA",
",	c #FCFCFC",
"'	c #FDFDFD",
")	c #FEFEFE",
"!	c #F0F0F0",
"~	c #EBEBEB",
"{	c #E8E8E8",
"]	c #E5E5E5",
"^	c #E4E4E4",
"/	c #E9E9E9",
"(	c #F4F4F4",
"_	c #F8F8F8",
":	c #F1F1F1",
"<	c #E6E6E6",
"[	c #F2F2F2",
"}	c #E7E7E7",
"|	c #F6F6F6",
"1	c #F7F7F7",
"2	c #ECECEC",
"3	c #F3F3F3",
"4	c #EFEFEF",
"5	c #F5F5F5",
"6	c #FBFBFB",
"7	c #EAEAEA",
"                                                                ",
"       .+@                                                      ",
"       #$#                                                      ",
"       #$%             &..****%%%==                             ",
"       #$%             -;>,')$$$$$,@                            ",
"       #$%           &!$~{]^#=%%**/)=                           ",
"       %$%          *('@          ._:&                          ",
"       %$%         %_;%            <'^                          ",
"       %$%        @'(*              [>#                         ",
"       %$%       }$:                .|1&                        ",
"       %$%      -$2&                 *>3                        ",
"       %$=    .:)<                    ])4&                      ",
"       %$=   %1>@                      ]$3%                     ",
"       %$=  =,5%                        &4$:@#========%         ",
"       %$= &[!                           .<|>>6,,''))$1         ",
"       %$=  @                              .^7<]^^@##=%         ",
"       %$#                                                      ",
"       *$#                                                      ",
"       *$#                                                      ",
"       *$<%%%%%%======%%%%%%%%%%%%%%%%%%%%%%%%%%%%%%%%%%%%      ",
"       .1$$$$$$$$$$$$$$$$$$$$$$$$$$$$$$$$$$$$$$$$$$$$$$$$;      ",
"        .=======================%%%%%%%%%%%%%%%%%%%%%%%%%*      ",
"                                                                ",
"              =#######* %#%  ##.                                ",
"              1$$$$$$$~ [$(  $$}  *[.                           ",
"              1$),,,,,/ :$(  $$} #'$*                           ",
"              1$3            $$} ]$$*                           ",
"              1$3       +;!  $$}^>$$;+  7;);-&  +;2[)(          ",
"              1$|]]]]=  [$(  $$}<$$$$[ -$$;)$3  [$'$$[          ",
"              1$$$$$$[  [$(  $$}&<$$%&*)$/ =)$@ [$$2@#          ",
"              1$';;;;4  [$(  $$} ]$$* <$$@##1$2 [$,             ",
"              1$3       [$(  $$} ]$$* ~$$$$$$$! [$_             ",
"              1$3       [$(  $$} ]$$* {$)<<<<<# [$|             ",
"              1$3       [$(  $$} ^$$% =$$] .5:@ [$5             ",
"              1$3       [$(  $$} =$$>[ 3$)[;$'* [$(             ",
"              1$3       [$(  $$}  ($$5 &:)$$;^  [$(             ",
"                                   %%    &=%&                   ",
"                                                                ",
"                                                                ",
"                                                                ",
"                                                                ",
"                                                                "};
