/* XPM */
static char * LockDisabled[] = {
"16 16 90 1",
" 	c None",
".	c #000000",
"+	c #0A0808",
"@	c #3E3838",
"#	c #5F5555",
"$	c #625858",
"%	c #4C4444",
"&	c #1F1B1B",
"*	c #0A0A0A",
"=	c #716565",
"-	c #C9B3B3",
";	c #CCB6B6",
">	c #C3AFAF",
",	c #BFABAB",
"'	c #BBA7A7",
")	c #B8A4A4",
"!	c #897B7B",
"~	c #272323",
"{	c #181616",
"]	c #BAA6A6",
"^	c #CEB8B8",
"/	c #BDA9A9",
"(	c #B2A0A0",
"_	c #B5A1A1",
":	c #B39F9F",
"<	c #AE9C9C",
"[	c #A79595",
"}	c #473F3F",
"|	c #CBB5B5",
"1	c #AB9999",
"2	c #786A6A",
"3	c #494141",
"4	c #443C3C",
"5	c #6C6060",
"6	c #A09090",
"7	c #A99797",
"8	c #A89696",
"9	c #9C8C8C",
"0	c #373131",
"a	c #CFB9B9",
"b	c #AA9898",
"c	c #7E7070",
"d	c #635959",
"e	c #A19191",
"f	c #827474",
"g	c #0B0909",
"h	c #8F7F7F",
"i	c #706464",
"j	c #978787",
"k	c #A59393",
"l	c #908282",
"m	c #3B3535",
"n	c #CAB4B4",
"o	c #C4AEAE",
"p	c #9B8B8B",
"q	c #7B6F6F",
"r	c #988888",
"s	c #5E5454",
"t	c #C7B1B1",
"u	c #AF9D9D",
"v	c #9A8A8A",
"w	c #6E6262",
"x	c #AD9B9B",
"y	c #6D6161",
"z	c #C3ADAD",
"A	c #A39191",
"B	c #605656",
"C	c #C0ACAC",
"D	c #A59595",
"E	c #938383",
"F	c #4D4545",
"G	c #BEAAAA",
"H	c #A49292",
"I	c #998989",
"J	c #2D2929",
"K	c #262222",
"L	c #030303",
"M	c #9D8D8D",
"N	c #A69494",
"O	c #837575",
"P	c #413939",
"Q	c #8B7D7D",
"R	c #8E7E7E",
"S	c #968686",
"T	c #958585",
"U	c #8A7C7C",
"V	c #0F0D0D",
"W	c #2C2828",
"X	c #080808",
"Y	c #2A2626",
".....+@#$%&.....",
"...*=-;>,')!~...",
"..{]^/(_:<<<[}..",
".*]|_1234567890.",
".=a_bc....d68efg",
"+-/1h......ijklm",
"@no/p......q[[rs",
"#tu7777777777[vw",
"$>x7777777777[vy",
"%zx7777777778[AB",
"&C<7777777778DEF",
".G<788777778[HIJ",
".)7888877888kprK",
"L1MAN[[[[Nk9MpOP",
".hQRjSrpvTUOhj!V",
"...W........gXY."};
