/* XPM */
static const char * DrawAlpha[] = {
"27 27 126 2",
"  	c None",
". 	c #000000",
"+ 	c #060606",
"@ 	c #0F0F0F",
"# 	c #0A0A0A",
"$ 	c #050505",
"% 	c #0E0E0E",
"& 	c #030303",
"* 	c #232323",
"= 	c #333333",
"- 	c #1C1C1C",
"; 	c #010101",
"> 	c #020202",
", 	c #141414",
"' 	c #949394",
") 	c #656565",
"! 	c #9F9F9F",
"~ 	c #BCBCBC",
"{ 	c #929292",
"] 	c #979897",
"^ 	c #2A2A2A",
"/ 	c #4E4E4E",
"( 	c #6C6C6C",
"_ 	c #FFFFFF",
": 	c #ACACAC",
"< 	c #A5A6A5",
"[ 	c #1D1D1D",
"} 	c #121212",
"| 	c #040404",
"1 	c #202020",
"2 	c #686968",
"3 	c #C7C7C7",
"4 	c #F4F4F4",
"5 	c #9E9F9E",
"6 	c #3C3B3C",
"7 	c #0B0B0B",
"8 	c #989898",
"9 	c #F5F4F4",
"0 	c #F1F1F1",
"a 	c #919391",
"b 	c #1E1E1E",
"c 	c #090909",
"d 	c #1F1F1F",
"e 	c #C1C2C1",
"f 	c #F7F7F7",
"g 	c #FDFDFD",
"h 	c #CECECE",
"i 	c #878687",
"j 	c #070707",
"k 	c #5B5B5B",
"l 	c #7A7A7A",
"m 	c #FEFEFE",
"n 	c #C6BCBB",
"o 	c #B4B2B4",
"p 	c #1E1D1E",
"q 	c #171717",
"r 	c #161616",
"s 	c #909290",
"t 	c #CFCFCF",
"u 	c #F3F3F3",
"v 	c #B4B5B4",
"w 	c #8B888B",
"x 	c #151515",
"y 	c #0D0D0D",
"z 	c #2D2D2D",
"A 	c #7F7F7F",
"B 	c #E5E1E0",
"C 	c #929392",
"D 	c #1A1A1A",
"E 	c #262626",
"F 	c #B7B8B7",
"G 	c #E1E1E1",
"H 	c #D0D0D0",
"I 	c #7B797B",
"J 	c #A7A7A7",
"K 	c #BFBFBF",
"L 	c #FEFDFD",
"M 	c #D7D8D7",
"N 	c #464546",
"O 	c #2C2C2C",
"P 	c #E9E9E9",
"Q 	c #E2E2E2",
"R 	c #A0A1A0",
"S 	c #EAE9E6",
"T 	c #BCBEBC",
"U 	c #181718",
"V 	c #1B1B1B",
"W 	c #C8C6C8",
"X 	c #7B7A7B",
"Y 	c #454545",
"Z 	c #9C9E9C",
"` 	c #FCFCFC",
" .	c #EBEAE8",
"..	c #B9BBB9",
"+.	c #111111",
"@.	c #717171",
"#.	c #A8A8A8",
"$.	c #B5B5B5",
"%.	c #4B4A4B",
"&.	c #D3D3D3",
"*.	c #F8F8F8",
"=.	c #C5C2BC",
"-.	c #8B8C8B",
";.	c #0F0E0F",
">.	c #080808",
",.	c #838183",
"'.	c #ECECEC",
").	c #CEC9C0",
"!.	c #8B898B",
"~.	c #8D8C8D",
"{.	c #FBFBFB",
"].	c #F5F5F5",
"^.	c #BDBAAF",
"/.	c #838383",
"(.	c #959595",
"_.	c #C3C2C3",
":.	c #AFADAF",
"<.	c #1A191A",
"[.	c #707070",
"}.	c #CDCECD",
"|.	c #A3A1A3",
"1.	c #C9C9C9",
"2.	c #5F605F",
"3.	c #575757",
"4.	c #9C9C9C",
"5.	c #0C0C0C",
". . . . . . . . . . . . . . . . . . . . . . . . . . . ",
". . . . . . . . . . . . + @ # $ $ % & . . . . . . . . ",
". . . . . . . . . . . . + * = = - % % ; . . . . . . . ",
". . . . . . . . . . . > , ' ) ! ~ { ] ^ ; . . . . . . ",
". . . . . . . . . . . & / ( _ _ _ _ : < [ . . . . . . ",
". . . . . . . . . } | 1 2 3 _ _ _ _ 4 5 6 . . . . . . ",
". . . . . . . . . 7 $ ) 8 9 _ _ _ _ 0 a b @ . . . . . ",
". . . . . . . . c & d e f g _ _ _ _ h i b j . . . . . ",
". . . . . . . . $ @ k l m _ _ m _ _ n o p c . . . . . ",
". . . . . . . , q r s t _ _ _ m _ u v w x 7 . . . . . ",
". . . . . . ; y d z A m _ _ _ _ _ B C D ; . . . . . . ",
". . . . . . % . E F G m _ _ _ _ _ H I y . . . . . . . ",
". . . . . ; c j J K L _ _ _ _ _ m M N . . . . . . . . ",
". . . . . + . O M P m _ m _ _ g Q R , . . . . . . . . ",
". . . . . } ; ! Q g _ _ m _ g S T U . . . . . . . . . ",
". . . . . * V W u _ _ m m _ _ G X ; . . . . . . . . . ",
". . . . . V Y Z ` _ _ _ _ _  ...r ; . . . . . . . . . ",
". . . . . +.@.#.m _ m _ _ f $.%.| . . . . . . . . . . ",
". . . . . 7 ( &._ m _ m *.=.-.;.. . . . . . . . . . . ",
". . . . . >.,.'._ _ m G ).!.* $ . . . . . . . . . . . ",
". . . . . | ~.{._ _ ].^./.x ; . . . . . . . . . . . . ",
". . . . . # (.g _ ` _.:.<.. > . . . . . . . . . . . . ",
". . . . . 7 [.P _ }.|.D . . . . . . . . . . . . . . . ",
". . . . . y ! _ 1.2.+ $ $ . . . . . . . . . . . . . . ",
". . . . . $ 3.4.O 5.j ; . . . . . . . . . . . . . . . ",
". . . . . . V +.| . . . . . . . . . . . . . . . . . . ",
". . . . . . . . . . . . . . . . . . . . . . . . . . . "};
