/* XPM */
static const char * ZoomAlpha[] = {
"27 27 114 2",
"  	c None",
". 	c #000000",
"+ 	c #070707",
"@ 	c #232323",
"# 	c #2A2A2A",
"$ 	c #2B2B2B",
"% 	c #404040",
"& 	c #B7B7B7",
"* 	c #D3D3D3",
"= 	c #D4D4D4",
"- 	c #9C9D9C",
"; 	c #020202",
"> 	c #030303",
", 	c #BEBEBE",
"' 	c #F6F6F6",
") 	c #FEFEFE",
"! 	c #CDCECD",
"~ 	c #202020",
"{ 	c #FFFFFF",
"] 	c #F7F7F7",
"^ 	c #DEDEDE",
"/ 	c #6A696A",
"( 	c #494949",
"_ 	c #C0BEC0",
": 	c #5A5A5A",
"< 	c #080808",
"[ 	c #BDBEBD",
"} 	c #ADACAD",
"| 	c #484848",
"1 	c #0E0E0E",
"2 	c #B4B6B4",
"3 	c #BCBABC",
"4 	c #5D5D5D",
"5 	c #0D0D0D",
"6 	c #B4B2B4",
"7 	c #A9A8A9",
"8 	c #3C3C3C",
"9 	c #050505",
"0 	c #A8A7A8",
"a 	c #C0BDC0",
"b 	c #7B7B7B",
"c 	c #1B1B1B",
"d 	c #010101",
"e 	c #D8D8D8",
"f 	c #9C999C",
"g 	c #CBC9CB",
"h 	c #6B6B6B",
"i 	c #121212",
"j 	c #191919",
"k 	c #8E8E8E",
"l 	c #EDEDED",
"m 	c #A2A5A2",
"n 	c #B5B3B5",
"o 	c #A9A7A9",
"p 	c #0A0A0A",
"q 	c #242424",
"r 	c #4C4C4C",
"s 	c #D0D0D0",
"t 	c #FCFCFC",
"u 	c #A2A3A2",
"v 	c #B1AFB1",
"w 	c #ACAAAC",
"x 	c #797879",
"y 	c #060606",
"z 	c #DBDBDB",
"A 	c #F8F8F8",
"B 	c #C5C6C5",
"C 	c #CCC9CC",
"D 	c #C5C2C5",
"E 	c #BDBABD",
"F 	c #BEBBBE",
"G 	c #858585",
"H 	c #676667",
"I 	c #3F3F3F",
"J 	c #040404",
"K 	c #B0B1B0",
"L 	c #B4B4B4",
"M 	c #868686",
"N 	c #8F8E8F",
"O 	c #A8A8A8",
"P 	c #ABA8AB",
"Q 	c #6D6C6D",
"R 	c #797979",
"S 	c #3E3E3E",
"T 	c #272727",
"U 	c #171717",
"V 	c #6B6E6B",
"W 	c #A9AAA9",
"X 	c #AEAFAE",
"Y 	c #333333",
"Z 	c #222222",
"` 	c #393939",
" .	c #464646",
"..	c #282828",
"+.	c #6B6A6B",
"@.	c #ADABAD",
"#.	c #B2B2B2",
"$.	c #797A79",
"%.	c #373737",
"&.	c #141414",
"*.	c #0B0B0B",
"=.	c #828182",
"-.	c #909090",
";.	c #666666",
">.	c #353535",
",.	c #909190",
"'.	c #8B8A8B",
").	c #949494",
"!.	c #5C5C5C",
"~.	c #9D9B9D",
"{.	c #808080",
"].	c #626262",
"^.	c #1D1D1D",
"/.	c #383838",
". . . . . . . . . . . . . . . . . . . . . . . . . . . ",
". . . . . . . . . . . . . . . . . . . . . . . . . . . ",
". . . . . . . . . . . . . . . . . . . . . . . . . . . ",
". . . . . . . . . . + @ # $ $ $ $ # @ + . . . . . . . ",
". . . . . . . . . + % & * = = = = * - % + ; > . . . . ",
". . . . . . . . + % , ' ) ) ) ) ) ) ' ! % @ ~ . . . . ",
". . . . . . . . @ & ' { { { { { { { { ] ^ / ( . . . . ",
". . . . . . . . # * ) { { { { { { { { { ! _ : < . . . ",
". . . . . . . . $ = ) { { { { { { { { { [ } | 1 . . . ",
". . . . . . . . $ = ) { { { { { { { { { 2 3 4 5 . . . ",
". . . . . . . . $ = ) { { { { { { { { { 6 7 8 9 . . . ",
". . . . . . . . $ = ) { { { { { { { { 0 a b c d . . . ",
". . . . . . . 9 8 e ) { { { { { { { { f g h i . . . . ",
". . . . . . . j k l { { { { { { { { m n o 8 p d . . . ",
". . . . . + q r s t { { { { { { { u v w x i y . . . . ",
". . . . + % & z A { 6 B C D E 2 [ F G H I J ; . . . . ",
". . . + % , ' ) { K D L M N O P Q R S T U . . . . . . ",
". . + % , ] { { V W X M Y Z `  .T ..5 < 9 . . . . . . ",
". . @ & ' { { +.@.#.$.%.&.> + y *.9 d . . . . . . . . ",
". . # * ) { =.@.-.;.>.j > . . . . . . . . . . . . . . ",
". . @ & ' ,.'.).!.8 < J . . . . . . . . . . . . . . . ",
". . + % ~.{.].` j ^.J . . . . . . . . . . . . . . . . ",
". . . + U /.q i p 9 . . . . . . . . . . . . . . . . . ",
". . . . ; &.+ < d . . . . . . . . . . . . . . . . . . ",
". . . . . . . . . . . . . . . . . . . . . . . . . . . ",
". . . . . . . . . . . . . . . . . . . . . . . . . . . ",
". . . . . . . . . . . . . . . . . . . . . . . . . . . "};
