/* XPM */
static const char * arrow_xpm[] = {
"24 17 16 1",
"` c #040204", 
". c #888888", 
"# c #cdcecd", 
"a c #3c3e3c", 
"b c #f1f1f1", 
"c c #acaaac", 
"d c #1c1a1c", 
"e c #949494", 
"f c #e4e6e4", 
"g c #676767", 
"h c #fcfefc", 
"i c #2c2a2c", 
"j c #dcdadc", 
"k c #4c4a4c", 
"l c #0c0c0c", 
"m c #b4b6b4", 
"hhhh#mhhhhhhhhhhhhhhhhhh", 
"hhhhm`iebhhhhhhhhhhhhhhh", 
"hhhhm```lgfhhhhhhhhhhhhh", 
"hhhhm``````kmhhhhhhhhhhh", 
"hhhhm````````iebhhhhhhhh", 
"b###e``````````lgfhhhhhh", 
"m`````````````````kmhhhh", 
"m```````````````````iebh", 
"m`````````````````````kb", 
"m```````````````````g#hh", 
"m````````````````d.bhhhh", 
"b###.``````````achhhhhhh", 
"hhhhm````````g#hhhhhhhhh", 
"hhhhm`````d.bhhhhhhhhhhh", 
"hhhhm```achhhhhhhhhhhhhh", 
"hhhhmlg#hhhhhhhhhhhhhhhh", 
"hhhhffhhhhhhhhhhhhhhhhhh"};

static const char * empty_24x17_xpm[] = {
"24 17 3 1",
" 	c None",
".	c #FFFFFF",
"+	c #000000",
"........................",
"........................",
"........................",
"........................",
"........................",
"........................",
"........................",
"........................",
"........................",
"........................",
"........................",
"........................",
"........................",
"........................",
"........................",
"........................",
"........................"};
