/* XPM */
static char * Thinklabs_button_Filter_xpm[] = {
"64 42 205 2",
"  	c #00214D",
". 	c #13325A",
"+ 	c #8E9BAB",
"@ 	c #082852",
"# 	c #203C62",
"$ 	c #DEDFE1",
"% 	c #0D2C56",
"& 	c #1E3B61",
"* 	c #042450",
"= 	c #123059",
"- 	c #1A375E",
"; 	c #1B385F",
"> 	c #1B395F",
", 	c #334D6F",
"' 	c #14325B",
") 	c #1D3A61",
"! 	c #0C2B55",
"~ 	c #2C466A",
"{ 	c #708198",
"] 	c #A4AEBA",
"^ 	c #AEB6C0",
"/ 	c #A6AFBC",
"( 	c #A3ACB9",
"_ 	c #A2ACB9",
": 	c #939FAF",
"< 	c #A8B1BD",
"[ 	c #395273",
"} 	c #DFE0E1",
"| 	c #808FA2",
"1 	c #9CA7B5",
"2 	c #647790",
"3 	c #254166",
"4 	c #02234F",
"5 	c #304A6D",
"6 	c #C2C7CE",
"7 	c #244065",
"8 	c #1C3960",
"9 	c #ADB5C0",
"0 	c #677992",
"a 	c #4D6380",
"b 	c #94A0B0",
"c 	c #092953",
"d 	c #E0E1E2",
"e 	c #0E2D56",
"f 	c #123159",
"g 	c #74849A",
"h 	c #8996A8",
"i 	c #61748D",
"j 	c #062651",
"k 	c #909CAD",
"l 	c #01224E",
"m 	c #ACB4BF",
"n 	c #375072",
"o 	c #E1E2E2",
"p 	c #102F58",
"q 	c #929EAE",
"r 	c #8391A4",
"s 	c #B8BFC7",
"t 	c #15335B",
"u 	c #77869C",
"v 	c #0A2A54",
"w 	c #79899E",
"x 	c #5A6E89",
"y 	c #E2E2E3",
"z 	c #354E70",
"A 	c #C9CDD2",
"B 	c #5B6F8A",
"C 	c #475E7C",
"D 	c #99A4B3",
"E 	c #596D88",
"F 	c #0B2B55",
"G 	c #697B93",
"H 	c #385173",
"I 	c #284368",
"J 	c #9BA6B4",
"K 	c #19365E",
"L 	c #274367",
"M 	c #8997A8",
"N 	c #6A7C93",
"O 	c #AEB6C1",
"P 	c #808EA2",
"Q 	c #576B87",
"R 	c #445B7A",
"S 	c #415978",
"T 	c #405777",
"U 	c #3F5777",
"V 	c #E3E3E4",
"W 	c #C6CAD0",
"X 	c #4B617F",
"Y 	c #213D63",
"Z 	c #546985",
"` 	c #76869B",
" .	c #7E8DA1",
"..	c #8593A5",
"+.	c #8794A7",
"@.	c #18355D",
"#.	c #0F2E57",
"$.	c #17355C",
"%.	c #16345C",
"&.	c #E4E4E4",
"*.	c #E4E5E5",
"=.	c #2D486B",
"-.	c #1F3C62",
";.	c #072752",
">.	c #A1ABB8",
",.	c #DDDFE0",
"'.	c #DDDEE0",
").	c #556A86",
"!.	c #052550",
"~.	c #223E65",
"{.	c #2C476C",
"].	c #1B3860",
"^.	c #1E3B62",
"/.	c #2B466B",
"(.	c #0E2D57",
"_.	c #EBEEF2",
":.	c #FFFFFF",
"<.	c #6B7E98",
"[.	c #9CA9BA",
"}.	c #ADB8C6",
"|.	c #F9FAFB",
"1.	c #506785",
"2.	c #15335C",
"3.	c #9BA8B9",
"4.	c #F6F7F9",
"5.	c #F5F7F8",
"6.	c #E3E7EC",
"7.	c #5F748F",
"8.	c #99A6B8",
"9.	c #FBFCFD",
"0.	c #AAB5C4",
"a.	c #274368",
"b.	c #EEF1F4",
"c.	c #A3AFBF",
"d.	c #3C5577",
"e.	c #7E8FA5",
"f.	c #D3D9E0",
"g.	c #93A1B4",
"h.	c #3B5476",
"i.	c #DADFE6",
"j.	c #D2D8E0",
"k.	c #8191A7",
"l.	c #617591",
"m.	c #CFD6DE",
"n.	c #F6F8F9",
"o.	c #D3D9E1",
"p.	c #7A8BA2",
"q.	c #03234F",
"r.	c #7D8EA4",
"s.	c #6E819A",
"t.	c #9EABBC",
"u.	c #F1F3F6",
"v.	c #B9C2CE",
"w.	c #254167",
"x.	c #FCFDFD",
"y.	c #496080",
"z.	c #9FACBC",
"A.	c #788AA1",
"B.	c #FDFEFE",
"C.	c #F4F6F8",
"D.	c #9AA7B9",
"E.	c #EBEEF1",
"F.	c #FAFBFC",
"G.	c #A0ACBD",
"H.	c #FCFCFD",
"I.	c #112F59",
"J.	c #455D7D",
"K.	c #F3F5F7",
"L.	c #5B708D",
"M.	c #213D64",
"N.	c #FEFFFF",
"O.	c #2F4A6E",
"P.	c #6F829B",
"Q.	c #314B6F",
"R.	c #EFF2F4",
"S.	c #8494A9",
"T.	c #FBFBFC",
"U.	c #2E496D",
"V.	c #C2CAD5",
"W.	c #71839C",
"X.	c #E2E6EB",
"Y.	c #FAFAFC",
"Z.	c #FAFAFB",
"`.	c #6A7D97",
" +	c #909EB2",
".+	c #CCD3DC",
"++	c #F9FAFC",
"@+	c #586E8A",
"#+	c #445C7C",
"$+	c #BCC5D1",
"%+	c #354F72",
"&+	c #1A375F",
"*+	c #3D5678",
"=+	c #B6C0CC",
"-+	c #97A5B7",
";+	c #B0BAC8",
">+	c #D8DDE4",
",+	c #A6B2C1",
"'+	c #D0D6DF",
")+	c #AFBAC7",
"!+	c #E5E9ED",
"~+	c #ECEEF2",
"{+	c #A9B4C3",
"]+	c #95A3B5",
"^+	c #344E71",
"                                                                                                                                ",
"              . + @                                                                                                             ",
"              # $ %                                                                                                             ",
"              & $ %                                 * = - ; ; > > , '                                                           ",
"              ) $ !                           ~ { ] ^ / ( ( ( _ ( : < [                                                         ",
"              ) } !                       ; | 1 2 3 4               5 6 7                                                       ",
"              8 } %                     4 9 0 !                       a b c                                                     ",
"              > d e                   f ] g                             h i                                                     ",
"              > d e                 j k g l                             & m n                                                   ",
"              ; o e               p q r                                   [ s t                                                 ",
"              ; o e             - q u v                                     w x                                                 ",
"              - y e           z A B                                         C D E F                                             ",
"              - o e       v G _ H                                             I b J p                                           ",
"              K y %   l L q M ;                                                   N O P Q a R S T U T T U U ~                   ",
"              K V e   ; W X                                                       * Y Z `  ...+.h M h h h h G                   ",
"              @.y #.                                                                                                            ",
"              @.V #.                                                                                                            ",
"              $.V #.                                                                                                            ",
"              %.&.e                                                                                                             ",
"              t *.=.# # # -.-.& & & & & ) ) 8 8 8 8 > > ; ; ; ; ; - - - - K K K K K @.@.@.@.$.$.$.$.$.%.%.%.%.t t @             ",
"              ;.>.,.'.'.'.$ $ $ $ } } } } } d d d d o o o o o y y y y y y V V V V V V V &.&.&.&.&.&.&.*.*.*.*.*.*.).            ",
"                ;.% % % % % % % % % % % % % e e e e e e e e e e e e e e e e e e #.#.#.#.#.#.#.#.#.#.#.#.#.p p p p !.            ",
"                                                                                                                                ",
"                            ~.{.{.{.{.{.{.{.=   ].{.^.    /.{.(.                                                                ",
"                            _.:.:.:.:.:.:.:.<.  [.:.}.    |.:.1.    2.3.(.                                                      ",
"                            4.:.5.6.6.6.6.6.7.  8.9.0.    |.:.1.  a.b.:.p                                                       ",
"                            |.:.c.                        |.:.1.  d.:.:.p                                                       ",
"                            |.:.c.              e.f.g.    |.:.1.h.i.:.:.j.k.    l.m.n.o.p.q.    r.m.s.t.u.0.                    ",
"                            |.:.v.d.d.d.d.w.    [.:.x.;.  |.:.1.y.:.:.:.:.z.  A.:.B.j.C.:.c.    D.:.E.:.:.z.                    ",
"                            F.:.:.:.:.:.:.G.    [.:.H.I.  |.:.1.q.J.:.:.].;.2.K.:.L.  M.u.N.O.  D.:.:.P.Q.a.                    ",
"                            F.:.R.o.o.o.o.S.    [.:.T.    |.:.1.  d.:.:.p   y.:.9.U.{.{.V.:.W.  D.:.X.                          ",
"                            Y.:.c.              [.:.Z.    |.:.1.  d.:.:.p   `.:.:.:.:.:.:.:. +  D.:..+                          ",
"                            ++:.c.              [.:.|.    |.:.1.  d.:.:.p   @+:.n.#+#+#+#+#+/.  D.:.$+                          ",
"                            |.:.c.              [.:.F.    |.:.1.  %+:.:.&+  w.B.:.*+  % =+-+Q.  D.:.;+                          ",
"                            C.:.c.              [.:.T.    |.:.1.  M.:.:.>+D.  ,+:.u.[.'+:.b.%.  D.:.)+                          ",
"                            !+:.c.              [.:.~+    |.:.1.    {+:.:.=+  !.]+C.:.:.m.^+    D.:.)+                          ",
"                                                                      &+&+        q.w.&+l                                       ",
"                                                                                                                                ",
"                                                                                                                                ",
"                                                                                                                                ",
"                                                                                                                                ",
"                                                                                                                                "};
