/* XPM */
static const char  * ZoomOutDisabled[] = {
"27 27 108 2",
"  	c None",
". 	c #FFFFFF",
"+ 	c #F5F5F5",
"@ 	c #EDEDED",
"# 	c #E4E4E4",
"$ 	c #E8E9E8",
"% 	c #F3F3F3",
"& 	c #DBDBD9",
"* 	c #B0B0B3",
"= 	c #ADB1B7",
"- 	c #999AA0",
"; 	c #A2A8AF",
"> 	c #B1B4B6",
", 	c #CDCDCB",
"' 	c #F5F3F4",
") 	c #999999",
"! 	c #B9C3CC",
"~ 	c #E0E4EA",
"{ 	c #EFF4F9",
"] 	c #E2EAF3",
"^ 	c #BFCAD7",
"/ 	c #9DA2A4",
"( 	c #D3D3D1",
"_ 	c #C0BFBF",
": 	c #B8BFC8",
"< 	c #F1F3F7",
"[ 	c #F9FBFE",
"} 	c #D6E2ED",
"| 	c #C5CFDD",
"1 	c #AFB1B3",
"2 	c #F6F5F5",
"3 	c #9F9F9E",
"4 	c #D3D9E3",
"5 	c #FDFEFF",
"6 	c #F0F3F9",
"7 	c #DCE3EE",
"8 	c #CBD8E3",
"9 	c #D6E3EF",
"0 	c #9A9DA1",
"a 	c #EBEBE9",
"b 	c #D3DBE4",
"c 	c #F3F6FB",
"d 	c #DBE4EF",
"e 	c #CDD7E3",
"f 	c #CDD7E5",
"g 	c #DEE8F2",
"h 	c #E3E3E1",
"i 	c #B0B0AF",
"j 	c #BBC4CF",
"k 	c #DFE6EF",
"l 	c #DBE3EC",
"m 	c #CAD5E3",
"n 	c #CFD8E3",
"o 	c #DEE6EF",
"p 	c #D3DFE9",
"q 	c #ABAEB1",
"r 	c #E7E5E6",
"s 	c #D9D8D7",
"t 	c #9DA2A6",
"u 	c #C4D0DB",
"v 	c #CFD8E4",
"w 	c #D5DDE7",
"x 	c #DFE9F0",
"y 	c #E5ECF4",
"z 	c #ACB5BE",
"A 	c #B7B6B6",
"B 	c #EEEDED",
"C 	c #EEEDEE",
"D 	c #BBBABB",
"E 	c #A3A7AA",
"F 	c #BBC3CC",
"G 	c #BEC8D3",
"H 	c #C0CBD6",
"I 	c #ADB3BA",
"J 	c #9A9C99",
"K 	c #D5D4D4",
"L 	c #BDBDBD",
"M 	c #A4A3A4",
"N 	c #B8B9B7",
"O 	c #CFCDCD",
"P 	c #B9B8B6",
"Q 	c #A3A19F",
"R 	c #ABAAA7",
"S 	c #CDCCCA",
"T 	c #E6E4E5",
"U 	c #F5F4F5",
"V 	c #B7B8B7",
"W 	c #D3D3D3",
"X 	c #C3C3C3",
"Y 	c #E1E1E1",
"Z 	c #E8E7E8",
"` 	c #F8F6F8",
" .	c #F2F1F2",
"..	c #F1F1F1",
"+.	c #FBFBFB",
"@.	c #B9B7B9",
"#.	c #D1D2D1",
"$.	c #B3B4B3",
"%.	c #B6B7B6",
"&.	c #ECEDEC",
"*.	c #EAEAEA",
"=.	c #A8A7A8",
"-.	c #B8B9B8",
";.	c #E7E7E7",
">.	c #C9C9C9",
",.	c #BCBCBC",
"'.	c #F0F0F0",
").	c #F89A9A",
". . . . . . . . . . . . . . . . . . . . . . . . . . . ",
". . . . . . . . . . . . . . . . . . . . . . . . . . . ",
". . . . . . . . . + @ # $ % . . . . . . . . . . . . . ",
". . . . . . . . & * = - ; > , . . . . . . . . . . . . ",
". . . . . . . ' ) ! ~ { ] ^ / ( . . . . . . . . . . . ",
". . . . . . . _ : < . . [ } | 1 2 . . . . . . . . . . ",
". . . . . . . 3 4 . 5 6 7 8 9 0 a . . . . . . . . . . ",
". . . . . . . ) b . c d e f g ) h . . . . . . . . . . ",
". . . . . . . i j k l m n o p q r . . . . . . . . . . ",
". . . . . . . s t u v w x y z A B . . . . . . . . . . ",
". . . . . . C D ) E F G H I J K . . . . . . . . . . . ",
". . . . . L M ) N O P Q R S T U . . . . . . . . . . . ",
". . . . V W X ) Y Z . `  .... . . . . . . . . . . . . ",
". . +.@.#.$.) %.&.. . . . . . . . . . . . . . . . . . ",
". . *.=.-.) D ;.. . . . . . . . . . . . . . . . . . . ",
". . . >.) ,.# . . . . . . . . . . . . . . . . . . . . ",
". . . .  .'.. . . . . . . . . . . . . . . . . . . . . ",
". . . . . . . . . . . . . ).).).).).).).).).).. . . . ",
". . . . . . . . . . . . . ).).).).).).).).).).. . . . ",
". . . . . . . . . . . . . . . . . . . . . . . . . . . ",
". . . . . . . . . . . . . . . . . . . . . . . . . . . ",
". . . . . . . . . . . . . . . . . . . . . . . . . . . ",
". . . . . . . . . . . . . . . . . . . . . . . . . . . ",
". . . . . . . . . . . . . . . . . . . . . . . . . . . ",
". . . . . . . . . . . . . . . . . . . . . . . . . . . ",
". . . . . . . . . . . . . . . . . . . . . . . . . . . ",
". . . . . . . . . . . . . . . . . . . . . . . . . . . "};
