/* XPM */
static char * Thinklabs_button_Import_over_xpm[] = {
"64 42 328 2",
"  	c #0C5FCC",
". 	c #2670D3",
"+ 	c #6C9EE3",
"@ 	c #D3E4F8",
"# 	c #E7EFFB",
"$ 	c #E8F0FC",
"% 	c #CADDF5",
"& 	c #91B7EA",
"* 	c #508CDC",
"= 	c #6097E0",
"- 	c #FBFDFF",
"; 	c #FFFFFF",
"> 	c #ECF3FE",
", 	c #ABC8F0",
"' 	c #4485D9",
") 	c #2570CC",
"! 	c #236FCC",
"~ 	c #0D60CC",
"{ 	c #D2E2F7",
"] 	c #E8F1FD",
"^ 	c #B4CEF2",
"/ 	c #A5C3EE",
"( 	c #97BBEB",
"_ 	c #C3D8F4",
": 	c #E5EEFB",
"< 	c #EDF4FE",
"[ 	c #F8FBFF",
"} 	c #F3F8FF",
"| 	c #BBD2F2",
"1 	c #246FD2",
"2 	c #1968CC",
"3 	c #2C74CC",
"4 	c #226ECC",
"5 	c #2771CC",
"6 	c #347ACC",
"7 	c #5891CC",
"8 	c #97BACC",
"9 	c #C8DBCC",
"0 	c #E7EFCC",
"a 	c #FBFDCC",
"b 	c #72A3CC",
"c 	c #0F61CC",
"d 	c #4E8ADB",
"e 	c #E6EFFC",
"f 	c #2872D4",
"g 	c #1465CC",
"h 	c #1968CF",
"i 	c #377BD5",
"j 	c #DAE7F8",
"k 	c #FEFFFF",
"l 	c #FCFEFF",
"m 	c #F2F7FD",
"n 	c #3279D6",
"o 	c #3E80CC",
"p 	c #7DAACC",
"q 	c #AFCBCC",
"r 	c #DDE9CC",
"s 	c #F9FBCC",
"t 	c #FFFFCC",
"u 	c #E4EDCC",
"v 	c #B8D1CC",
"w 	c #DFEACC",
"x 	c #F7FACC",
"y 	c #F5F9C7",
"z 	c #E0EBB7",
"A 	c #C7DAB6",
"B 	c #D0E1B1",
"C 	c #3279CC",
"D 	c #1D6CCE",
"E 	c #3D80D1",
"F 	c #4887CC",
"G 	c #8CB3CC",
"H 	c #7FABCC",
"I 	c #0D60CD",
"J 	c #5E96DF",
"K 	c #357AD6",
"L 	c #4987CC",
"M 	c #FEFFCC",
"N 	c #FAFDC4",
"O 	c #F3F7B1",
"P 	c #CCDE98",
"Q 	c #C9DC87",
"R 	c #D4E37C",
"S 	c #ECF36F",
"T 	c #FBFD68",
"U 	c #FFFF66",
"V 	c #C5DA86",
"W 	c #CBDECC",
"X 	c #BAD2CC",
"Y 	c #F1F6CC",
"Z 	c #4B89DA",
"` 	c #FCFDFF",
" .	c #1D6BD1",
"..	c #6599DF",
"+.	c #88B1E7",
"@.	c #1E6BCC",
"#.	c #F8FACC",
"$.	c #EAF2CC",
"%.	c #F2F7C2",
"&.	c #EFF5A3",
"*.	c #DDE98C",
"=.	c #E5EE7B",
"-.	c #F2F76F",
";.	c #F7FA6A",
">.	c #F9FC69",
",.	c #FEFE67",
"'.	c #FAFC68",
").	c #F4F86B",
"!.	c #E3ED75",
"~.	c #CEDF8A",
"{.	c #CEDFA2",
"].	c #EAF2C7",
"^.	c #F8FBCC",
"/.	c #FAFCCC",
"(.	c #BED4CC",
"_.	c #3178D5",
":.	c #F4F8FE",
"<.	c #F5F8FF",
"[.	c #F7FAFE",
"}.	c #D2E1CC",
"|.	c #E2ECCC",
"1.	c #F6FBCC",
"2.	c #D6E487",
"3.	c #ECF36E",
"4.	c #F8FA69",
"5.	c #EDF36E",
"6.	c #D1E17B",
"7.	c #B2CD8E",
"8.	c #A6C5A5",
"9.	c #AECBBD",
"0.	c #E0ECC7",
"a.	c #FBFCCC",
"b.	c #5B93CC",
"c.	c #2F76D4",
"d.	c #E9F1FD",
"e.	c #5992CC",
"f.	c #F4F86E",
"g.	c #D8E676",
"h.	c #3F82BB",
"i.	c #C5DACC",
"j.	c #FEFECC",
"k.	c #FDFDCC",
"l.	c #FDFECC",
"m.	c #FCFDCC",
"n.	c #1B69CC",
"o.	c #0F61CD",
"p.	c #2670CC",
"q.	c #F9FB71",
"r.	c #CEDF7B",
"s.	c #D2E2CC",
"t.	c #EFF5CC",
"u.	c #F5F9CC",
"v.	c #A8C5CC",
"w.	c #1566CE",
"x.	c #3078D5",
"y.	c #629AE1",
"z.	c #FDFEFF",
"A.	c #D1E1CC",
"B.	c #F5F97A",
"C.	c #E4EE73",
"D.	c #DDE8CC",
"E.	c #397DCC",
"F.	c #E8F0FB",
"G.	c #EFF5FD",
"H.	c #1163CE",
"I.	c #508BCC",
"J.	c #F7FA84",
"K.	c #F0F56E",
"L.	c #F3F8CC",
"M.	c #EEF4CC",
"N.	c #548FDC",
"O.	c #72A3E3",
"P.	c #6A9EE1",
"Q.	c #659AE0",
"R.	c #4082D9",
"S.	c #1365CF",
"T.	c #EEF4A3",
"U.	c #EAF171",
"V.	c #FDFFCC",
"W.	c #97BBCC",
"X.	c #C0D6CC",
"Y.	c #EAF2C1",
"Z.	c #ADCAA1",
"`.	c #F5F8CC",
" +	c #216ECC",
".+	c #4685CC",
"++	c #A9C7CC",
"@+	c #F1F7CC",
"#+	c #F6F9CC",
"$+	c #D4E3CC",
"%+	c #90B7CC",
"&+	c #1566CC",
"*+	c #E7F0CC",
"=+	c #E4EECC",
"-+	c #D0E1CC",
";+	c #F3F7CC",
">+	c #75A4CC",
",+	c #3278CC",
"'+	c #BCD3CC",
")+	c #E2EDCC",
"!+	c #B8D0CC",
"~+	c #5A93CC",
"{+	c #2B74CC",
"]+	c #397CCC",
"^+	c #DBE8CC",
"/+	c #9FC0CC",
"(+	c #2470CC",
"_+	c #3077D4",
":+	c #367BD5",
"<+	c #236ED1",
"[+	c #1465CE",
"}+	c #F0F6FC",
"|+	c #93B8E9",
"1+	c #226DD1",
"2+	c #A2C2EC",
"3+	c #FAFCFE",
"4+	c #357AD5",
"5+	c #F1F6FC",
"6+	c #1565CE",
"7+	c #4B88DA",
"8+	c #F9FCFE",
"9+	c #4D8ADA",
"0+	c #D2E1F6",
"a+	c #A7C6ED",
"b+	c #4786D9",
"c+	c #CBDDF4",
"d+	c #F5F9FD",
"e+	c #C8DBF4",
"f+	c #3379D5",
"g+	c #C1D7F2",
"h+	c #F4F8FD",
"i+	c #CEDFF5",
"j+	c #538EDB",
"k+	c #528DDB",
"l+	c #A7C5ED",
"m+	c #4987D9",
"n+	c #C6DAF3",
"o+	c #679BE0",
"p+	c #D0E0F5",
"q+	c #F9FBFE",
"r+	c #E7EFFA",
"s+	c #B2CCEF",
"t+	c #CCDDF5",
"u+	c #4C89DA",
"v+	c #D5E4F7",
"w+	c #E9F0FB",
"x+	c #A6C4ED",
"y+	c #DEE9F8",
"z+	c #D3E3F6",
"A+	c #84AEE6",
"B+	c #5C94DD",
"C+	c #F0F5FC",
"D+	c #DCE8F8",
"E+	c #EFF5FC",
"F+	c #EAF2FB",
"G+	c #2972D3",
"H+	c #6398DF",
"I+	c #EDF3FC",
"J+	c #FAFCFF",
"K+	c #F5F8FE",
"L+	c #4182D8",
"M+	c #8CB3E7",
"N+	c #F6F9FD",
"O+	c #4283D8",
"P+	c #ECF3FB",
"Q+	c #9ABDEA",
"R+	c #A0C1EB",
"S+	c #79A7E3",
"T+	c #518DDB",
"U+	c #B6CFF0",
"V+	c #2671D2",
"W+	c #5791DC",
"X+	c #D8E5F7",
"Y+	c #6A9DE1",
"Z+	c #E3ECFA",
"`+	c #BFD5F2",
" @	c #3278D4",
".@	c #FEFEFF",
"+@	c #8BB3E7",
"@@	c #0E61CD",
"#@	c #1C6AD0",
"$@	c #D7E5F7",
"%@	c #E9F1FB",
"&@	c #3D80D7",
"*@	c #1263CE",
"=@	c #216DD1",
"-@	c #F8FBFE",
";@	c #2D75D3",
">@	c #5E95DE",
",@	c #70A1E1",
"'@	c #1766CF",
")@	c #6D9FE2",
"!@	c #F5F9FE",
"~@	c #80ACE5",
"{@	c #4585D8",
"]@	c #E0EBF9",
"^@	c #73A3E2",
"/@	c #1B69D0",
"(@	c #1A68CF",
"_@	c #77A5E3",
":@	c #3E80D7",
"<@	c #5F96DE",
"[@	c #87B0E6",
"}@	c #1666CF",
"|@	c #9CBEEB",
"1@	c #B9D1F1",
"2@	c #4887D9",
"3@	c #6499DF",
"4@	c #E6EEFA",
"5@	c #1062CD",
"6@	c #4484D8",
"7@	c #206CD1",
"8@	c #E6EFFA",
"9@	c #5A92DD",
"0@	c #B7D0F0",
"a@	c #5B93DD",
"b@	c #3177D4",
"c@	c #D9E6F7",
"d@	c #9BBDEA",
"e@	c #EEF4FC",
"f@	c #76A5E3",
"g@	c #F6F9FE",
"h@	c #6D9FE1",
"i@	c #92B8E9",
"j@	c #DFEAF9",
"k@	c #508CDB",
"l@	c #B3CDEF",
"m@	c #2B74D3",
"                                                                                                                                ",
"                                                                                                                                ",
"                                                                                                                                ",
"                                                                    . + @ # $ % & *                                             ",
"                                                                = - ; ; ; ; ; ; ; ; ; > , '                                     ",
"                                                  ) ! ~       { ; ; ] ^ / ( _ : < [ ; ; ; } | 1                                 ",
"                          2 2 3 4 2 2 ) 5 6 7 8 9 0 a b c   d ; e f g               h i j k l m n                               ",
"                    o p q r s t u v w x t t t y z A B t C 2 D E F G H c                 I J - ; - K                             ",
"                  L M t t t t t t N O P Q R S T U U V t W X Y t t a t )                     Z ` ; `  .I ..+.                    ",
"                @.#.t $.%.&.*.=.-.;.>.,.'.).!.~.{.].t M t ^.^.^./.t (.2                       _.:.; <._.[.` h                   ",
"                  }.|.1.2.3.4.5.6.7.8.9.0.t t t t a.x /.t t M t t M b.                          c.m ; d.k k h                   ",
"                  e.t Y f.g.h.i.j.k.x t l.l.m.l.t t t t t t t t /.a.n.                            o.` ; ; l h                   ",
"                  p.l.a q.r.s.t t.u.j.t t t t t t t t t t t t t t v.                            w.x.y.k ; z.h                   ",
"                    A.t B.C.t D.l.t t t t t M M t t t t t t t l.t E.                            F.; ; ; ; G.H.                  ",
"                    I.t J.K.t L.t t t t t t t t t t t t M j.t M.$.)                             N.O.P.Q.R.S.                    ",
"                    ) m.T.U.t x t t t M t t t t t t l.t a t t V.W.                                                              ",
"                      X.Y.Z.j.`.t t t t t M t t t t j.^.s t t x  +                                                              ",
"                      .+t ++u.@+t t #+s m.m.M #+@+M t /.$+%+o &+                                                                ",
"                      ) ^.*+=+-+/./.M.M.u.t t ;+9 >+,+) 2                                                                       ",
"                        '+M )+A.u.t t 0 !+~+{+)                                                                                 ",
"                        ]+M M ^+/+.+5 )                                                                                         ",
"                          2 (+)                                                                                                 ",
"                                                                                                                                ",
"            _+:+<+                                                                                                              ",
"          [+}+; |+                                                                                        1+2+[+                ",
"          h 3+; |+                                                                                      4+5+; 6+                ",
"          h 3+; |+                                                                                      7+; ; 6+                ",
"          h 8+; |+  9+0+a+b+c+d+e+4+f+g+h+i+j+    k+0+l+m+n+d+i+m+        o+p+q+r+s+c.      t+0+u+v+w+x+y+; ; z+A+              ",
"          h q+; |+  B+; C+3+D+d+; w+E+r+F+; d+G+  H+; I+J+K+- ; z.L+    M+; ; d+` ; N+O+    q+; P+; ; Q+; ; ; ; R+              ",
"          h q+; |+  B+; ; S+  T+; ; U+I V+; ; W+  H+; ; X+Y+T+Z+; `+   @.@; +@@@#@g+; $@@@  q+; %@&@j+*@j+; ; =@*@              ",
"          h -@; |+  B+; ; 1+  ;@; ; >@    C+; ,@  H+; ; '@    )@; !@  ~@; w+o.    &@; ; _+  q+; M+      7+; ; 6+                ",
"          h -@; |+  B+; ` I   1+; ; {@    ]@; ^@  H+; C+      u+; ; /@Q+; e+      (@; ; k+  q+; _@      7+; ; 6+                ",
"          h [.; |+  B+; [.    =@; ; :@    ]@; ^@  H+; ; '@    <@; [ I [@; ]@       @; ; 4+  q+; o+      7+; ; }@                ",
"          h [.; |+  B+; [.    =@; ; :@    ]@; ^@  H+; ; |@  I 1@; 0+  2@; ; 3@  I l+; 4@5@  q+; B+      6@; ; 7@                ",
"          h [.; |+  B+; [.    =@; ; :@    ]@; ^@  H+; ; ; 8@F+; ; 9@  I 0@; .@c+D+; ; W+    q+; a@      b@; ; c@d@              ",
"          [+e@; |+  B+; [.    =@; ; :@    ]@; ^@  H+; E+f@-@; g@h@      [+i@m ; ; j@k@      q+; a@        l@; ; U+              ",
"                                                  H+; E+  5@c.o.            *@b@7@                          V+1                 ",
"                                                  H+; E+                                                                        ",
"                                                  H+; E+                                                                        ",
"                                                  m@3@>@                                                                        ",
"                                                                                                                                ",
"                                                                                                                                "};
