/* XPM */
static char * Thinklabs_button_Import_dis_xpm[] = {
"64 42 129 2",
"  	c #DCDCDC",
". 	c #E0E0DB",
"+ 	c #DDDDDC",
"@ 	c #DEDEDB",
"# 	c #E1E1DA",
"$ 	c #E0E0DC",
"% 	c #E1E1DB",
"& 	c #E3E3DA",
"* 	c #E8E8D7",
"= 	c #F0F0D4",
"- 	c #F8F8D0",
"; 	c #FDFDCE",
"> 	c #FFFFCD",
", 	c #ECECD6",
"' 	c #DEDEDC",
") 	c #E4E4D9",
"! 	c #EDEDD5",
"~ 	c #F4F4D2",
"{ 	c #FBFBCF",
"] 	c #FFFFCC",
"^ 	c #FCFCCE",
"/ 	c #F5F5D1",
"( 	c #FEFECD",
"_ 	c #FFFFC8",
": 	c #FCFCB9",
"< 	c #F8F8BA",
"[ 	c #FAFAB4",
"} 	c #E2E2DB",
"| 	c #E5E5D9",
"1 	c #EFEFD4",
"2 	c #E6E6D9",
"3 	c #FEFEC6",
"4 	c #F9F99C",
"5 	c #F8F88B",
"6 	c #FAFA7F",
"7 	c #FDFD70",
"8 	c #FFFF68",
"9 	c #FFFF66",
"0 	c #F8F8D1",
"a 	c #F6F6D1",
"b 	c #DFDFDB",
"c 	c #F7F7C7",
"d 	c #F6F6A8",
"e 	c #F7F791",
"f 	c #FAFA7E",
"g 	c #FEFE6B",
"h 	c #FFFF69",
"i 	c #FFFF67",
"j 	c #FEFE6C",
"k 	c #FCFC77",
"l 	c #F9F98E",
"m 	c #F8F8A5",
"n 	c #FDFDC9",
"o 	c #FBFBCE",
"p 	c #FAFACF",
"q 	c #F5F58C",
"r 	c #FDFD6F",
"s 	c #FEFE6A",
"t 	c #F9F97E",
"u 	c #F4F494",
"v 	c #F3F3AB",
"w 	c #F5F5C3",
"x 	c #FCFCCA",
"y 	c #E9E9D8",
"z 	c #E8E8D8",
"A 	c #E2E2DA",
"B 	c #FAFA79",
"C 	c #E5E5C9",
"D 	c #FDFDCD",
"E 	c #EEEED5",
"F 	c #FCFC73",
"G 	c #F8F87F",
"H 	c #FAFAD0",
"I 	c #F0F0D3",
"J 	c #F2F2D2",
"K 	c #F4F4D3",
"L 	c #FAFA7C",
"M 	c #FCFC75",
"N 	c #EFEFD5",
"O 	c #F2F2D3",
"P 	c #E3E3D9",
"Q 	c #E6E6D8",
"R 	c #F7F788",
"S 	c #F7F7D0",
"T 	c #F9F9CF",
"U 	c #F7F7A7",
"V 	c #FDFD73",
"W 	c #F1F1D4",
"X 	c #F7F7D1",
"Y 	c #FDFDC2",
"Z 	c #F4F4A8",
"` 	c #FCFCCF",
" .	c #F9F9D0",
"..	c #E4E4DB",
"+.	c #E0E0DA",
"@.	c #E2E2E2",
"#.	c #E0E0E0",
"$.	c #FBFBFB",
"%.	c #FFFFFF",
"&.	c #F0F0F0",
"*.	c #F2F2F2",
"=.	c #DEDEDE",
"-.	c #FDFDFD",
";.	c #E5E5E5",
">.	c #E6E6E6",
",.	c #F9F9F9",
"'.	c #F3F3F3",
").	c #F8F8F8",
"!.	c #FEFEFE",
"~.	c #F7F7F7",
"{.	c #E7E7E7",
"].	c #EAEAEA",
"^.	c #FCFCFC",
"/.	c #F4F4F4",
"(.	c #E1E1E1",
"_.	c #EEEEEE",
":.	c #E8E8E8",
"<.	c #FAFAFA",
"[.	c #E9E9E9",
"}.	c #E4E4E4",
"|.	c #EFEFEF",
"1.	c #F1F1F1",
"2.	c #ECECEC",
"3.	c #F5F5F5",
"4.	c #DDDDDD",
"5.	c #F6F6F6",
"6.	c #DFDFDF",
"7.	c #EBEBEB",
"8.	c #EDEDED",
"                                                                                                                                ",
"                                                                                                                                ",
"                                                                                                                                ",
"                                                                                                                                ",
"                                                                                                                                ",
"                                                  . . +                                                                         ",
"                          @ @ # $ @ @ . % & * = - ; > , +           '                                                           ",
"                    ) ! ~ { > ] ^ / { ( ] ] ] _ : < [ ] } @ @ % | 1 ! +                                                         ",
"                  2 > ] ] ] ] ] ] 3 [ 4 5 6 7 8 9 9 5 ] 0 a ( ] ] > ] .                                                         ",
"                b > ] ; c d e f 7 g h i h j k l m n ] ] ] > o p p ] a @                                                         ",
"                  p { } q r s r t u v w x ] > ] ] ( { p ^ > > ] ] > y                                                           ",
"                  z ] A 7 B C 0 > > ( ] > ( { - p D > ] ] ] > ( ( > b                                                           ",
"                  . > E F G H ] p / ^ ^ ^ ( ( > > ( o ; I J - D > K                                                             ",
"                    - o L M ] N ~ > > > ( ; a O a o > D ^ { ] ( ] P                                                             ",
"                    Q ] R r ] S > > p a S o ( ( ^ D ] ] D T I ^ ; .                                                             ",
"                    . > U V ] T ( J a ^ ( ( ^ a o > ( D ^ T ^ > W                                                               ",
"                      X Y Z ] T ( S ( > p - p ( > o > ; ; > ] ( .                                                               ",
"                      | ] K ( - o S S p ^ ( > ; ; > ] > T = ) '                                                                 ",
"                      . > ; ^ I ; ; ^ ; ( ] ] ( - , A . @                                                                       ",
"                        a > `  .> ] ] ^ / z A .                                                                                 ",
"                        ..> > { O | +..                                                                                         ",
"                          @ . .                                                                                                 ",
"                                                                                                                                ",
"            @.@.#.                                                                                                              ",
"            $.%.&.                                                                                        #.*.=.                ",
"            $.%.&.                                                                                      @.-.%.=.                ",
"            $.%.&.                                                                                      ;.%.%.=.                ",
"            $.%.&.  >.,.'.;.).!.).@.@.~.!.).{.    {.,.'.;.~.!.).;.        ].,.%.^./.(.      ).,.>.,.^.'.$.%.%.,._.              ",
"            $.%.&.  :.%.-.%.<.!.%.^.-.^.^.%.!.(.  [.%.-.!.^.!.%.%.}.    |.%.%.!.%.%.!.}.    %.%.-.%.%.1.%.%.%.%.*.              ",
"            $.%.&.  :.%.%.2.  >.%.%.3.4.#.%.%.{.  [.%.%.&.4.=.,.%.5.  @.%.%.|.4.6.~.%.<.4.  %.%.^.}.{.4.{.%.%.6.4.              ",
"            $.%.&.  :.%.%.#.  (.%.%.:.    -.%.7.  [.%.%.=.    ].%.!.  8.%.^.4.    }.%.%.@.  %.%.|.      ;.%.%.=.                ",
"            $.%.&.  :.%.%.4.  #.%.%.;.    $.%.7.  [.%.-.      >.%.%.6.1.%.).      =.%.%.{.  %.%.2.      ;.%.%.=.                ",
"            $.%.&.  :.%.!.    6.%.%.}.    $.%.7.  [.%.%.=.    :.%.!.4._.%.$.      @.%.%.@.  %.%.].      ;.%.%.=.                ",
"            $.%.&.  :.%.!.    6.%.%.}.    $.%.7.  [.%.%.8.  4.3.%.).  ;.%.%.[.  4.'.%.^.4.  %.%.:.      }.%.%.6.                ",
"            $.%.&.  :.%.!.    6.%.%.}.    $.%.7.  [.%.%.%.~.,.%.%.{.  4.3.%.%.).<.%.%.{.    %.%.:.      @.%.%.<.1.              ",
"            $.%.&.  :.%.!.    6.%.%.}.    $.%.7.  [.%.-.[.!.%.!.].      =.&.!.%.%.$.>.      %.%.:.        /.%.%.3.              ",
"                                                  [.%.-.  4.(.4.            4.@.6.                          #.#.                ",
"                                                  [.%.-.                                                                        ",
"                                                  [.%.-.                                                                        ",
"                                                  (.[.:.                                                                        ",
"                                                                                                                                ",
"                                                                                                                                "};
