/* XPM */
static char * Lock[] = {
"16 16 108 2",
"  	c None",
". 	c #000000",
"+ 	c #0B0707",
"@ 	c #462F2F",
"# 	c #6B4848",
"$ 	c #6F4B4B",
"% 	c #563A3A",
"& 	c #221717",
"* 	c #0B0808",
"= 	c #805656",
"- 	c #E29A9A",
"; 	c #E69C9C",
"> 	c #DC9696",
", 	c #D79292",
"' 	c #D38F8F",
") 	c #CF8D8D",
"! 	c #9B6969",
"~ 	c #2B1E1E",
"{ 	c #1B1212",
"] 	c #D18E8E",
"^ 	c #E89E9E",
"/ 	c #D59191",
"( 	c #C98989",
"_ 	c #CC8A8A",
": 	c #CA8888",
"< 	c #C48585",
"[ 	c #BC8080",
"} 	c #503636",
"| 	c #E49B9B",
"1 	c #CB8A8A",
"2 	c #C18383",
"3 	c #875B5B",
"4 	c #533737",
"5 	c #4D3333",
"6 	c #7A5252",
"7 	c #B57B7B",
"8 	c #BE8282",
"9 	c #BD8080",
"0 	c #B07777",
"a 	c #3E2A2A",
"b 	c #E99E9E",
"c 	c #BF8282",
"d 	c #8E6060",
"e 	c #704C4C",
"f 	c #B47B7B",
"g 	c #BD8181",
"h 	c #B67C7C",
"i 	c #926363",
"j 	c #0C0808",
"k 	c #C08383",
"l 	c #A06D6D",
"m 	c #7D5656",
"n 	c #AA7474",
"o 	c #BA7E7E",
"p 	c #A36F6F",
"q 	c #432D2D",
"r 	c #E49A9A",
"s 	c #DD9595",
"t 	c #D59090",
"u 	c #AF7676",
"v 	c #8B5E5E",
"w 	c #AB7474",
"x 	c #6A4848",
"y 	c #E09898",
"z 	c #C58686",
"A 	c #BE8181",
"B 	c #AE7676",
"C 	c #7B5454",
"D 	c #DC9595",
"E 	c #C38585",
"F 	c #AD7676",
"G 	c #7A5353",
"H 	c #553A3A",
"I 	c #DB9494",
"J 	c #B77C7C",
"K 	c #6C4A4A",
"L 	c #D99393",
"M 	c #BA7F7F",
"N 	c #A67070",
"O 	c #573A3A",
"P 	c #D69191",
"Q 	c #B87E7E",
"R 	c #AD7575",
"S 	c #332323",
"T 	c #CF8C8C",
"U 	c #B97E7E",
"V 	c #AF7777",
"W 	c #2B1D1D",
"X 	c #030202",
"Y 	c #C18282",
"Z 	c #B17979",
"` 	c #BB7F7F",
" .	c #B07878",
"..	c #946464",
"+.	c #493131",
"@.	c #A16D6D",
"#.	c #9D6A6A",
"$.	c #A06C6C",
"%.	c #AA7373",
"&.	c #A97272",
"*.	c #AC7474",
"=.	c #A87272",
"-.	c #9C6A6A",
";.	c #9B6868",
">.	c #110B0B",
",.	c #322121",
"'.	c #090606",
").	c #2F2020",
". . . . . + @ # $ % & . . . . . ",
". . . * = - ; > , ' ) ! ~ . . . ",
". . { ] ^ / ( _ : < < < [ } . . ",
". * ] | 1 2 3 4 5 6 7 8 9 0 a . ",
". = b 1 c d . . . . e f g h i j ",
"+ - / k l . . . . . . m n o p q ",
"@ r s t u . . . . . . v [ [ w x ",
"# y z A A A A A A A A A A [ B C ",
"$ D E A A A A A A A A A A [ F G ",
"H I E A A A A A A A A A g [ J K ",
"& L < A A A A A A A A A g M N O ",
". P < 8 g g A A A A A g [ Q R S ",
". T A g g g g A A g g 9 U V w W ",
"X Y Z J ` [ [ [ [ ` U  .Z V ..+.",
". @.#.$.%.&.*.u F =.-...@.%.;.>.",
". . . ,.. . . . . . . . j '.).. "};
