/* XPM */
static char * Thinklabs_button_Amplify_xpm[] = {
"64 42 187 2",
"  	c #00214D",
". 	c #6C7F99",
"+ 	c #7889A1",
"@ 	c #15335C",
"# 	c #DFE3E9",
"$ 	c #EBEEF2",
"% 	c #13315A",
"& 	c #0F2E57",
"* 	c #D4DAE1",
"= 	c #FBFBFC",
"- 	c #FDFEFE",
"; 	c #A7B3C2",
"> 	c #0E2D57",
", 	c #8292A8",
"' 	c #EDEFF3",
") 	c #FFFFFF",
"! 	c #FAFBFC",
"~ 	c #425A7B",
"{ 	c #2C476C",
"] 	c #F9FAFB",
"^ 	c #FCFCFD",
"/ 	c #DDE1E7",
"( 	c #D0D6DE",
"_ 	c #F3F5F7",
": 	c #FCFDFD",
"< 	c #FDFEFF",
"[ 	c #F4F6F8",
"} 	c #73859D",
"| 	c #7F90A6",
"1 	c #EAEDF1",
"2 	c #FBFCFC",
"3 	c #18365E",
"4 	c #2B466B",
"5 	c #FEFEFF",
"6 	c #A1ADBE",
"7 	c #CBD2DB",
"8 	c #ECEFF2",
"9 	c #304B6E",
"0 	c #7D8EA4",
"a 	c #EAECF0",
"b 	c #FCFDFE",
"c 	c #CFD5DD",
"d 	c #284469",
"e 	c #FBFBFD",
"f 	c #FDFDFD",
"g 	c #657994",
"h 	c #C9D0D9",
"i 	c #ECEEF2",
"j 	c #FDFFFF",
"k 	c #F7F8FA",
"l 	c #123059",
"m 	c #8191A7",
"n 	c #E8EBEF",
"o 	c #FBFCFD",
"p 	c #98A6B8",
"q 	c #17355D",
"r 	c #E7EAEE",
"s 	c #FDFDFE",
"t 	c #FEFEFE",
"u 	c #E9ECF0",
"v 	c #14325B",
"w 	c #1E3B62",
"x 	c #1D3A61",
"y 	c #1C3960",
"z 	c #1B3860",
"A 	c #1A375F",
"B 	c #19365E",
"C 	c #112F59",
"D 	c #092853",
"E 	c #254167",
"F 	c #0A2954",
"G 	c #03234F",
"H 	c #042450",
"I 	c #344E71",
"J 	c #576D8A",
"K 	c #324C70",
"L 	c #052550",
"M 	c #9EABBC",
"N 	c #71839C",
"O 	c #D6DCE3",
"P 	c #375173",
"Q 	c #BAC3CF",
"R 	c #203D63",
"S 	c #0C2B55",
"T 	c #D5DBE2",
"U 	c #102F58",
"V 	c #93A1B4",
"W 	c #798AA2",
"X 	c #01224E",
"Y 	c #617591",
"Z 	c #F5F7F8",
"` 	c #3A5375",
" .	c #4F6684",
"..	c #C2CAD5",
"+.	c #95A3B5",
"@.	c #D1D7DF",
"#.	c #C8CFD9",
"$.	c #CFD6DE",
"%.	c #2F4A6E",
"&.	c #D9DEE5",
"*.	c #667A94",
"=.	c #99A6B8",
"-.	c #DDE2E8",
";.	c #8393A9",
">.	c #264267",
",.	c #AEB9C7",
"'.	c #EFF2F4",
").	c #DBE0E6",
"!.	c #6E819A",
"~.	c #2D486C",
"{.	c #0D2C56",
"].	c #7C8DA4",
"^.	c #DFE4E9",
"/.	c #8F9EB1",
"(.	c #C6CED8",
"_.	c #586E8A",
":.	c #7A8BA2",
"<.	c #FEFFFF",
"[.	c #74869E",
"}.	c #F6F8F9",
"|.	c #E3E7EC",
"1.	c #D8DDE4",
"2.	c #E2E6EB",
"3.	c #F2F4F6",
"4.	c #75879F",
"5.	c #98A5B7",
"6.	c #A8B3C3",
"7.	c #A6B2C1",
"8.	c #B9C2CE",
"9.	c #435B7C",
"0.	c #8696AB",
"a.	c #DEE3E8",
"b.	c #677B95",
"c.	c #C5CDD7",
"d.	c #CAD1DA",
"e.	c #9CA9BA",
"f.	c #F0F2F5",
"g.	c #02224E",
"h.	c #566C89",
"i.	c #475F7F",
"j.	c #607590",
"k.	c #E4E8ED",
"l.	c #8494A9",
"m.	c #70839B",
"n.	c #A9B4C3",
"o.	c #9FACBC",
"p.	c #B6C0CC",
"q.	c #526886",
"r.	c #546A88",
"s.	c #E5E9ED",
"t.	c #627691",
"u.	c #B2BCCA",
"v.	c #8B9AAE",
"w.	c #496080",
"x.	c #BFC8D3",
"y.	c #909EB2",
"z.	c #385274",
"A.	c #506785",
"B.	c #8998AD",
"C.	c #F7F9FA",
"D.	c #AAB5C4",
"E.	c #516786",
"F.	c #8897AC",
"G.	c #697C96",
"H.	c #D3D9E1",
"I.	c #F8F9FB",
"J.	c #3C5577",
"K.	c #EEF1F4",
"L.	c #BBC4D0",
"M.	c #7789A0",
"N.	c #6D8099",
"O.	c #3B5476",
"P.	c #5C718D",
"Q.	c #6C7F98",
"R.	c #CED5DD",
"S.	c #C0C8D3",
"T.	c #DCE1E7",
"U.	c #97A5B7",
"V.	c #072752",
"W.	c #223E65",
"X.	c #0B2A55",
"Y.	c #647893",
"Z.	c #334D71",
"`.	c #536987",
" +	c #BDC6D1",
".+	c #062651",
"++	c #3E5778",
"                                                                                                                                ",
"                                                                                                                                ",
"                                                                                                                                ",
"                                                                                                                                ",
"                                                                                                                                ",
"                                                            . +                                                                 ",
"                                                          @ # $ %                                                               ",
"                                                        & * = - ; >                                                             ",
"                                                        , ' ) ) ! ~                                                             ",
"                                                      { ) ) ) ] ^ / &                                                           ",
"                                                    & ( _ : < ) ) [ }                                                           ",
"                                                    | 1 ) ) ) ) ) ) 2 3                                                         ",
"                                                  4 ) ) ) ) ) ) ) 5 ] 6                                                         ",
"                                                & 7 8 ^ ) ) ) ) ) ) ) ) 9                                                       ",
"                                                0 a ) ) ) ) ) ) ) ) b ) c >                                                     ",
"                                              d ) ) e ) ) ) ) ) ) ) ) b f g                                                     ",
"                                            & h i ] j ) ) ) ) ) ) ) ) ) ) k l                                                   ",
"                                            m n 5 ) ) ) ) ) ) ) ) ) ) ) ) o p                                                   ",
"                                          q r s s s t t t 5 5 5 5 ) ) ) ) ) u v                                                 ",
"                                            q w x x y y z z z A A B B 3 3 3 l                                                   ",
"                                                                                                                                ",
"                                                                                                                                ",
"                                                                                                                                ",
"            C { { D                                                             E { %   F { { G     H I J K L                   ",
"            M ) ) N                                                             O ) N   P ) ) C   L Q ) ) ) R                   ",
"          S _ ) ) T                                                             O ) N   P o o U   9 ) ) V W X                   ",
"          Y ) Z ) ) `                                                           O ) N              .) ] H                       ",
"          ..) +.@.) M         #.$.%.; 8 &.*.D =.u -.;.    > $.$.>.,.'.).!.      O ) N   ~.$.$.{.].^.) - $./.(.$._.      M $.:.  ",
"        E <.) ` [.) [ >       }.) n 8 |.) <.1.Z &.) ) Y   C ) ) 2.3.n ) ) 4.    O ) N   P ) ) C 5.) ) ) ) 6.7.) 8.    % o ) 9.  ",
"        0.) a.X A : ) b.      }.) c.L D u ) 8 A X d.) e.  C ) ) c.S X =.) f.S   O ) N   P ) ) C g.h.) _ H G i.) ! %   j.) k.g.  ",
"      G k.) l.    Q ) d.      }.) m.    7 ) n.    o.) p.  C ) ) q.    x ) ) I   O ) N   P ) ) C   r.) _     G s.) t.  u.) v.    ",
"      w.) ) a.$.$.n ) ) %.    }.) _.    x.) y.    /.) 8.  C ) ) z.    g.- ) A.  O ) N   P ) ) C   r.) _       B.) p.{.C.) %.    ",
"      D.) ) ) ) ) ) ) ) V     }.) E.    x.) F.    /.) 8.  C ) ) q.    v ) ) z.  O ) N   P ) ) C   r.) _       4 ) ! G.) H.      ",
"    % I.) B.J.J.J.J.D.) K.D   }.) E.    x.) F.    /.) 8.  C ) ) L.H   } ) C.C   O ) N   P ) ) C   r.) _         7 ) '.) M.      ",
"    N.) : 3         O.) ) P.  }.) E.    x.) F.    /.) 8.  C ) ) <.O L.- ) v.    O ) N   P ) ) C   r.) _         Q.) ) - x       ",
"    R.) 8.          X &.) S.  }.) E.    x.) F.    /.) 8.  C ) ) *.T.) o U.V.    O ) N   P ) ) C   r.) _         v ] ) x.        ",
"                                                          C ) ) P X W.X.                                        y I.) Y.        ",
"                                                          C ) ) P                                           Z.`. +) f.&         ",
"                                                          C ) ) P                                           ].) ) ) N.          ",
"                                                          .+P.P.v                                           9 F.m ++            ",
"                                                                                                                                ",
"                                                                                                                                "};
