/* XPM */
static char * Thinklabs_button_Rate_xpm[] = {
"64 42 217 2",
"  	c #00214D",
". 	c #0C2B55",
"+ 	c #A4AEBA",
"@ 	c #223E63",
"# 	c #15335B",
"$ 	c #AFB7C2",
"% 	c #14335A",
"& 	c #233F64",
"* 	c #98A4B2",
"= 	c #243F65",
"- 	c #092953",
"; 	c #8C9AAA",
"> 	c #19375E",
", 	c #1F3C62",
"' 	c #DFE0E2",
") 	c #324C6E",
"! 	c #234065",
"~ 	c #E5E5E5",
"{ 	c #5D718B",
"] 	c #3A5374",
"^ 	c #344D70",
"/ 	c #5F728C",
"( 	c #E0E1E2",
"_ 	c #374F72",
": 	c #244065",
"< 	c #677891",
"[ 	c #385173",
"} 	c #586D88",
"| 	c #254166",
"1 	c #61738E",
"2 	c #395274",
"3 	c #364E71",
"4 	c #526783",
"5 	c #E3E3E4",
"6 	c #304B6E",
"7 	c #64768F",
"8 	c #375072",
"9 	c #5D718C",
"0 	c #264367",
"a 	c #63758E",
"b 	c #455C7B",
"c 	c #E4E4E5",
"d 	c #2A4569",
"e 	c #61748D",
"f 	c #375073",
"g 	c #647690",
"h 	c #667891",
"i 	c #274267",
"j 	c #5E718B",
"k 	c #6A7C93",
"l 	c #274468",
"m 	c #697B93",
"n 	c #3C5576",
"o 	c #334D6F",
"p 	c #233E64",
"q 	c #5C6F8A",
"r 	c #364F71",
"s 	c #728299",
"t 	c #213D63",
"u 	c #657790",
"v 	c #334C6E",
"w 	c #264266",
"x 	c #E3E4E4",
"y 	c #1E3A61",
"z 	c #4E6381",
"A 	c #294469",
"B 	c #5B6F89",
"C 	c #1A375E",
"D 	c #647790",
"E 	c #18355D",
"F 	c #E4E4E4",
"G 	c #0F2E57",
"H 	c #19365E",
"I 	c #445B7B",
"J 	c #1E3B61",
"K 	c #435A7A",
"L 	c #6F8097",
"M 	c #0E2D56",
"N 	c #415979",
"O 	c #213E63",
"P 	c #1F3B61",
"Q 	c #102F58",
"R 	c #112F58",
"S 	c #4F6481",
"T 	c #123059",
"U 	c #123159",
"V 	c #566B86",
"W 	c #13325A",
"X 	c #14325B",
"Y 	c #0B2B55",
"Z 	c #CBCFD4",
"` 	c #E2E2E3",
" .	c #E3E3E3",
"..	c #E4E5E5",
"+.	c #8996A8",
"@.	c #092853",
"#.	c #1B385F",
"$.	c #17355C",
"%.	c #16345C",
"&.	c #223E65",
"*.	c #2C476C",
"=.	c #233F65",
"-.	c #072752",
";.	c #C8CFD9",
">.	c #FFFFFF",
",.	c #FEFFFF",
"'.	c #E7EBEF",
").	c #909EB2",
"!.	c #03234F",
"~.	c #919FB2",
"{.	c #F4F6F8",
"].	c #E3E7EC",
"^.	c #E4E8ED",
"/.	c #E9ECF0",
"(.	c #F9FAFB",
"_.	c #7B8CA3",
":.	c #566C89",
"<.	c #FBFCFD",
"[.	c #D0D6DF",
"}.	c #9DAABB",
"|.	c #1A375F",
"1.	c #D9DEE5",
"2.	c #D6DCE3",
"3.	c #788AA1",
"4.	c #9BA8B9",
"5.	c #9CA9BA",
"6.	c #E6EAEE",
"7.	c #FAFBFC",
"8.	c #DBE0E6",
"9.	c #B1BBC9",
"0.	c #6B7E98",
"a.	c #F6F8F9",
"b.	c #CFD6DE",
"c.	c #4D6483",
"d.	c #082852",
"e.	c #8C9BAF",
"f.	c #DDE2E8",
"g.	c #C6CED8",
"h.	c #4B6281",
"i.	c #A0ACBD",
"j.	c #1C3960",
"k.	c #3D5678",
"l.	c #E5E9ED",
"m.	c #AFBAC7",
"n.	c #B8C1CE",
"o.	c #F7F9FA",
"p.	c #D4DAE1",
"q.	c #DCE1E7",
"r.	c #8494A9",
"s.	c #5F748F",
"t.	c #BAC3CF",
"u.	c #D2D8E0",
"v.	c #FDFEFE",
"w.	c #5B708D",
"x.	c #284469",
"y.	c #0A2954",
"z.	c #C9D0DA",
"A.	c #29446A",
"B.	c #0D2C56",
"C.	c #062651",
"D.	c #7E8FA5",
"E.	c #042450",
"F.	c #4C6382",
"G.	c #F3F5F7",
"H.	c #DFE4E9",
"I.	c #F5F7F8",
"J.	c #73859D",
"K.	c #15335C",
"L.	c #1E3B62",
"M.	c #627691",
"N.	c #A7B3C2",
"O.	c #2A456A",
"P.	c #8B9AAE",
"Q.	c #C4CCD6",
"R.	c #2F4A6E",
"S.	c #264267",
"T.	c #354F72",
"U.	c #EAEDF1",
"V.	c #CAD1DA",
"W.	c #475F7F",
"X.	c #D1D7DF",
"Y.	c #ABB6C5",
"Z.	c #455D7D",
"`.	c #ADB8C6",
" +	c #1F3C63",
".+	c #8A99AE",
"++	c #274368",
"@+	c #9AA7B9",
"#+	c #445C7C",
"$+	c #17355D",
"%+	c #99A6B8",
"&+	c #5C718D",
"*+	c #5A6F8C",
"=+	c #48607F",
"-+	c #2D486C",
";+	c #71839C",
">+	c #DADFE6",
",+	c #667A94",
"'+	c #E8EBEF",
")+	c #3C5577",
"!+	c #B5BFCC",
"~+	c #8998AD",
"{+	c #365073",
"]+	c #B6C0CC",
"^+	c #93A1B4",
"/+	c #EEF1F4",
"(+	c #3F5879",
"_+	c #5D728E",
":+	c #CED5DD",
"<+	c #637792",
"[+	c #7F90A6",
"}+	c #76889F",
"|+	c #BFC8D3",
"1+	c #7789A0",
"2+	c #BDC6D1",
"3+	c #052550",
"4+	c #02224E",
"                                                                                                                                ",
"                                                                                                                                ",
"                                                                                                                                ",
"                                                                                                                                ",
"                                                                                                                                ",
"                                                                                                                                ",
"                                                                                                                                ",
"      . + @           # $ %           & * =                           - ; >                           , ' )                     ",
"      ! ~ {           ] ~ ^           / ( _                           : ~ <                           [ ~ }                     ",
"      | ~ 1           2 ~ 3           4 5 6                           : ~ 7                           8 ~ 9                     ",
"      0 ~ a           2 ~ 8           b c d                           : ~ e                           f ~ g                     ",
"      0 ~ h           [ ~ ]           ] ~ i                           | ~ j                           8 ~ k                     ",
"      l ~ m           [ ~ n           o ~ p                           | ~ q                           r ~ s                     ",
"      t ~ u           v ~ [           w x >                           y ~ z                           A ~ B                     ",
"      C ~ D           d ~ )           E F G                           H ~ I                           J ~ K                     ",
"      C ~ L M M M M M r ~ N G G G G G O ~ P G G Q Q Q Q Q Q Q Q R R R A ~ S R T T T T T U U U U U U U 6 ~ V W W X X X Y         ",
"      U Z F ` ` ` ` `  .~ c 5 5 5 F F F ~ F ................~ ~ ~ ~ ~ ~ ~ ~ ~ ~ ~ ~ ~ ~ ~ ~ ~ ~ ~ ~ ~ ~ ~ ~ ~ ~ ~ ~ ~ +.        ",
"        @.#.#.#.C C C C H H H E E E $.$.$.$.%.%.%.# # # # # X X X X W W W W W U U U U U U U T T T T T R R R R R R R Q @.        ",
"                                                                                                                                ",
"                                                                                                                                ",
"                                                                                                                                ",
"                                                                                                                                ",
"                                                                                                                                ",
"                              &.*.*.*.*.=.-.                                                                                    ",
"                              ;.>.>.>.>.>.,.'.).!.                        *.~.                                                  ",
"                              ;.>.{.].^./.(.>.>._.                      :.<.[.                                                  ",
"                              ;.>.}.      |.1.>.2.                      3.>.[.                                                  ",
"                              ;.>.}.        4.>.].    T 5.6.7.8.9.=.  0.6.>.a.b.c.  d.e.f.{.g.h.                                ",
"                              ;.>.i.d.. j.k.l.>.m.    n.>.o.p.7.>.q.  r.>.>.>.>.s.  t.>.{.u.v.,.w.                              ",
"                              ;.>.>.>.>.>.>.>.l.x.  y.4.z.A.  k.>.>.B.C.D.>.u.. E.F.>.G.&.  w.>.H.E.                            ",
"                              ;.>.o.I.>.>.(.J.K.          L.M.N.>.>.O.  3.>.[.    P.>.Q.*.*.R.<.>.S.                            ",
"                              ;.>.}.  T.U.>.V.X       W.X.>.>.^.>.>.O.  3.>.[.    Y.>.>.>.>.>.>.>.Z.                            ",
"                              ;.>.}.    c.,.>.`.     +(.>..+++K.>.>.x.  3.>.X.    @+>.Q.#+#+#+#+#+$+                            ",
"                              ;.>.}.      %+>.>.&+  *+>.I.C.  =+>.>.-+  ;+>.>+    ,+>.'+G   )+!+~+.                             ",
"                              ;.>.}.      G ].>.U.T {+>.>.]+^+/+>.>.(+  _+>.>.:+<+@.H.>.>+5.'.>.t.                              ",
"                              ;.>.}.        h.>.>.%+  [+<.>.I.}+|+>.[+  T p.>.,.1+  H 2+<.>.v.`.Q                               ",
"                                                        B.x.3+            4+=.G         d.A.Q                                   ",
"                                                                                                                                ",
"                                                                                                                                ",
"                                                                                                                                ",
"                                                                                                                                ",
"                                                                                                                                "};
