/* XPM */
static char * Thinklabs_button_Amplify_over_xpm[] = {
"64 42 180 2",
"  	c #0C5FCC",
". 	c #206CD1",
"+ 	c #8BB3E8",
"@ 	c #A4C3ED",
"# 	c #1E6BD0",
"$ 	c #1A68CF",
"% 	c #D6E4F7",
"& 	c #EBF3FC",
"* 	c #E1EBFA",
"= 	c #ABC8EE",
"- 	c #1968CF",
"; 	c #88B1E6",
"> 	c #EEF4FC",
", 	c #FFFFFF",
"' 	c #FBFCFE",
") 	c #4B88DA",
"! 	c #367BD5",
"~ 	c #FEFFFF",
"{ 	c #FCFDFF",
"] 	c #DEEAF9",
"^ 	c #D2E2F6",
"/ 	c #F6F9FE",
"( 	c #FBFDFF",
"_ 	c #7AA7E3",
": 	c #85AFE6",
"< 	c #ECF3FC",
"[ 	c #236ED1",
"} 	c #357AD5",
"| 	c #FCFEFF",
"1 	c #F9FCFE",
"2 	c #A5C4ED",
"3 	c #D5E4F7",
"4 	c #FAFCFF",
"5 	c #397DD6",
"6 	c #83AEE5",
"7 	c #F2F7FD",
"8 	c #D1E1F6",
"9 	c #3278D4",
"0 	c #FDFEFF",
"a 	c #6C9FE1",
"b 	c #CBDDF5",
"c 	c #F7FAFF",
"d 	c #F8FAFE",
"e 	c #1D6AD0",
"f 	c #87B0E7",
"g 	c #E9F0FB",
"h 	c #9DBFEC",
"i 	c #226DD1",
"j 	c #E8F0FB",
"k 	c #FEFEFF",
"l 	c #EAF2FB",
"m 	c #1F6BD0",
"n 	c #2872D2",
"o 	c #2771D2",
"p 	c #2671D2",
"q 	c #2570D2",
"r 	c #246FD2",
"s 	c #236FD1",
"t 	c #1C6AD0",
"u 	c #1465CE",
"v 	c #2F76D4",
"w 	c #1565CE",
"x 	c #0E61CD",
"y 	c #0F61CD",
"z 	c #3D80D7",
"A 	c #5F96DE",
"B 	c #3B7ED6",
"C 	c #1062CD",
"D 	c #A3C2EC",
"E 	c #78A6E3",
"F 	c #D8E6F7",
"G 	c #4082D7",
"H 	c #BDD4F2",
"I 	c #2A73D3",
"J 	c #1766CF",
"K 	c #F4F8FD",
"L 	c #D7E5F7",
"M 	c #1B69D0",
"N 	c #98BBEA",
"O 	c #7FABE5",
"P 	c #0D60CD",
"Q 	c #689CE0",
"R 	c #F6F9FD",
"S 	c #4383D8",
"T 	c #5791DC",
"U 	c #FAFCFE",
"V 	c #C5D9F3",
"W 	c #9ABDEA",
"X 	c #D3E3F6",
"Y 	c #CBDDF4",
"Z 	c #D2E1F6",
"` 	c #397CD6",
" .	c #EDF4FC",
"..	c #DBE8F8",
"+.	c #6D9FE1",
"@.	c #9EBFEB",
"#.	c #DFEAF9",
"$.	c #89B1E7",
"%.	c #3077D4",
"&.	c #B2CCEF",
"*.	c #F0F5FC",
"=.	c #DDE9F8",
"-.	c #75A4E2",
";.	c #377BD5",
">.	c #1867CF",
",.	c #82ADE5",
"'.	c #E1EBF9",
").	c #94B9E9",
"!.	c #C9DCF4",
"~.	c #6096DE",
"{.	c #80ACE5",
"].	c #7BA8E4",
"^.	c #F5F9FD",
"/.	c #F7FAFE",
"(.	c #E9F1FB",
"_.	c #E5EEFA",
":.	c #DAE7F8",
"<.	c #E4EDFA",
"[.	c #F3F7FD",
"}.	c #7BA9E4",
"|.	c #9DBFEB",
"1.	c #ACC9EE",
"2.	c #AAC7EE",
"3.	c #BDD3F1",
"4.	c #4C89DA",
"5.	c #8CB3E7",
"6.	c #E0EBF9",
"7.	c #6EA0E1",
"8.	c #C8DBF4",
"9.	c #CDDEF5",
"0.	c #A1C1EC",
"a.	c #F1F6FC",
"b.	c #5E95DE",
"c.	c #4F8CDB",
"d.	c #679BE0",
"e.	c #E6EEFA",
"f.	c #8AB2E7",
"g.	c #77A5E3",
"h.	c #CEDFF5",
"i.	c #ADC9EE",
"j.	c #A4C3EC",
"k.	c #BAD2F1",
"l.	c #5A93DD",
"m.	c #5C94DD",
"n.	c #E7EFFA",
"o.	c #699DE0",
"p.	c #B6CFF0",
"q.	c #91B6E8",
"r.	c #518DDB",
"s.	c #C2D7F3",
"t.	c #95BAE9",
"u.	c #4182D8",
"v.	c #5891DC",
"w.	c #8FB5E8",
"x.	c #AECAEE",
"y.	c #5992DD",
"z.	c #8EB5E8",
"A.	c #70A1E1",
"B.	c #F9FBFE",
"C.	c #4585D8",
"D.	c #EFF5FC",
"E.	c #BED5F2",
"F.	c #7DAAE4",
"G.	c #74A4E2",
"H.	c #4484D8",
"I.	c #6499DF",
"J.	c #73A3E2",
"K.	c #C3D8F3",
"L.	c #DEE9F8",
"M.	c #9CBEEB",
"N.	c #1263CE",
"O.	c #2C74D3",
"P.	c #1666CF",
"Q.	c #6B9EE0",
"R.	c #3C7FD7",
"S.	c #5B93DD",
"T.	c #C0D6F2",
"U.	c #1163CE",
"V.	c #87B0E6",
"W.	c #4786D9",
"                                                                                                                                ",
"                                                                                                                                ",
"                                                                                                                                ",
"                                                                                                                                ",
"                                                                                                                                ",
"                                                                                                                                ",
"                                                          . + @ #                                                               ",
"                                                        $ % & * = -                                                             ",
"                                                        ; > , , ' )                                                             ",
"                                                      ! , , ~ , { ] $                                                           ",
"                                                    $ ^ / ( , , , / _                                                           ",
"                                                    : < , , , , , , ( [                                                         ",
"                                                  } , , , , , , , | 1 2                                                         ",
"                                                $ 3 4 , , , , , , , , , 5                                                       ",
"                                                6 7 , , , , , , , , , , 8 -                                                     ",
"                                              9 , , , , , , , ~ , , , , 0 a                                                     ",
"                                            $ b c , , , , , , , , , , , , d e                                                   ",
"                                            f g ~ , , , , , , , , , , , , ( h                                                   ",
"                                          i j 0 0 0 k k k ~ ~ ~ ~ , , , , , l m                                                 ",
"                                            i n o o p p q q q r r s s [ [ [ e                                                   ",
"                                                                                                                                ",
"                                                                                                                                ",
"                                                                                                                                ",
"            t ! ! u                                                             v ! #   w ! ! x     y z A B C                   ",
"            D , , E                                                             F , E   G , , t   C H , , , I                   ",
"          J K , , L                                                             F , E   G { { M   5 , , N O P                   ",
"          Q , R , , S                                                           F , E             T , U y                       ",
"          V , W X , D         Y Z ` =  ...+.u @.l #.$.    - Z Z %.&.*.=.-.      F , E   ;.Z Z >.,.'., k Z ).!.Z ~.      D Z {.  ",
"        v , , S ]., ^.-       /., (. ._., , :.R .., , Q   t , , <.[.(., , }.    F , E   G , , t |., , , , 1.2., 3.    # { , 4.  ",
"        5., 6.P r 0 , 7.      /., 8.C u l ,  .r P 9., 0.  t , , 8.J P @., a.J   F , E   G , , t P b., K y x c., ' #   d., e.P   ",
"      x e., f.    H , 9.      /., g.    h., i.    j., k.  t , , l.    o , , z   F , E   G , , t   m., K     x n., o.  p., q.    ",
"      r., , 6.Z Z (., , `     /., ~.    s., t.    )., 3.  t , , u.    P k , v.  F , E   G , , t   m., K       w., k.>.d , `     ",
"      x., , , , , , , , N     /., y.    s., z.    )., 3.  t , , l.    m , , u.  F , E   G , , t   m., K       } , ' A., 3       ",
"    # B., w.C.C.C.C.x., D.u   /., y.    s., z.    )., 3.  t , , E.y   _ , d t   F , E   G , , t   m., K         h., *., F.      ",
"    G., 0 [         H., , I.  /., y.    s., z.    )., 3.  t , , , F E.k , q.    F , E   G , , t   m., K         J., , k o       ",
"    8 , 3.          P .., K.  /., y.    s., z.    )., 3.  t , , +.L., { M.N.    F , E   G , , t   m., K         m U , s.        ",
"                                                          t , , G P O.P.                                        p B., Q.        ",
"                                                          t , , G                                           R.S.T., a.$         ",
"                                                          t , , G                                           ,., , , G.          ",
"                                                          U.I.I.m                                           5 z.V.W.            ",
"                                                                                                                                ",
"                                                                                                                                "};
