/* XPM */
static char * Thinklabs_button_Display_dis_xpm[] = {
"64 42 470 2",
"  	c #DCDCDC",
". 	c #DBDBDC",
"+ 	c #DADBDC",
"@ 	c #D7D9DB",
"# 	c #D6D8DB",
"$ 	c #D3D7DC",
"% 	c #D5D8DC",
"& 	c #D0D2D6",
"* 	c #D7D9DC",
"= 	c #D9DADC",
"- 	c #D5D7DA",
"; 	c #D2D4D6",
"> 	c #D0D1D3",
", 	c #D9D9D9",
"' 	c #8D8F92",
") 	c #969696",
"! 	c #909091",
"~ 	c #8D8D8E",
"{ 	c #8B8B8C",
"] 	c #8B8C8D",
"^ 	c #8C8D8D",
"/ 	c #8E8E8F",
"( 	c #919192",
"_ 	c #959595",
": 	c #949494",
"< 	c #929293",
"[ 	c #8D8E8E",
"} 	c #868788",
"| 	c #8F8F90",
"1 	c #8F9193",
"2 	c #929395",
"3 	c #8F9090",
"4 	c #909191",
"5 	c #929393",
"6 	c #919292",
"7 	c #8E8F8F",
"8 	c #959696",
"9 	c #989898",
"0 	c #949595",
"a 	c #8E8F90",
"b 	c #939394",
"c 	c #979797",
"d 	c #999999",
"e 	c #D8D8D8",
"f 	c #DADADA",
"g 	c #939393",
"h 	c #919191",
"i 	c #DFDFDF",
"j 	c #D7D7D7",
"k 	c #888888",
"l 	c #898989",
"m 	c #858585",
"n 	c #BCD0D0",
"o 	c #BFD9DA",
"p 	c #7F8283",
"q 	c #878B8C",
"r 	c #C2C9CA",
"s 	c #C6C9C9",
"t 	c #818181",
"u 	c #DBDBDB",
"v 	c #949596",
"w 	c #A9ADAE",
"x 	c #929292",
"y 	c #CDCDCD",
"z 	c #C9C9C9",
"A 	c #8C8C8C",
"B 	c #8B8B8B",
"C 	c #8F8F8F",
"D 	c #8E9393",
"E 	c #E4E5E5",
"F 	c #E5E6E6",
"G 	c #BECFCF",
"H 	c #CBDCDF",
"I 	c #E5E5E5",
"J 	c #DFE5E6",
"K 	c #939595",
"L 	c #8A8A8A",
"M 	c #8C9091",
"N 	c #CCE8E8",
"O 	c #BBD2D4",
"P 	c #8E8E8E",
"Q 	c #CACACA",
"R 	c #CCCCCC",
"S 	c #979898",
"T 	c #989999",
"U 	c #879192",
"V 	c #D9E2E2",
"W 	c #E4E5E6",
"X 	c #CBE2E4",
"Y 	c #E2E6E6",
"Z 	c #8F9797",
"` 	c #979999",
" .	c #E3E4E4",
"..	c #E3E5E5",
"+.	c #CFE2E2",
"@.	c #8E9091",
"#.	c #9D9D9D",
"$.	c #949696",
"%.	c #9E9E9E",
"&.	c #939495",
"*.	c #C8D6D8",
"=.	c #E4E6E6",
"-.	c #C6E4E5",
";.	c #878889",
">.	c #868686",
",.	c #888E90",
"'.	c #C9E0E0",
").	c #E5E5E6",
"!.	c #A3A8A9",
"~.	c #90A0A2",
"{.	c #C4D7D8",
"].	c #C7E4E5",
"^.	c #858686",
"/.	c #CEE0E1",
"(.	c #D1DADA",
"_.	c #A8A8A8",
":.	c #CECECE",
"<.	c #DEE3E3",
"[.	c #E1E6E6",
"}.	c #C0C4C4",
"|.	c #959596",
"1.	c #8A8B8E",
"2.	c #838C8D",
"3.	c #929798",
"4.	c #95999A",
"5.	c #959797",
"6.	c #8A8B8C",
"7.	c #D7E6E7",
"8.	c #E3E6E6",
"9.	c #BDC5C5",
"0.	c #8D8D8D",
"a.	c #969797",
"b.	c #D7E5E5",
"c.	c #E2E5E5",
"d.	c #CAD3D4",
"e.	c #979C9D",
"f.	c #9EA0A0",
"g.	c #A1A1A1",
"h.	c #9FA0A0",
"i.	c #9A9C9C",
"j.	c #949495",
"k.	c #B6BBBC",
"l.	c #939697",
"m.	c #D7E3E4",
"n.	c #849496",
"o.	c #7F8182",
"p.	c #B4CED3",
"q.	c #939596",
"r.	c #CEE5E7",
"s.	c #D1DCDC",
"t.	c #777777",
"u.	c #828282",
"v.	c #919293",
"w.	c #90999A",
"x.	c #D4E7E7",
"y.	c #B0D3D6",
"z.	c #8C8D8E",
"A.	c #99999A",
"B.	c #B9CFD1",
"C.	c #D3E6E7",
"D.	c #CBE1E1",
"E.	c #939494",
"F.	c #B6CED3",
"G.	c #CAD6D7",
"H.	c #D6DCDE",
"I.	c #D8DBDB",
"J.	c #8F9394",
"K.	c #9B9B9B",
"L.	c #808387",
"M.	c #808889",
"N.	c #B1E9EB",
"O.	c #929394",
"P.	c #959697",
"Q.	c #A3AAAB",
"R.	c #9DD5DA",
"S.	c #909293",
"T.	c #D3E0E1",
"U.	c #D2E4E5",
"V.	c #838888",
"W.	c #919393",
"X.	c #8D9192",
"Y.	c #8B9191",
"Z.	c #858989",
"`.	c #868687",
" +	c #909090",
".+	c #888A8C",
"++	c #9FB7B9",
"@+	c #CADCDC",
"#+	c #C6D9D9",
"$+	c #DCE3E3",
"%+	c #9CA0A1",
"&+	c #9E9F9F",
"*+	c #829296",
"=+	c #9CADAE",
"-+	c #DCE7E7",
";+	c #D7E7E7",
">+	c #E1E3E3",
",+	c #DFE6E6",
"'+	c #9EADB1",
")+	c #878787",
"!+	c #D2D2D2",
"~+	c #BEBEBE",
"{+	c #C1C1C1",
"]+	c #C2C2C2",
"^+	c #C3C3C3",
"/+	c #C0C0C0",
"(+	c #C6C6C6",
"_+	c #C7C7C7",
":+	c #8C9095",
"<+	c #8F9092",
"[+	c #9B9D9E",
"}+	c #CCD6D7",
"|+	c #D8DEDE",
"1+	c #E1E2E2",
"2+	c #B3BBBB",
"3+	c #979899",
"4+	c #DDE7E7",
"5+	c #B6D3D5",
"6+	c #A3ABAC",
"7+	c #888C8C",
"8+	c #787D7F",
"9+	c #CCE7E8",
"0+	c #D5E1E2",
"a+	c #9B9C9C",
"b+	c #BFC8CA",
"c+	c #D4D9DA",
"d+	c #D4D8D9",
"e+	c #D3D7D8",
"f+	c #CDD0D1",
"g+	c #BBC0C2",
"h+	c #959798",
"i+	c #E4E4E4",
"j+	c #E3E3E3",
"k+	c #E1E1E1",
"l+	c #E0E0E0",
"m+	c #D6D6D6",
"n+	c #D4D4D4",
"o+	c #E2E2E2",
"p+	c #D1D1D1",
"q+	c #8A8A8B",
"r+	c #848689",
"s+	c #848484",
"t+	c #A5DADB",
"u+	c #E1E5E5",
"v+	c #B4D2D5",
"w+	c #CAE5E7",
"x+	c #838383",
"y+	c #A5A5A9",
"z+	c #DCDCE2",
"A+	c #DADAE3",
"B+	c #D8D8E2",
"C+	c #D8D8E0",
"D+	c #DDDDE0",
"E+	c #DEDEDF",
"F+	c #E0E0E1",
"G+	c #DFDFE0",
"H+	c #E3E3E4",
"I+	c #DBE2E2",
"J+	c #DEDEDE",
"K+	c #82ABAC",
"L+	c #D3E4E4",
"M+	c #8D8F8F",
"N+	c #878989",
"O+	c #D3DFE2",
"P+	c #D9DCDC",
"Q+	c #AAAABB",
"R+	c #BFBFE3",
"S+	c #BED6ED",
"T+	c #B0E8EC",
"U+	c #BFE9EA",
"V+	c #B3DFEB",
"W+	c #87CAF1",
"X+	c #8184DC",
"Y+	c #6464A2",
"Z+	c #D3E0E4",
"`+	c #D7DFE3",
" @	c #859FD1",
".@	c #8A97D2",
"+@	c #8490CB",
"@@	c #7E7EB6",
"#@	c #8286B9",
"$@	c #A0BED9",
"%@	c #BAD3DF",
"&@	c #D0E3E6",
"*@	c #D1E7E7",
"=@	c #BCCBD4",
"-@	c #747490",
";@	c #797988",
">@	c #C9C9CA",
",@	c #858D8E",
"'@	c #DEE5E5",
")@	c #BAC9CE",
"!@	c #DBDFDF",
"~@	c #CBCBCB",
"{@	c #A2A3A4",
"]@	c #C4E6E9",
"^@	c #9FE8EE",
"/@	c #DDE5E6",
"(@	c #E0E6E6",
"_@	c #AAD8E3",
":@	c #DEE4E4",
"<@	c #DCE6E6",
"[@	c #DCE2E3",
"}@	c #DDE2E3",
"|@	c #DBE4E5",
"1@	c #B7E4E6",
"2@	c #DAE5E6",
"3@	c #D1E5E5",
"4@	c #CDE7E8",
"5@	c #D4E5E6",
"6@	c #D3E3E5",
"7@	c #C6DBE3",
"8@	c #A3B9C1",
"9@	c #C5E5E7",
"0@	c #D5DEDE",
"a@	c #898C8D",
"b@	c #86AFB2",
"c@	c #A6C0C0",
"d@	c #B2BFC0",
"e@	c #BEE4E5",
"f@	c #8C868E",
"g@	c #DC95A3",
"h@	c #B197A8",
"i@	c #C8D5DD",
"j@	c #C3E5E7",
"k@	c #C7E7E8",
"l@	c #C2E6E9",
"m@	c #C3D4DC",
"n@	c #B4B8C3",
"o@	c #C57E8D",
"p@	c #C26D77",
"q@	c #3B4B58",
"r@	c #012B37",
"s@	c #283336",
"t@	c #D98490",
"u@	c #514651",
"v@	c #387693",
"w@	c #C58494",
"x@	c #307E93",
"y@	c #5FC2D1",
"z@	c #9BDAE0",
"A@	c #7DCFD5",
"B@	c #9BB2B5",
"C@	c #8E9798",
"D@	c #8A8B8B",
"E@	c #B18E95",
"F@	c #E09CAA",
"G@	c #E7A9B9",
"H@	c #E7AEBF",
"I@	c #E7ADBE",
"J@	c #E6B1C2",
"K@	c #CFA3B3",
"L@	c #CAA2B4",
"M@	c #E4A2B2",
"N@	c #E4ABBC",
"O@	c #E7A7B7",
"P@	c #E79FAE",
"Q@	c #EA8F9D",
"R@	c #E8A0AF",
"S@	c #E6B0C1",
"T@	c #E5AABB",
"U@	c #E5AEBF",
"V@	c #E6A7B8",
"W@	c #E7A5B5",
"X@	c #E4A3B2",
"Y@	c #E8A5B5",
"Z@	c #E8A7B7",
"`@	c #A3CAD3",
" #	c #868888",
".#	c #BE9EA5",
"+#	c #E1A5B5",
"@#	c #F4C5CC",
"##	c #FFF7F7",
"$#	c #FDAEAF",
"%#	c #E7A2B2",
"&#	c #E6AEBF",
"*#	c #E7A6B6",
"=#	c #F4EBEC",
"-#	c #FEF9FB",
";#	c #FCF6F8",
">#	c #7A494B",
",#	c #EB808D",
"'#	c #E7ACBD",
")#	c #BC7C85",
"!#	c #FBF8F9",
"~#	c #F8E8ED",
"{#	c #F6DEE4",
"]#	c #E7A5B4",
"^#	c #E9A3B2",
"/#	c #E4AAB9",
"(#	c #C4C4C4",
"_#	c #C796A0",
":#	c #F0CFD9",
"<#	c #F2D4DE",
"[#	c #F1D3DC",
"}#	c #E8A9B9",
"|#	c #E9ADB9",
"1#	c #FEFCFC",
"2#	c #FFFFFF",
"3#	c #E7DEDE",
"4#	c #D88994",
"5#	c #E59AA9",
"6#	c #D6808D",
"7#	c #DF93A1",
"8#	c #D49399",
"9#	c #FFFEFE",
"0#	c #FFFDFE",
"a#	c #FCCED0",
"b#	c #E9A0AE",
"c#	c #E3A9B9",
"d#	c #898C90",
"e#	c #C7C8C8",
"f#	c #C8C8C9",
"g#	c #BF828E",
"h#	c #E4AEBF",
"i#	c #E5B0C1",
"j#	c #E3ACBC",
"k#	c #E3AEBD",
"l#	c #E2ACBA",
"m#	c #E4B2C1",
"n#	c #DDA1B0",
"o#	c #E29CAC",
"p#	c #E5A6B6",
"q#	c #E2A9BA",
"r#	c #E4ACBD",
"s#	c #E3ACBD",
"t#	c #E3ABBC",
"u#	c #E3ABBB",
"v#	c #E4ADBE",
"w#	c #E5AFBF",
"x#	c #959393",
"y#	c #D8DADC",
"z#	c #D1D2D4",
"A#	c #D2D4D7",
"B#	c #CDCED1",
"C#	c #C9CBCD",
"D#	c #CECFD2",
"E#	c #E6E3E4",
"F#	c #E6E2E3",
"G#	c #E4E4E5",
"H#	c #E6E4E5",
"I#	c #E5E4E5",
"J#	c #E5E4E4",
"K#	c #E5E3E4",
"L#	c #DDDDDD",
"M#	c #F9F9F9",
"N#	c #FEFEFE",
"O#	c #F3F3F3",
"P#	c #FAFAFA",
"Q#	c #ECECEC",
"R#	c #FBFBFB",
"S#	c #EBEBEB",
"T#	c #FCFCFC",
"U#	c #FDFDFD",
"V#	c #F8F8F8",
"W#	c #F1F1F1",
"X#	c #EDEDED",
"Y#	c #EAEAEA",
"Z#	c #F6F6F6",
"`#	c #F4F4F4",
" $	c #E9E9E9",
".$	c #E7E7E7",
"+$	c #F7F7F7",
"@$	c #F2F2F2",
"#$	c #E8E8E8",
"$$	c #E6E6E6",
"%$	c #F0F0F0",
"&$	c #F5F5F5",
"*$	c #EEEEEE",
"=$	c #EFEFEF",
"                                                                                                                                ",
"                                                                                                                                ",
"                                        . . . . . . . . . + @ # $ % +   + & * .                 . = - ; > ,                     ",
"        ' ) ! ~ { { { { { ] ] ] ] ^ / / ( _ ) _ : < ( [ } | 1 2 3 4 5 6 7 8 9 0 _ 0 : 7 a [ | ! 3 b 0 : 9 8 ) c 9 d : ] e       ",
"      f d d 9 9 9 c _ c : g c c c ) _ _ ) 9 d d d d d d d h i j k c c l m ) n o p 9 : q r s t d d d d d d d d 9 _ : _ b u       ",
"        v d d d d d ) d 9 ) _ w 8 _ h x : ) 9 d d d _ 9 d k y z A 9 B C x D E F G c _ H I J K d c g ) 9 d d d d d _ x )         ",
"      u b ) x 9 _ ) c h L _ M N O x _ c 9 d d d d d d c d P Q R m 4 S T U V W X Y Z `  ...I +.) 9 g @.8 S #.` $.` %.S 9         ",
"        &.: d d d 9 : k x ) *.=.-.;.P P P c 9 9 d 9 d _ d >.R R L ,.'.I I ).!.~.W {.].I ^./.I (._.:.<.[.I I I I I I }.|.        ",
"        1.c : 9 : P : l l x ..=.[.! g g : l L : x l : d 9 x y R g 7 2.3.4.5.) 6.7.8.F 9.0.a.b.I c.I E d.e.f.g.g.h.i.5 c ,       ",
"        j.9 _ ) _ d k.l.C T I m.I n.d o.x d 9 C B P : _ 9 ) y R g x ) 9 9 g c ) p.I I d B _ q.r.I s.t.u.P _ c ) c g ) d ,       ",
"        v.h k L h w.x.y.z.A.I B.C.D.E.F.G.P ) _ 9 x C 0.d A y R C d 9 9 c x C c q.H.I.B : m L J.K.d g g _ ) : g ) ) ) T f       ",
"        L.5 8 8 M.N.=.Y O.P.I Q.R.=.S.T.I U.V.: W.X.Y.Z.`.c y R B P _ x c 9 c ) : C x  +g _ ) c 9 _ c ) _  +P  +h h h { f       ",
"        .+++@+#+$+=.E F %+&+I i.*+I =+..{.I -+;+Y >+, ,+'+)+R R !+~+{+]+]+^+^+^+/+/+{+{+{+{+{+^+^+(+(+_+_+_+_+_+_+_+^+:+        ",
"        <+[+}+|+1+2+3+4+5+6+I 7+8+9+0+I a+P.b+c+d+e+f+g+h+: y R h d  +e i+i+i+j+k+l+  f , e m+n+e f , n+l+o+j+o+, p+k q+        ",
"        r+B k h : >.s+t+u+v+I 3 ^.w+F E 9 C C x+B A >.s+k ) y R P c y+z+A+B+C+D+j+j+k+l+l+l+k+E+F+G+j+H+..I+i k+J+f 0.x         ",
"        ! h d d x h C K+I L+I M+N+O+I P+B 9 ) 0.0.g x L x ) y R ) c Q+R+S+T+U+V+W+X+Y+Z+`+ @.@+@@@#@$@%@&@*@=@-@;@>@_ )         ",
"        5 c 9 9 d )  +,@'@=.I  +u.)@8.!@9 : : x 9 c _ d 9 : R ~@d c {@..I ]@^@/@(@_@J I :@<@[@}@}@|@1@2@3@4@5@6@7@8@_ :         ",
"        P x d d c ) 0.} 9@I 0@C B a@b@c@d ) : h : 9 : h c h R ~@d 9 d@e@f@g@h@i@j@k@l@m@n@o@p@q@r@s@t@u@v@w@x@y@z@A@: (         ",
"        L 0.) g : _ 9 A B@I C@: x 9 c D@x 9 9 d d d x L x P R Q d 9 E@F@G@H@I@J@K@L@M@N@O@O@O@P@Q@R@S@T@U@V@W@X@Y@Z@: _         ",
"      . )+l P ) 9 9 d c ,.`@ #C x+k c c x d ) _ c 9 c h C k z Q d 9 .#+#@###$#%#&#Y@*#=#-#;#>#,#'#&#S@)#!#~#{#]#^#/# +a.        ",
"        P d _ _ 9 d d d g P g ) k >.d : h x : d d d d d )  +(#Q 9 d _#Y@:#<#[#}#S@S@|#1#2#2#3#4#5#6#7#8#9#0#0#a#b#c#0.c .       ",
"        d#9 c c c c ) ) c 9 ) x 6 6 x b ! 5 T c : ! x j.D@9 e#f#: < g#h#i#j#k#l#m#n#o#p#q#r#s#t#u#v#J@v#u#t#t#r#w#+#x#v y#      ",
"                                      f n+!+z#A#B#C#D#- * y#= + . E+H+i+I E#E#F#G#G#I H#I#J#K#K#K#K#i+i+k+                      ",
"      k+o+o+o+o+i L#          k+o+i                                   L#J+J+J+j+j+k+i i l+l+l+l+l+l+l+i J+                      ",
"      M#2#2#2#2#2#N#O#i       P#2#Q#                                          R#2#S#                                            ",
"      M#2#N#T#U#2#2#2#V#L#    M#2#Q#                                          R#2#S#                                            ",
"      M#2#W#    J+X#2#2#Y#                                                    R#2#S#                                            ",
"      M#2#W#        Z#2#M#    `#M# $    Y#P#N#N#M#Y#    J+M#M#o+`#U#P#S#      R#2#S#    .$V#N#N#V#X#L#L#+$M# $      @$M#X#      ",
"      M#2#W#        X#2#U#    P#2#Q#   $2#N#+$V#2#2##$  i 2#2#T#N#T#2#2#Q#    R#2#S#  j+2#2#R#T#2#2#S#  @$2#Z#    i 2#2#$$      ",
"      M#2#W#        Y#2#2#i   P#2#Q#  O#2#W#L#  X#%$I   i 2#2#V#J+L#@$2#U#J+  R#2#S#  .$&$@$    &$2#W#  I 2#2#i    $2#T#L#      ",
"      M#2#W#        Y#2#2#i   P#2#Q#  *$2#2#T#@$.$J+    i 2#2##$    k+2#2#j+  R#2#S#      L#I *$P#2#&$  L#R#2#Y#  &$2#%$        ",
"      M#2#W#        *$2#N#    P#2#Q#  J+Z#2#2#2#2#T#$$  i 2#2#i+    L#2#2#.$  R#2#S#  L#W#U#2#2#U#2#&$    =$2#Z#J+N#2#j+        ",
"      M#2#W#        +$2#V#    P#2#Q#      j+X#Z#2#2#R#  i 2#2##$    l+2#2#j+  R#2#S#  =$2#R##$J+=$2#&$    o+2#2#S#2#P#          ",
"      M#2#@$J+i k+=$2#2#Y#    P#2#Q#  %$+$Q#    Y#2#U#  i 2#2#Z#L#  X#2#N#J+  R#2#S#  V#2#=$    Z#2#Z#      V#2#U#2#X#          ",
"      M#2#2#2#2#2#2#2#`#L#    P#2#Q#  =$2#N#O#W#T#2#@$  i 2#2#2#P#Z#2#2#=$    R#2#S#  O#2#U#%$Z#2#2#V#      S#2#2#2#k+          ",
"      M#2#2#2#2#T#V# $L#      P#2#Q#  L#=$N#2#2#2#@$J+  i 2#2#Y#R#2#2#W#L#    R#2#S#  l+M#2#2#M# $2#2#i     i N#2#+$            ",
"                                          L#k+o+L#      i 2#2#i+L#k+J+                  L#k+l+              l+N#2#S#            ",
"                                                        i 2#2#i+                                        j+#$Z#2#N#i             ",
"                                                        i 2#2#i+                                        X#2#2#2#Q#              ",
"                                                        L# $ $i                                         o+=$*$I                 ",
"                                                                                                                                ",
"                                                                                                                                "};
