/* XPM */
static char * Thinklabs_button_Filter_over_xpm[] = {
"64 42 260 2",
"  	c #0C5FCC",
". 	c #246ED0",
"+ 	c #AAC3E4",
"@ 	c #1566CE",
"# 	c #4383D6",
"$ 	c #FFFFFF",
"% 	c #2670D1",
"& 	c #4081D5",
"* 	c #1A68CF",
"= 	c #3077D4",
"- 	c #3C7ED5",
"; 	c #4282D6",
"> 	c #3F80D5",
", 	c #387BD3",
"' 	c #4885D5",
") 	c #256FD1",
"! 	c #3E7FD5",
"~ 	c #2770D2",
"{ 	c #7BA8E1",
"] 	c #F0F5FB",
"^ 	c #F9FAFD",
"/ 	c #F8FAFC",
"( 	c #F7FAFC",
"_ 	c #F7F9FC",
": 	c #F4F7FC",
"< 	c #F5F8FB",
"[ 	c #D1E0F5",
"} 	c #1766CF",
"| 	c #3D7ED5",
"1 	c #2871D2",
"2 	c #256FCF",
"3 	c #C1D4EC",
"4 	c #FCFDFE",
"5 	c #BDD2EE",
"6 	c #6599DD",
"7 	c #4887DA",
"8 	c #4786D9",
"9 	c #4887D9",
"0 	c #4987D9",
"a 	c #4A88D9",
"b 	c #4E8ADA",
"c 	c #538EDB",
"d 	c #6197DE",
"e 	c #BBD2F0",
"f 	c #FEFEFF",
"g 	c #95B9E7",
"h 	c #3A7DD4",
"i 	c #2872D2",
"j 	c #0E60CD",
"k 	c #D8E2F0",
"l 	c #F8FAFD",
"m 	c #6C9EE0",
"n 	c #B8CFEE",
"o 	c #F3F6FB",
"p 	c #2D75D3",
"q 	c #2A72D2",
"r 	c #1D6ACE",
"s 	c #D0DCED",
"t 	c #F9FBFE",
"u 	c #5F96DE",
"v 	c #2B74D3",
"w 	c #F2F6FB",
"x 	c #C6D8F0",
"y 	c #2B73D2",
"z 	c #1263CD",
"A 	c #C0D3EB",
"B 	c #FAFCFE",
"C 	c #72A2E2",
"D 	c #A5C4EC",
"E 	c #F3F6FA",
"F 	c #7DA8E0",
"G 	c #367AD3",
"H 	c #2C73D2",
"I 	c #1C69CF",
"J 	c #BED1E9",
"K 	c #F6F9FD",
"L 	c #88B1E6",
"M 	c #1C6AD0",
"N 	c #C8DAF3",
"O 	c #4282D7",
"P 	c #357AD3",
"Q 	c #2D74D3",
"R 	c #246ECF",
"S 	c #C5D6EC",
"T 	c #FDFEFF",
"U 	c #9ABCEA",
"V 	c #1062CD",
"W 	c #397CD6",
"X 	c #F2F6FC",
"Y 	c #D8E5F5",
"Z 	c #3378D3",
"` 	c #2E75D3",
" .	c #3E7ED2",
"..	c #E8EDF2",
"+.	c #F5F8FD",
"@.	c #8EB5E8",
"#.	c #76A4DE",
"$.	c #EEF3F9",
"%.	c #367AD5",
"&.	c #2F76D3",
"*.	c #1665CD",
"=.	c #8FB3E1",
"-.	c #F3F7FD",
";.	c #659ADF",
">.	c #0D60CD",
",.	c #548ED9",
"'.	c #EBF1F9",
").	c #F6F9FC",
"!.	c #A5C3EC",
"~.	c #3F81D7",
"{.	c #1163CE",
"].	c #3178D3",
"^.	c #0D60CC",
"/.	c #689BDE",
"(.	c #E9EFF8",
"_.	c #FEFFFF",
":.	c #C8DBF3",
"<.	c #ADC7E9",
"[.	c #F4F7FB",
"}.	c #F5F8FC",
"|.	c #F0F5FC",
"1.	c #EDF3FB",
"2.	c #ECF2FB",
"3.	c #EBF2FB",
"4.	c #C6DAF2",
"5.	c #2E76D4",
"6.	c #3077D2",
"7.	c #3278D4",
"8.	c #EFF2F7",
"9.	c #C9DBF2",
"0.	c #2C74D3",
"a.	c #4583D6",
"b.	c #7FA8DF",
"c.	c #9EBCE3",
"d.	c #A9C3E6",
"e.	c #B1C8E7",
"f.	c #B3CAE8",
"g.	c #B5CBE8",
"h.	c #B9CEE9",
"i.	c #BACFEA",
"j.	c #BBD0EA",
"k.	c #BCD0EA",
"l.	c #BDD1EA",
"m.	c #96B7E3",
"n.	c #1666CF",
"o.	c #3076D2",
"p.	c #357AD4",
"q.	c #367BD4",
"r.	c #2F76D2",
"s.	c #387CD5",
"t.	c #2E75D2",
"u.	c #397CD5",
"v.	c #2D75D2",
"w.	c #6699DD",
"x.	c #3A7CD4",
"y.	c #397CD3",
"z.	c #377BD3",
"A.	c #3579D3",
"B.	c #3479D3",
"C.	c #3379D3",
"D.	c #3278D3",
"E.	c #3177D3",
"F.	c #3076D3",
"G.	c #1364CD",
"H.	c #1968CF",
"I.	c #EAF0F8",
"J.	c #FEFEFE",
"K.	c #5D91D6",
"L.	c #1867CF",
"M.	c #2972D2",
"N.	c #2E76D3",
"O.	c #1162CD",
"P.	c #367BD5",
"Q.	c #1D6AD0",
"R.	c #2570D2",
"S.	c #357AD5",
"T.	c #F2F6FD",
"U.	c #A1C1EC",
"V.	c #B1CCEF",
"W.	c #5891DC",
"X.	c #206CD1",
"Y.	c #A0C1EB",
"Z.	c #FBFCFF",
"`.	c #E5EEFA",
" +	c #669BDF",
".+	c #9EBFEB",
"++	c #FCFDFF",
"@+	c #AECAEE",
"#+	c #3177D4",
"$+	c #EFF5FC",
"%+	c #1B69D0",
"&+	c #A7C6ED",
"*+	c #4585D8",
"=+	c #84AEE6",
"-+	c #D2E1F6",
";+	c #92B8E9",
">+	c #4484D8",
",+	c #DCE8F8",
"'+	c #D4E3F6",
")+	c #87B0E6",
"!+	c #689CE0",
"~+	c #F7FAFE",
"{+	c #D5E4F7",
"]+	c #80ACE5",
"^+	c #0E61CD",
"/+	c #83AEE5",
"(+	c #75A4E2",
"_+	c #A3C2EC",
":+	c #F2F7FD",
"<+	c #FAFCFF",
"[+	c #BDD3F1",
"}+	c #2F76D4",
"|+	c #F5F9FE",
"1+	c #216DD1",
"2+	c #518DDB",
"3+	c #A4C3EC",
"4+	c #7EAAE4",
"5+	c #F5F9FD",
"6+	c #9FC0EB",
"7+	c #ECF3FB",
"8+	c #3379D5",
"9+	c #1263CE",
"0+	c #F4F8FD",
"a+	c #6398DF",
"b+	c #76A5E3",
"c+	c #3A7ED6",
"d+	c #F9FCFF",
"e+	c #8AB2E7",
"f+	c #2D76D4",
"g+	c #387CD6",
"h+	c #C5D9F3",
"i+	c #78A6E3",
"j+	c #E4EDFA",
"k+	c #236FD2",
"l+	c #71A2E2",
"m+	c #95BAE9",
"n+	c #CFDFF5",
"o+	c #0F61CD",
"p+	c #6096DE",
"q+	c #4D8ADA",
"r+	c #BFD5F2",
"s+	c #FBFDFF",
"t+	c #3E80D7",
"u+	c #246FD2",
"v+	c #4685D9",
"w+	c #BAD2F1",
"x+	c #9CBEEB",
"y+	c #B4CEF0",
"z+	c #F8FBFE",
"A+	c #DAE7F8",
"B+	c #AAC7EE",
"C+	c #D3E2F6",
"D+	c #B3CDEF",
"E+	c #EDF3FC",
"F+	c #EAF1FB",
"G+	c #ADC9EE",
"H+	c #9ABDEA",
"I+	c #3D80D7",
"J+	c #1465CE",
"K+	c #2A73D3",
"                                                                                                                                ",
"              . + @                                                                                                             ",
"              # $ %                                                                                                             ",
"              & $ %                               * = - ; # # > , ' )                                                           ",
"              ! $ ~                           { ] ^ / ( _ _ _ _ _ : < [ }                                                       ",
"              | $ 1                       2 3 4 5 6 7 8 9 0 a b c d e f g                                                       ",
"              h $ i                     j k l m                       n o p                                                     ",
"              , $ q                   r s t u                         v w x                                                     ",
"              , $ y                 z A B C                             D E F                                                   ",
"              G $ H               I J K L                               M N f O                                                 ",
"              P $ Q             R S T U V                                 W X Y =                                               ",
"              Z $ `            ...+.@.                                      #.$.] %.                                            ",
"              Z $ &.      *.=.< -.;.>.                                        ,.'.).!.~.{.                                      ",
"              ].$ &.  ^./.(._.:.{.                                                <.[.}.+.X |.|.|.1.2.2.3.2.4.5.                ",
"              6.$ 7.  2 8.9.0.                                                    V a.b.c.d.e.f.g.h.i.j.k.l.m.n.                ",
"              o.$ p.                                                                                                            ",
"              o.$ q.                                                                                                            ",
"              r.$ s.                                                                                                            ",
"              t.$ u.                                                                                                            ",
"              v.$ w.! ! ! | | | - - - - x.x.y.y.y.y., , z.z.z.z.z.G A.A.A.B.B.B.C.C.Z Z Z Z D.E.E.E.E.F.F.F.F.&.&.G.            ",
"              H.I.$ $ $ $ $ $ $ $ $ $ $ $ $ $ $ $ $ $ $ $ $ $ $ $ $ $ $ $ $ $ $ $ $ $ $ $ $ $ $ $ $ $ $ $ $ $ $ J.K.            ",
"                L.i i i i i i i i i M.M.M.M.q q q q y y y y y y H H H H H H H H p p p p p N.N.N.N.&.&.&.&.F.F.E.&.O.            ",
"                                                                                                                                ",
"                            0.P.P.P.P.P.P.P.Q.  R.P.i     S.P.H.                                                                ",
"                            T.$ $ $ $ $ $ $ C   U.$ V.    B $ W.    X.Y.H.                                                      ",
"                            Z.$ K `.`.`.`.`. +  .+++@+    B $ W.  #+$+$ %+                                                      ",
"                            T $ &+                        B $ W.  *+$ $ %+                                                      ",
"                            T $ &+              =+-+;+    B $ W.>+,+$ $ '+)+    !+-+~+{+]+^+    /+-+(+_+:+@+                    ",
"                            <+$ [+*+*+*+*+}+    U.$ |+1+  B $ W.2+$ $ $ $ 3+  4+$ f '+5+$ &+    6+$ 7+$ $ 3+                    ",
"                            <+$ $ $ $ $ $ D     U.$ _.8+  B $ W.^+b $ $ R.9+X.0+$ a+  v :+$ W   6+$ $ b+c+#+                    ",
"                            d+$ |.{+{+{+{+e+    U.$ $ f+  B $ W.  *+$ $ %+  2+$ ++g+P.P.h+$ i+  6+$ j+                          ",
"                            <+$ &+              U.$ _.k+  B $ W.  *+$ $ %+  l+$ $ $ $ $ $ $ m+  6+$ n+                          ",
"                            <+$ &+              U.$ _.o+  B $ W.  *+$ $ %+  p+$ ~+q+q+q+q+q+S.  6+$ r+                          ",
"                            s+$ &+              U.$ T     B $ W.  t+$ $ u+  }+f $ v+  L.w+x+c+  6+$ y+                          ",
"                            z+$ &+              U.$ |+    B $ W.  v $ $ A+6+  B+$ :+U.C+$ $+1+  6+$ D+                          ",
"                            E+$ &+              U.$ F+    B $ W.    G+$ $ w+  V H+5+$ $ -+I+    6+$ D+                          ",
"                                                  J+K+                u+u+        ^+}+u+>.                                      ",
"                                                                                                                                ",
"                                                                                                                                ",
"                                                                                                                                ",
"                                                                                                                                ",
"                                                                                                                                "};
