/* XPM */
static char * Thinklabs_button_Display_xpm[] = {
"64 42 566 2",
"  	c #00214D",
". 	c #000000",
"+ 	c #0F0F0F",
"@ 	c #797979",
"# 	c #848484",
"$ 	c #0E0E0E",
"% 	c #1F1F1F",
"& 	c #FBFBFB",
"* 	c #FFFFFF",
"= 	c #2F2F2F",
"- 	c #009195",
"; 	c #00E9F1",
"> 	c #001115",
", 	c #001C24",
"' 	c #00AECA",
") 	c #006367",
"! 	c #000D10",
"~ 	c #0092B7",
"{ 	c #001015",
"] 	c #1E1E1E",
"^ 	c #303030",
"/ 	c #003A3C",
"( 	c #00FDFE",
"_ 	c #00FFFF",
": 	c #00AEB3",
"< 	c #000B0E",
"[ 	c #00A0B8",
"} 	c #00FAFD",
"| 	c #00E5EC",
"1 	c #002C2F",
"2 	c #002631",
"3 	c #00F9FF",
"4 	c #008995",
"5 	c #FCFCFC",
"6 	c #000304",
"7 	c #000C0F",
"8 	c #000E11",
"9 	c #003A3D",
"0 	c #00ECEE",
"a 	c #00EAF8",
"b 	c #00C5D1",
"c 	c #00F7F9",
"d 	c #001E21",
"e 	c #002E36",
"f 	c #00FAFF",
"g 	c #00CFD2",
"h 	c #00F7FF",
"i 	c #00BFC3",
"j 	c #000505",
"k 	c #001920",
"l 	c #000F13",
"m 	c #001418",
"n 	c #001B1F",
"o 	c #002124",
"p 	c #002123",
"q 	c #002427",
"r 	c #002629",
"s 	c #001214",
"t 	c #006F7A",
"u 	c #00D9E2",
"v 	c #1D1D1D",
"w 	c #313131",
"x 	c #003745",
"y 	c #00F3FE",
"z 	c #00FDFF",
"A 	c #00E7F3",
"B 	c #002B36",
"C 	c #00444B",
"D 	c #008488",
"E 	c #00D5DF",
"F 	c #00F0F3",
"G 	c #000202",
"H 	c #00CCD4",
"I 	c #00F3F9",
"J 	c #006163",
"K 	c #000C0C",
"L 	c #007D8B",
"M 	c #00E5EF",
"N 	c #00FBFF",
"O 	c #00FCFF",
"P 	c #00F8FE",
"Q 	c #00B9C5",
"R 	c #00D3DA",
"S 	c #00F3F8",
"T 	c #00F7FB",
"U 	c #323232",
"V 	c #000608",
"W 	c #003A40",
"X 	c #00484F",
"Y 	c #003940",
"Z 	c #00171C",
"` 	c #00E8F7",
" .	c #00E9EC",
"..	c #005257",
"+.	c #00262A",
"@.	c #00ECF7",
"#.	c #00F6F7",
"$.	c #00E7EC",
"%.	c #00D5D7",
"&.	c #00464A",
"*.	c #00262C",
"=.	c #00252B",
"-.	c #002329",
";.	c #001D25",
">.	c #001F27",
",.	c #001116",
"'.	c #001A22",
").	c #00BCD6",
"!.	c #004C54",
"~.	c #00B4C3",
"{.	c #00FEFF",
"].	c #003C40",
"^.	c #1C1C1C",
"/.	c #FDFDFD",
"(.	c #008CA4",
"_.	c #00F4FA",
":.	c #00D8E1",
"<.	c #00323F",
"[.	c #00D6F2",
"}.	c #00F2F9",
"|.	c #00898D",
"1.	c #008CA1",
"2.	c #00F8FC",
"3.	c #00B2C4",
"4.	c #006C7A",
"5.	c #00F0F9",
"6.	c #00BABE",
"7.	c #007F98",
"8.	c #007285",
"9.	c #000A0A",
"0.	c #333333",
"a.	c #00242E",
"b.	c #00BADB",
"c.	c #005B5E",
"d.	c #003542",
"e.	c #000E12",
"f.	c #000102",
"g.	c #001013",
"h.	c #00191C",
"i.	c #002C31",
"j.	c #00F3FA",
"k.	c #00EEF1",
"l.	c #00414B",
"m.	c #00AFC1",
"n.	c #001014",
"o.	c #00F1FF",
"p.	c #00D8DF",
"q.	c #002526",
"r.	c #003B3D",
"s.	c #004346",
"t.	c #001F21",
"u.	c #000506",
"v.	c #1B1B1B",
"w.	c #3D3D3D",
"x.	c #0C0C0C",
"y.	c #080808",
"z.	c #006C70",
"A.	c #00FCFE",
"B.	c #00767A",
"C.	c #002227",
"D.	c #00161B",
"E.	c #00191D",
"F.	c #005162",
"G.	c #00FAFC",
"H.	c #00888E",
"I.	c #00FAFE",
"J.	c #007E84",
"K.	c #00FBFD",
"L.	c #004354",
"M.	c #FEFEFE",
"N.	c #C9C9C9",
"O.	c #C2C2C2",
"P.	c #C3C3C3",
"Q.	c #C4C4C4",
"R.	c #C5C5C5",
"S.	c #C6C6C6",
"T.	c #C7C7C7",
"U.	c #C8C8C8",
"V.	c #919191",
"W.	c #001315",
"X.	c #006067",
"Y.	c #006D73",
"Z.	c #006064",
"`.	c #004849",
" +	c #000F12",
".+	c #00F9FC",
"++	c #008D97",
"@+	c #00404A",
"#+	c #001316",
"$+	c #00161C",
"%+	c #00F5FF",
"&+	c #00E5E8",
"*+	c #00EEF5",
"=+	c #001215",
"-+	c #006E7C",
";+	c #003E4B",
">+	c #003441",
",+	c #002C38",
"'+	c #002833",
")+	c #4D4D4D",
"!+	c #202020",
"~+	c #858585",
"{+	c #D8D8D8",
"]+	c #E4E4E4",
"^+	c #E3E3E3",
"/+	c #E1E1E1",
"(+	c #E0E0E0",
"_+	c #DCDCDC",
":+	c #DADADA",
"<+	c #D9D9D9",
"[+	c #D6D6D6",
"}+	c #D4D4D4",
"|+	c #E2E2E2",
"1+	c #D1D1D1",
"2+	c #2C2C2C",
"3+	c #111111",
"4+	c #00E6EB",
"5+	c #00D1DC",
"6+	c #008898",
"7+	c #00DDF4",
"8+	c #00FCFD",
"9+	c #00D5DE",
"0+	c #1A1A1A",
"a+	c #353535",
"b+	c #ABABB1",
"c+	c #DCDCE2",
"d+	c #DADAE3",
"e+	c #D8D8E2",
"f+	c #D8D8E0",
"g+	c #DDDDE0",
"h+	c #DEDEDF",
"i+	c #E0E0E1",
"j+	c #DFDFE0",
"k+	c #E3E3E4",
"l+	c #E3E5E5",
"m+	c #DBE2E2",
"n+	c #DFDFDF",
"o+	c #DEDEDE",
"p+	c #232323",
"q+	c #00ACB1",
"r+	c #00F7FC",
"s+	c #00C1CE",
"t+	c #00EFF2",
"u+	c #0095B2",
"v+	c #00ACB6",
"w+	c #363636",
"x+	c #B4B4D1",
"y+	c #9F9FE1",
"z+	c #6CB5FD",
"A+	c #19EFFF",
"B+	c #05FBFF",
"C+	c #3CD0F8",
"D+	c #57BCF6",
"E+	c #8184DC",
"F+	c #5F5F9F",
"G+	c #34B1D4",
"H+	c #46A1D0",
"I+	c #6386C9",
"J+	c #6E80CC",
"K+	c #6B79C4",
"L+	c #6666AA",
"M+	c #666AAC",
"N+	c #77A7D2",
"O+	c #76B7D5",
"P+	c #48D3E6",
"Q+	c #07F8FB",
"R+	c #6391B0",
"S+	c #747490",
"T+	c #797988",
"U+	c #C9C9CA",
"V+	c #050505",
"W+	c #003235",
"X+	c #00F0F6",
"Y+	c #00CDD4",
"Z+	c #00586D",
"`+	c #008C92",
" @	c #191919",
".@	c #373737",
"+@	c #A0A3A5",
"@@	c #0FCEDC",
"#@	c #0CECFB",
"$@	c #14EEFD",
"%@	c #35D2F6",
"&@	c #0BEEF6",
"*@	c #2CBCDD",
"=@	c #24DDF6",
"-@	c #20B7CD",
";@	c #04B9C3",
">@	c #01ECF2",
",@	c #028CAB",
"'@	c #0089AB",
")@	c #00C9E0",
"!@	c #00DDE8",
"~@	c #01DDED",
"{@	c #00DEE3",
"]@	c #04F5FA",
"^@	c #0BE4EE",
"/@	c #16CFE0",
"(@	c #39AED7",
"_@	c #2B697D",
":@	c #00E9F3",
"<@	c #008087",
"[@	c #00E9F9",
"}@	c #006165",
"|@	c #0B8999",
"1@	c #01DFE4",
"2@	c #3F6162",
"3@	c #A40000",
"4@	c #1D4D5C",
"5@	c #00E4F1",
"6@	c #00E6EF",
"7@	c #00F8FB",
"8@	c #01E9FA",
"9@	c #3597BC",
"0@	c #3C6680",
"a@	c #912F3B",
"b@	c #880000",
"c@	c #0B2E3A",
"d@	c #012B37",
"e@	c #253133",
"f@	c #BB1D1D",
"g@	c #1C2029",
"h@	c #367592",
"i@	c #913E4B",
"j@	c #0A7389",
"k@	c #00A8C3",
"l@	c #00C3D4",
"m@	c #00B4C1",
"n@	c #0091A6",
"o@	c #003D44",
"p@	c #001818",
"q@	c #181818",
"r@	c #5C0808",
"s@	c #B71919",
"t@	c #F60E0E",
"u@	c #FE1919",
"v@	c #FA0101",
"w@	c #7A0506",
"x@	c #032630",
"y@	c #3C596F",
"z@	c #D0212A",
"A@	c #BC2931",
"B@	c #EC2121",
"C@	c #EF1414",
"D@	c #EA0000",
"E@	c #EF0000",
"F@	c #F90000",
"G@	c #F80000",
"H@	c #F30000",
"I@	c #B80000",
"J@	c #A10000",
"K@	c #D90000",
"L@	c #EB0000",
"M@	c #CD0202",
"N@	c #FD1717",
"O@	c #F61E1E",
"P@	c #080000",
"Q@	c #002933",
"R@	c #00AEDA",
"S@	c #000D11",
"T@	c #A70000",
"U@	c #AC2C2C",
"V@	c #FFD4D4",
"W@	c #FFF8F8",
"X@	c #FDAEAE",
"Y@	c #E81111",
"Z@	c #E90000",
"`@	c #F70000",
" #	c #EB0808",
".#	c #F4EDED",
"+#	c #683838",
"@#	c #F50000",
"##	c #F60000",
"$#	c #AF0000",
"%#	c #ED0000",
"&#	c #8C3F3F",
"*#	c #FEF4F4",
"=#	c #ED3232",
"-#	c #FE1313",
";#	c #D56F6F",
">#	c #AE0000",
",#	c #F90202",
"'#	c #FF0E0E",
")#	c #E20000",
"!#	c #D20000",
"~#	c #F0A4A4",
"{#	c #FEFCFC",
"]#	c #E7DEDE",
"^#	c #BD4242",
"/#	c #DA0000",
"(#	c #AC0000",
"_#	c #BD0000",
":#	c #CA8484",
"<#	c #FED1D1",
"[#	c #F44D4D",
"}#	c #A50000",
"|#	c #0A0000",
"1#	c #0A0A0A",
"2#	c #7D7D7D",
"3#	c #B0B0B0",
"4#	c #7E0000",
"5#	c #B10000",
"6#	c #A70303",
"7#	c #C05555",
"8#	c #A20000",
"9#	c #9E0000",
"0#	c #DD0606",
"a#	c #A41C1C",
"b#	c #AB2C2C",
"c#	c #A82525",
"d#	c #9D0A0A",
"e#	c #990000",
"f#	c #9B0505",
"g#	c #A41A1A",
"h#	c #9A0202",
"i#	c #950000",
"j#	c #910000",
"k#	c #B20000",
"l#	c #450000",
"m#	c #233F65",
"n#	c #2C476C",
"o#	c #29446A",
"p#	c #14325B",
"q#	c #01224E",
"r#	c #244066",
"s#	c #264267",
"t#	c #123059",
"u#	c #CDD4DC",
"v#	c #F6F8F9",
"w#	c #A1ADBE",
"x#	c #D4DAE1",
"y#	c #72849D",
"z#	c #DDE2E8",
"A#	c #687C96",
"B#	c #F4F6F8",
"C#	c #E4E8ED",
"D#	c #EFF2F4",
"E#	c #FCFDFD",
"F#	c #CBD2DB",
"G#	c #02224E",
"H#	c #D0D6DF",
"I#	c #FBFCFD",
"J#	c #70839B",
"K#	c #98A5B7",
"L#	c #092853",
"M#	c #7C8DA4",
"N#	c #637792",
"O#	c #BAC3CF",
"P#	c #ACB7C5",
"Q#	c #CFD6DE",
"R#	c #5C718D",
"S#	c #657994",
"T#	c #D2D8E0",
"U#	c #0D2C56",
"V#	c #AFBAC7",
"W#	c #D9DEE5",
"X#	c #6B7E98",
"Y#	c #4A6181",
"Z#	c #C8CFD9",
"`#	c #F2F4F6",
" $	c #042450",
".$	c #C3CBD5",
"+$	c #9DAABB",
"@$	c #7A8BA2",
"#$	c #F0F2F5",
"$$	c #596E8B",
"%$	c #F5F7F8",
"&$	c #C0C8D3",
"*$	c #FEFFFF",
"=$	c #546A88",
"-$	c #102F58",
";$	c #E2E6EB",
">$	c #E8EBEF",
",$	c #304B6E",
"'$	c #F9FAFB",
")$	c #E1E5EA",
"!$	c #A0ACBD",
"~$	c #BDC6D1",
"{$	c #112F59",
"]$	c #FAFBFC",
"^$	c #435B7C",
"/$	c #607590",
"($	c #A5B1C0",
"_$	c #95A3B5",
":$	c #76889F",
"<$	c #8B9AAE",
"[$	c #40597A",
"}$	c #C5CDD7",
"|$	c #0C2B55",
"1$	c #EDF0F3",
"2$	c #0A2954",
"3$	c #B3BDCA",
"4$	c #B0BAC8",
"5$	c #41597A",
"6$	c #16345C",
"7$	c #5E738F",
"8$	c #03234F",
"9$	c #8393A9",
"0$	c #9CA9BA",
"a$	c #4E6583",
"b$	c #516786",
"c$	c #213D64",
"d$	c #2F4A6E",
"e$	c #052550",
"f$	c #3E5778",
"g$	c #8091A7",
"h$	c #D8DDE4",
"i$	c #B5BFCC",
"j$	c #E0E4EA",
"k$	c #667A94",
"l$	c #8C9BAF",
"m$	c #7F90A6",
"n$	c #F1F3F6",
"o$	c #B8C1CE",
"p$	c #E6EAEE",
"q$	c #375173",
"r$	c #4B6281",
"s$	c #062651",
"t$	c #94A2B5",
"u$	c #EEF1F4",
"v$	c #EAEDF1",
"w$	c #8494A9",
"x$	c #C2CAD5",
"y$	c #2E496D",
"z$	c #788AA1",
"A$	c #BBC4D0",
"B$	c #DBE0E6",
"C$	c #17355D",
"D$	c #334D71",
"E$	c #8A99AE",
"F$	c #DEE3E8",
"G$	c #526886",
"H$	c #0B2A55",
"I$	c #8897AC",
"J$	c #254167",
"K$	c #8998AD",
"L$	c #BFC8D3",
"M$	c #B9C2CE",
"N$	c #C6CED8",
"O$	c #798AA2",
"P$	c #A7B3C2",
"Q$	c #E3E7EC",
"R$	c #D5DBE2",
"S$	c #BCC5D1",
"T$	c #8696AB",
"U$	c #CAD1DA",
"V$	c #1F3C63",
"W$	c #E7EBEF",
"X$	c #5A6F8C",
"Y$	c #9BA8B9",
"Z$	c #DCE1E7",
"`$	c #1E3B62",
" %	c #CED5DD",
".%	c #F7F9FA",
"+%	c #C1C9D4",
"@%	c #223E65",
"#%	c #274368",
"$%	c #082852",
"%%	c #365073",
"&%	c #203D63",
"*%	c #19365E",
"=%	c #677B95",
"-%	c #314B6F",
";%	c #71839C",
">%	c #13315A",
",%	c #8191A7",
"                                                                                                                                ",
"                                                                                                                                ",
"                                                                                                                                ",
"        . . . . . . . . . . . . . . . . . . . . . . . . . + @ # $ . . . . . . . . . . . . . . . . . . . . . . . . . . .         ",
"        . . . . . . . . . . . . . . . . . . . . . . . . . % & * = . . . . . - ; > . . , ' ) . . . . . . . . . . . . . .         ",
"        . . . . . . . . . . ! ~ { . . . . . . . . . . . . ] & * ^ . . . . / ( _ : . < [ } | 1 . . . . . . . . . . . . .         ",
"        . . . . . . . . . . 2 3 4 . . . . . . . . . . . . ] 5 * ^ 6 7 8 9 0 a b c d e f g h i j . . k l m n o p q r s .         ",
"        . . . . . . . . . . t _ u < . . . . . . . . . . . v 5 * w x y z z A B C 3 D E F G H I J K L M N O O N O N P Q .         ",
"        . . . . . . . . . . R S T < . . . . . . . . . . . v 5 * U V W X Y Z . < `  .f ... +.@.#.$.f %.&.*.*.=.-.;.>.,..         ",
"        . . . . . '.).!.. < c ~.{.].. l . . . . . . . . . ^./.* U . . . . . . . (._.:.. . . <.[.}.|.. . . . . . . . . .         ",
"        . . . . . 1.2.3.< < ( 4.5.6.6 7.8.9.. . . . . . . ^./.* 0.. . . . . . . a.b.c.. . . . d.e.. . . . . . . . . . .         ",
"        . f.g.h.i.j.k.2.7 7 {.l.m.F n.o.f p.q.< q r.s.t.u.v./.* w.x.x.x.x.x.x.x.x.x.x.x.x.x.x.x.x.x.x.x.x.x.x.x.x.x.x.y.        ",
"        . z.A._ _ ( B._ C.D._ E.F.G.H.I.J.K._ _ _ _ _ I.L.v.M.* N.O.O.O.O.P.P.P.P.P.Q.Q.R.R.R.S.S.S.S.T.T.T.T.T.T.T.U.V.        ",
"        . W.X.Y.Z.`. +.+++@+{.#+$+%+&+*+=+l -+;+>+,+'+a.< v.M.* )+!+~+{+]+]+]+^+/+(+_+:+<+{+[+}+{+:+<+}+(+|+^+|+<+1+2+3+        ",
"        . . . . . . . 4+5+6+K.< < 7+8+9+< . . . . . . . . 0+M.* a+. b+c+d+e+f+g+^+^+/+(+(+(+/+h+i+j+^+k+l+m+n+/+o+:+p+.         ",
"        . . . . . . . q+r+s+t+< < u+_ v+. . . . . . . . . 0+M.* w+. x+y+z+A+B+C+D+E+F+G+H+I+J+K+L+M+N+O+P+Q+R+S+T+U+V+.         ",
"        . . . . . . . W+O X+Y+. . Z+z `+. . . . . . . . .  @* * .@. +@@@.+#@$@%@&@*@=@-@;@>@,@'@'@)@!@~@{@]@^@/@(@_@. .         ",
"        . . . . . . . < :@_ <@. . ;.[@}@. . . . . . . . .  @* * .@. |@1@2@3@4@5@6@7@8@9@0@a@b@c@d@e@f@g@h@i@j@k@l@m@. .         ",
"        . . . . . . . . n@O o@. . . p@K . . . . . . . . . q@* * .@. r@s@t@u@v@w@x@y@z@A@B@C@D@E@F@G@H@I@J@K@L@M@N@O@P@.         ",
"        . . . . . . . . Q@R@S@. . . . . . . . . . . . . . q@* * .@. T@U@V@W@X@Y@Z@`@ #.#* * +#@###$#%#&#5 * *#=#-#;#. .         ",
"        . . . . . . . . . . . . . . . . . . . . . . . . . q@* * .@. >#,#* * * '#)#!#~#{#* * ]#^#/#(#_#:#* * * <#[#}#|#.         ",
"        . . . . . . . . . . . . . . . . . . . . . . . . . 1#2#3#v . 4#(#5#6#7#8#9#9#!#0#a#b#c#d#e#e#e#e#f#g#h#i#j#k#l#.         ",
"                                                                                                                                ",
"      m#n#n#n#o#p#q#          r#n#p#                                          s#n#t#                                            ",
"      u#* * * * * v#w#t#      x#* y#                                          z#* A#                                            ",
"      u#* B#C#D#E#* * F#G#    H#I#J#                                          z#* A#                                            ",
"      u#* K#    L#M#* * N#                                                    z#* A#                                            ",
"      u#* K#        O#* u#    P#Q#R#    S#x#v#v#T#N#    U#Q#Q#s#V#D#W#X#      z#* A#    Y#Z#B#`#F#M#q# $.$Q#R#      +$Q#@$      ",
"      u#* K#        M#* #$    x#* y#  $$* %$&$F#*$* =$  -$* * ;$`#>$* * J#    z#* A#  ,$'$* )$C#* * A#  !$* ~$    {$]$* ^$      ",
"      u#* K#        /$* * p#  x#* y#  ($* _$G#  :$<$[$  -$* * }$|$G#+$* 1$2$  z#* A#  Y#3$+$    4$* K#  5$* E#6$  7$* C#8$      ",
"      u#* K#        N#* * 6$  x#* y#  9$* * >$0$a$L#    -$* * b$    c$* * d$  z#* A#      e$f$g$h$* i$  G#j$* k$  4$* l$        ",
"      u#* K#        m$* n$    x#* y#  |$o$* * * * p$^$  -$* * q$     $* * r$  z#* A#  s$t$u$* '$v$* i$    w$* O#|$v#* ,$        ",
"      u#* K#        x$* Z#    x#* y#      y$z$A$I#* B$  -$* * b$    C$* * D$  z#* A#  E$* F$G$H$I$* 3$    s#*$I#A#* x#          ",
"      u#* +$|$-$J$K$* * N#    x#* y#  l$L$J#    S#* #$  -$* * M$ $  :$* %$U#  z#* A#  F#* K$    A$* o$      N$* D#* O$          ",
"      u#* * * * * * * V#G#    x#* y#  K$* v#P$_$Q$* !$  -$* * *$R$S$*$* T$    z#* A#  P$* u$<$S$* * U$      A#* * *$V$          ",
"      u#* * * *$W$}$X$q#      x#* y#  8$T$n$* * I#Y$|$  -$* * S#Z$* I#t$s$    z#* A#  `$ %* *  %7$* '${$    {$.%* +%            ",
"                                          s$@%#%$%      -$* * %%q#@%H$                  G#&%*%              *%.%* =%            ",
"                                                        -$* * %%                                        -%G$O#* n$-$            ",
"                                                        -$* * %%                                        :$* * * ;%              ",
"                                                        s$R#R#>%                                        n#T$,%[$                ",
"                                                                                                                                ",
"                                                                                                                                "};
