/* XPM */
static char * CutDisabled[] = {
"20 18 8 1",
" 	c None",
".	c #A8A8A8",
"+	c #919191",
"@	c #6B6B6B",
"#	c #757575",
"$	c #717171",
"%	c #7575A4",
"&	c #AAA9A7",
"....................",
"....................",
"....+......@........",
"....+.+...#@.+......",
"....+.+.+.#@.+......",
"++++.+.+.@#+.+.++++.",
".....+.+.#$.+.+.....",
".....+..@#@.+.+.....",
"........@#....+.....",
".......@@@..........",
"....%%%%@%..........",
"...%.&%..%..........",
"...%&&%.%%%.........",
"...%..%.%&.%........",
"....%%..%&&%........",
"........%..%........",
".........%%.........",
"...................."};
