/* XPM */
static const char * Draw[] = {
"27 27 117 2",
"  	c None",
". 	c #D6D6D6",
"+ 	c #D7D7D7",
"@ 	c #D9D9D9",
"# 	c #DBDBDB",
"$ 	c #D8D8D8",
"% 	c #BBB9BB",
"& 	c #000000",
"* 	c #111111",
"= 	c #CFD0CF",
"- 	c #DADADA",
"; 	c #DDDDDD",
"> 	c #C5B6B4",
", 	c #8B6D6A",
"' 	c #AC594A",
") 	c #BD6152",
"! 	c #090909",
"~ 	c #C7C8C7",
"{ 	c #D8D7D8",
"] 	c #ACAEAC",
"^ 	c #393839",
"/ 	c #AC918B",
"( 	c #943020",
"_ 	c #832C20",
": 	c #CD5039",
"< 	c #B9BBB9",
"[ 	c #C5AEAC",
"} 	c #621C10",
"| 	c #9C3420",
"1 	c #E6998B",
"2 	c #B2B4B2",
"3 	c #D5D6D5",
"4 	c #AFB1AF",
"5 	c #B4958B",
"6 	c #A43420",
"7 	c #8B2C20",
"8 	c #DE7D73",
"9 	c #837173",
"0 	c #B4B3B4",
"a 	c #DFDFDF",
"b 	c #E6DEDE",
"c 	c #BDA5A4",
"d 	c #A48D8B",
"e 	c #CD7D73",
"f 	c #E6A59C",
"g 	c #7B6562",
"h 	c #B4B2B4",
"i 	c #D7D6D7",
"j 	c #B4B6B4",
"k 	c #202420",
"l 	c #E6E2E6",
"m 	c #CDCECD",
"n 	c #BDBABD",
"o 	c #E6D6D5",
"p 	c #9C9594",
"q 	c #9C9D9C",
"r 	c #CAC7CA",
"s 	c #CDBEA4",
"t 	c #DEAA41",
"u 	c #AC8D39",
"v 	c #EECE7B",
"w 	c #D5D5D5",
"x 	c #B0B2B0",
"y 	c #414041",
"z 	c #BDAA8B",
"A 	c #7B797B",
"B 	c #CBC9CB",
"C 	c #E4E4E4",
"D 	c #C5B694",
"E 	c #EEDEA4",
"F 	c #7B756A",
"G 	c #D5D4D5",
"H 	c #DEC294",
"I 	c #83857B",
"J 	c #C2C3C2",
"K 	c #E2E2E2",
"L 	c #D5C69C",
"M 	c #F6EED5",
"N 	c #7B7562",
"O 	c #CDCACD",
"P 	c #E6D2BD",
"Q 	c #838173",
"R 	c #DCDCDC",
"S 	c #7B7D7B",
"T 	c #6A6D6A",
"U 	c #A47D52",
"V 	c #BD956A",
"W 	c #E1E1E1",
"X 	c #9C8162",
"Y 	c #CFCECF",
"Z 	c #E0E0E0",
"` 	c #B49D83",
" .	c #BD9D83",
"..	c #CDB294",
"+.	c #D5CEB4",
"@.	c #8B857B",
"#.	c #E0DEE0",
"$.	c #9C9183",
"%.	c #B4AEA4",
"&.	c #DED6C5",
"*.	c #948973",
"=.	c #B7B6B7",
"-.	c #D2D3D2",
";.	c #DDDBDD",
">.	c #6A6962",
",.	c #948D7B",
"'.	c #B1B2B1",
").	c #D4D4D4",
"!.	c #DCDBDC",
"~.	c #5A5952",
"{.	c #838183",
"].	c #ACAAAC",
"^.	c #D3D3D3",
"/.	c #737573",
"(.	c #AFADAF",
"_.	c #3B3B3B",
":.	c #C1C2C1",
". . . . . . . . . . . . . . . . . . . . . . . . . . . ",
". . . . . . . . . . . . . + + . . + . . . . . . . . . ",
". . . . . . . . . . . . . @ # # $ + + . . . . . . . . ",
". . . . . . . . . . . . $ % & & * * = - . . . . . . . ",
". . . . . . . . . . . . ; & > , ' ) ! ~ { . . . . . . ",
". . . . . . . . . + . $ ] ^ / ( _ : & < { . . . . . . ",
". . . . . . . . . + . ; & [ } | : 1 & 2 3 + . . . . . ",
". . . . . . . . . . @ 4 ^ 5 6 7 8 9 & 0 3 . . . . . . ",
". . . . . . . . . + a & b c d e f & g h i . . . . . . ",
". . . . . . . $ $ $ j k l m n o p & q r + + . . . . . ",
". . . . . . . + @ - & s t u v 3 & g j w . . . . . . . ",
". . . . . . + . @ x y z t u v A & q B . . . . . . . . ",
". . . . . . . . C & D t u v E & F ] G . . . . . . . . ",
". . . . . . . $ ] y H t u v I & q J . . . . . . . . . ",
". . . . . + . K & L t u v M & N ] w . . . . . . . . . ",
". . . . . @ $ O y P t u v Q & q B . . . . . . . . . . ",
". . . . . $ R S T U V V M & N ] w . . . . . . . . . . ",
". . . . . + W & z X V M Q & q Y . . . . . . . . . . . ",
". . . . . + Z & `  ...+.& @.j w . . . . . . . . . . . ",
". . . . . . #.& $.%.&.& *.=.-.. . . . . . . . . . . . ",
". . . . . . ;.& >.q & ,.'.).. . . . . . . . . . . . . ",
". . . . . + !.& ~.& {.].^.. . . . . . . . . . . . . . ",
". . . . . . - & & /.(.^.. . . . . . . . . . . . . . . ",
". . . . . . $ _.A :.w . . . . . . . . . . . . . . . . ",
". . . . . . - . w w . . . . . . . . . . . . . . . . . ",
". . . . . . $ . . . . . . . . . . . . . . . . . . . . ",
". . . . . . . . . . . . . . . . . . . . . . . . . . . "};
