/* XPM */
static const char * Zoom[] = {
"27 27 105 2",
"  	c None",
". 	c #FFFFFF",
"+ 	c #D5D2D5",
"@ 	c #7B797B",
"# 	c #5A595A",
"$ 	c #000000",
"% 	c #414441",
"& 	c #8B8D8B",
"* 	c #DEDEDE",
"= 	c #9C9D9C",
"- 	c #101010",
"; 	c #414C5A",
"> 	c #6A7D94",
", 	c #73859C",
"' 	c #7389A4",
") 	c #6A819C",
"! 	c #39485A",
"~ 	c #080C08",
"{ 	c #5A7183",
"] 	c #8B9DB4",
"^ 	c #BDC2CD",
"/ 	c #D5DEE6",
"( 	c #A4B6CD",
"_ 	c #7B95B4",
": 	c #CDCECD",
"< 	c #737173",
"[ 	c #94A1B4",
"} 	c #D5DADE",
"| 	c #F6F6F6",
"1 	c #F6F6FF",
"2 	c #EEEEF6",
"3 	c #D5E2EE",
"4 	c #94AEC5",
"5 	c #8399BD",
"6 	c #415062",
"7 	c #737573",
"8 	c #BDC6CD",
"9 	c #D5DEEE",
"0 	c #B4C2D5",
"a 	c #83A1BD",
"b 	c #8BA5BD",
"c 	c #738DAC",
"d 	c #393839",
"e 	c #E6E6E6",
"f 	c #E6E6EE",
"g 	c #FFFAFF",
"h 	c #E6EEF6",
"i 	c #B4C6DE",
"j 	c #8BA5C5",
"k 	c #839DBD",
"l 	c #BDBEBD",
"m 	c #E6EAF6",
"n 	c #8BAAC5",
"o 	c #8BA1BD",
"p 	c #839DB4",
"q 	c #B4B6B4",
"r 	c #DEDADE",
"s 	c #292C29",
"t 	c #62758B",
"u 	c #94AABD",
"v 	c #CDD6E6",
"w 	c #B4C6D5",
"x 	c #94AAC5",
"y 	c #ACC2D5",
"z 	c #6A89A4",
"A 	c #B4B2B4",
"B 	c #E9E6E9",
"C 	c #626162",
"D 	c #394052",
"E 	c #8399B4",
"F 	c #BDCAD5",
"G 	c #BDBABD",
"H 	c #FAFAFA",
"I 	c #A4A5A4",
"J 	c #000400",
"K 	c #4A6173",
"L 	c #627D94",
"M 	c #8395AC",
"N 	c #9CB2C5",
"O 	c #ACBECD",
"P 	c #9CAEC5",
"Q 	c #5A718B",
"R 	c #9C999C",
"S 	c #CDCACD",
"T 	c #A4A1A4",
"U 	c #525052",
"V 	c #394452",
"W 	c #6A6D6A",
"X 	c #202420",
"Y 	c #6A696A",
"Z 	c #949594",
"` 	c #949194",
" .	c #101410",
"..	c #626562",
"+.	c #C5C6C5",
"@.	c #C5C2C5",
"#.	c #B4B4B4",
"$.	c #FBFBFB",
"%.	c #E6E2E6",
"&.	c #D5D6D5",
"*.	c #ACAAAC",
"=.	c #8B898B",
"-.	c #080808",
";.	c #181C18",
">.	c #7B7D7B",
". . . . . . . . . . . . . . . . . . . . . . . . . . . ",
". . . . . . . . . . . . . . . . . . . . . . . . . . . ",
". . . . . . . . . . . . . . . . . . . . . . . . . . . ",
". . . . . . . . . . . . . . . . . . . . . . . . . . . ",
". . . . . . . . . . . + @ # $ $ % & * . . . . . . . . ",
". . . . . . . . . . = - ; > , ' ) ! ~ = . . . . . . . ",
". . . . . . . . . + - { ] ^ / / ( _ { ~ : . . . . . . ",
". . . . . . . . . < ; [ } | 1 2 3 4 5 6 7 * . . . . . ",
". . . . . . . . . % > 8 1 1 2 9 0 a b c d : e . . . . ",
". . . . . . . . . $ , f g h 9 i j a 4 k $ l * . . . . ",
". . . . . . . . . $ > / m 9 i n o k ( p $ q r . . . . ",
". . . . . . . . . s t u v w j o o x y z d A B . . . . ",
". . . . . . . . . C D ) E k k o 4 F b 6 < G H . . . . ",
". . . . . . . . B I J K L M ] N O P Q J R S . . . . . ",
". . . . . . . . T U $ ~ V t ) ) ) 6 J W G B . . . . . ",
". . . . . . : $ J J X C U s $ $ s Y Z G + . . . . . . ",
". . . . . l X G `  ...A +.S @.G q l S B . . . . . . . ",
". . . . S ~ A W $ $ I @.#.$.%.* r * . . . . . . . . . ",
". . . + $ q W $ $ W q &.. . . . . . . . . . . . . . . ",
". . . $ *.7 $ $ Y A : . . . . . . . . . . . . . . . . ",
". . . =.-.;.$ < A : . . . . . . . . . . . . . . . . . ",
". . . . ..$ >.A : . . . . . . . . . . . . . . . . . . ",
". . . . . + +.+ . . . . . . . . . . . . . . . . . . . ",
". . . . . . . . . . . . . . . . . . . . . . . . . . . ",
". . . . . . . . . . . . . . . . . . . . . . . . . . . ",
". . . . . . . . . . . . . . . . . . . . . . . . . . . ",
". . . . . . . . . . . . . . . . . . . . . . . . . . . "};
