/* XPM */
static const char * Undo[] = {
"20 18 4 1",
" 	c None",
".	c #CCCCCC",
"+	c #222222",
"@	c #000000",
"....................",
"....................",
"....................",
"....................",
"....................",
"..........+++.......",
"........++...++.....",
"....+..+.......+....",
"....+++.........+...",
"....+@+.........+...",
"....++++........+...",
"................+...",
"...............+....",
".............++.....",
"....................",
"....................",
"....................",
"...................."};
