/* XPM */
static const char * ZoomOut[] = {
"20 18 8 1",
" 	c None",
".	c #CCCCCC",
"+	c #EF0404",
"@	c #1C1C1C",
"#	c #F7F7F7",
"$	c #FFFFFF",
"%	c #CFCECC",
"&	c #AEAEAE",
"....................",
"....................",
"....................",
".+++++....@@@@......",
".........@#$$%@.....",
"........@$$&&$$@....",
".......@#$&$$$$#@...",
".......@$&$$$$$$@...",
".......@$$$$$$$$@...",
".......@#$$$$$$#@...",
"........@$$$$$$@....",
".......@@@#$$#@.....",
"......@@@.@@@@......",
".....@@@............",
"....@@@.............",
"...@@@..............",
"..@@@...............",
"...@................"};
