/* XPM */
static char * Down[] = {
"27 27 44 1",
" 	c None",
".	c #000000",
"+	c #010101",
"@	c #050505",
"#	c #101010",
"$	c #030303",
"%	c #070707",
"&	c #020202",
"*	c #404040",
"=	c #131313",
"-	c #0C0C0C",
";	c #232323",
">	c #434343",
",	c #5F5F5F",
"'	c #0B0B0B",
")	c #9B9B9B",
"!	c #CCCCCC",
"~	c #E9E9E9",
"{	c #FFFFFF",
"]	c #383838",
"^	c #2A2A2A",
"/	c #DADADA",
"(	c #F1F1F1",
"_	c #FEFEFE",
":	c #A1A1A1",
"<	c #D2D2D2",
"[	c #E0E0E0",
"}	c #FCFCFC",
"|	c #0A0A0A",
"1	c #ACACAC",
"2	c #E2E2E2",
"3	c #FAFAFA",
"4	c #B2B2B2",
"5	c #E7E7E7",
"6	c #F9F9F9",
"7	c #F3F3F3",
"8	c #E8E8E8",
"9	c #D1D1D1",
"0	c #B4B4B4",
"a	c #CBCBCB",
"b	c #D0D0D0",
"c	c #666666",
"d	c #808080",
"e	c #BABABA",
"..+@###########$++++++++++%",
"&&*=-----------;*********>,",
"')!!!!!!!!!!!!!!!!!!!!!!!~{",
"')!!!!!!!!!!!!!!!!!!!!!!!~{",
"')!!!!!!!!!!!!!!!!!!!!!!!~{",
"')!!!!!!!!!!!!!!!!!!!!!!!~{",
"')!!!!!!!!!!!!!!!!!!!!!!!~{",
"-)!!!!!!!!!!!!!!!!!!!!!!!~{",
";)!!!!!!!!!!!!!!!!!!!!!!!~{",
"])!!!!!!!!!!!!!!!!!!!!!!!~{",
"])!!!!!!!!!!!!!!!!!!!!!!!~{",
"])!!!!!!!!!!!!!!!!!!!!!!!~{",
"])!!!!!!!!!!!!!!!!!!!!!!!~{",
"])!!!!!!!!!!!!!!!!!!!!!!!~{",
"])!!!!!!!!!!!!!!!!!!!!!!!~{",
"])!!!!!!!!!!!!!!!!!!!!!!!~{",
"])!!!!!!!!!!!!!!!!!!!!!!!~{",
"])!!!!!!!!!!!!!!!!!!!!!!!~{",
"])!!!!!!!!!!!!!!!!!!!!!!!~{",
"^)!!!!!!!!!!!!!!!!!!!!!!/(_",
"-:!!!!!!!!!!!!!!!!!!!!!!<[}",
"|1!!!!!!!!!!!!!!!!!!!!!!<23",
"+4!!!!!!!!!!!!!!!!!!!!!!<56",
"+4!!!!!!!!!!!!!!!!!!!!!!<57",
"./!!!!!!!!!!!!!!!!!!!!!!<89",
".0a!!!!!!!!!!!!!!!!!!!!!b<!",
"cde!!!!!!!!!!!!!!!!!!!!!!!!"};
