/* XPM */
static char * Hilite[] = {
"27 27 374 2",
"  	c None",
". 	c #CCCCCC",
"+ 	c #CBCCCC",
"@ 	c #CBCCCD",
"# 	c #CBCDCE",
"$ 	c #CDCFCF",
"% 	c #CDCECF",
"& 	c #CDCECE",
"* 	c #CDCDCD",
"= 	c #BABABA",
"- 	c #808080",
"; 	c #666666",
"> 	c #D2D2D2",
", 	c #CFD0D0",
"' 	c #CBCED0",
") 	c #CBCECF",
"! 	c #CDCFD0",
"~ 	c #CED1D2",
"{ 	c #CFD1D2",
"] 	c #CFD1D1",
"^ 	c #D0D1D1",
"/ 	c #CCCDCD",
"( 	c #CBCBCB",
"_ 	c #B4B4B4",
": 	c #000000",
"< 	c #D1D1D1",
"[ 	c #E7E7E8",
"} 	c #D1D2D2",
"| 	c #CBCDCD",
"1 	c #CED0D1",
"2 	c #CFD2D2",
"3 	c #CDD2D4",
"4 	c #CFD4D6",
"5 	c #CFD5D6",
"6 	c #D0D5D7",
"7 	c #CFD4D5",
"8 	c #D1D4D5",
"9 	c #D0D3D3",
"0 	c #D2D3D3",
"a 	c #DADADA",
"b 	c #F3F3F3",
"c 	c #E6E6E7",
"d 	c #D1D3D3",
"e 	c #CCCECF",
"f 	c #CDD0D1",
"g 	c #CFD3D5",
"h 	c #D1D7D8",
"i 	c #D2D9DB",
"j 	c #D3DBDC",
"k 	c #D3DBDD",
"l 	c #D5DADD",
"m 	c #D4D9DC",
"n 	c #D4D9DB",
"o 	c #D4D9D9",
"p 	c #D5D9DA",
"q 	c #D4D7D7",
"r 	c #D3D5D6",
"s 	c #D4D5D6",
"t 	c #CECFCF",
"u 	c #B2B2B2",
"v 	c #010101",
"w 	c #F9F9F9",
"x 	c #D1D3D4",
"y 	c #CFD2D3",
"z 	c #D2D6D7",
"A 	c #D6DDDF",
"B 	c #D5DFE1",
"C 	c #D5E0E1",
"D 	c #D4DFE1",
"E 	c #D6DFE2",
"F 	c #D6E0E3",
"G 	c #D7E0E2",
"H 	c #D6E1E3",
"I 	c #D8DFE1",
"J 	c #D7DEDF",
"K 	c #D4DCDD",
"L 	c #FAFAFA",
"M 	c #E1E2E2",
"N 	c #D2D4D5",
"O 	c #D3D9DA",
"P 	c #D5DCDF",
"Q 	c #D4DFE3",
"R 	c #D6E4E5",
"S 	c #D7E5E6",
"T 	c #D7E5E7",
"U 	c #D6E5E5",
"V 	c #D8E5E6",
"W 	c #DAE5E6",
"X 	c #DBE5E5",
"Y 	c #DAE3E3",
"Z 	c #D8E1E2",
"` 	c #D7DDDE",
" .	c #D5D7D7",
"..	c #ACACAC",
"+.	c #0A0A0A",
"@.	c #FCFCFC",
"#.	c #DFE0E0",
"$.	c #D3D5D5",
"%.	c #D2D5D6",
"&.	c #D6E2E4",
"*.	c #D6E5E6",
"=.	c #D6E5E8",
"-.	c #D6E5EA",
";.	c #D7E5EB",
">.	c #D8E5EC",
",.	c #D7E5EC",
"'.	c #D9E5EC",
").	c #DAE5EC",
"!.	c #DAE5EA",
"~.	c #DBE5E9",
"{.	c #DBE5E6",
"].	c #DAE4E5",
"^.	c #DAE1E3",
"/.	c #D7DCDD",
"(.	c #D3D8D8",
"_.	c #D1D3D5",
":.	c #A1A1A1",
"<.	c #0C0C0C",
"[.	c #FEFEFE",
"}.	c #EFF0F0",
"|.	c #DBDCDD",
"1.	c #D3D6D6",
"2.	c #D3D9DB",
"3.	c #D6DEE2",
"4.	c #D6E5E9",
"5.	c #D7E5ED",
"6.	c #D7E5EE",
"7.	c #D7E5EF",
"8.	c #D8E5EF",
"9.	c #D9E5EF",
"0.	c #DCE5EF",
"a.	c #DBE5EF",
"b.	c #DCE6EF",
"c.	c #DBE5EC",
"d.	c #DCE5E9",
"e.	c #D9E5E7",
"f.	c #D8E3E4",
"g.	c #D5DEE0",
"h.	c #D1D8D8",
"i.	c #D0D4D5",
"j.	c #CCCFD0",
"k.	c #9B9C9C",
"l.	c #2A2A2A",
"m.	c #FFFFFF",
"n.	c #E8E8E9",
"o.	c #CFD0D1",
"p.	c #D3D6D7",
"q.	c #D3DADD",
"r.	c #D7E2E4",
"s.	c #D6E5EF",
"t.	c #D7E6EF",
"u.	c #D8E6EF",
"v.	c #D9E7EF",
"w.	c #DBE7EF",
"x.	c #DCE7EF",
"y.	c #DFE9EF",
"z.	c #DAE5E9",
"A.	c #D9E5E6",
"B.	c #D6E0E1",
"C.	c #D3DADA",
"D.	c #383838",
"E.	c #E9E9E9",
"F.	c #D8E4E6",
"G.	c #D7E5E8",
"H.	c #D8E8EF",
"I.	c #D8E7EF",
"J.	c #DAE9EF",
"K.	c #DDE9EF",
"L.	c #DCE9EF",
"M.	c #DEEAEF",
"N.	c #DBE5EE",
"O.	c #D9E5E9",
"P.	c #D6E3E5",
"Q.	c #D5E0E2",
"R.	c #D2DADC",
"S.	c #CED3D6",
"T.	c #CBCDCF",
"U.	c #D8E5E9",
"V.	c #D7E7EF",
"W.	c #DBE8EF",
"X.	c #DDEBEF",
"Y.	c #DEE9EF",
"Z.	c #D8E5EE",
"`.	c #D7E5E9",
" +	c #D4E4E6",
".+	c #D3E0E3",
"++	c #D1DADC",
"@+	c #CDD3D5",
"#+	c #CBCCCE",
"$+	c #9B9B9B",
"%+	c #D0D0D0",
"&+	c #D8DFE0",
"*+	c #D9E5EB",
"=+	c #D8E9EF",
"-+	c #D9E6EF",
";+	c #DCE8EF",
">+	c #DAE5EF",
",+	c #D5E3E6",
"'+	c #D2DEE2",
")+	c #D2DBDD",
"!+	c #CBD1D5",
"~+	c #CBCDD0",
"{+	c #DBE5E7",
"]+	c #DAE5EB",
"^+	c #DAE6EF",
"/+	c #D9E8EF",
"(+	c #D3E3E5",
"_+	c #D3DEE2",
":+	c #CED8DB",
"<+	c #CBD3D6",
"[+	c #D4D6D6",
"}+	c #D9DFE0",
"|+	c #DBE5ED",
"1+	c #DAE7EF",
"2+	c #DAE8EF",
"3+	c #DBEAEF",
"4+	c #D5E3E5",
"5+	c #D3DDE1",
"6+	c #CFD8DA",
"7+	c #CED5D7",
"8+	c #CBCFD2",
"9+	c #CBCECE",
"0+	c #D5D6D6",
"a+	c #DCE6EE",
"b+	c #D9E9EF",
"c+	c #D4E5EE",
"d+	c #D4E5E9",
"e+	c #D1E3E5",
"f+	c #D1DDE0",
"g+	c #CED9DB",
"h+	c #CFD6D8",
"i+	c #CCD1D2",
"j+	c #9D9D9D",
"k+	c #D4D6D7",
"l+	c #D9DFE1",
"m+	c #DCE5E6",
"n+	c #D7E8EF",
"o+	c #D6E7EF",
"p+	c #D4E5EF",
"q+	c #D3E5EA",
"r+	c #CFE3E6",
"s+	c #D1DEE1",
"t+	c #CEDADC",
"u+	c #CED6D8",
"v+	c #9E9E9E",
"w+	c #3B3B3B",
"x+	c #DADEDF",
"y+	c #DCE4E5",
"z+	c #DAE6EE",
"A+	c #D6E6EF",
"B+	c #D5E5EF",
"C+	c #D3E5EF",
"D+	c #D3E5EE",
"E+	c #D3E5E9",
"F+	c #D2E5E6",
"G+	c #D0DDE1",
"H+	c #D0DADC",
"I+	c #CED3D3",
"J+	c #9F9F9F",
"K+	c #D5D7D8",
"L+	c #D9DDDF",
"M+	c #DBE3E4",
"N+	c #DBE6ED",
"O+	c #D3E5EC",
"P+	c #D1E5E7",
"Q+	c #D0E1E5",
"R+	c #D0DCDF",
"S+	c #D0D6D8",
"T+	c #CDD2D3",
"U+	c #D6DADC",
"V+	c #DAE0E2",
"W+	c #D5E6EF",
"X+	c #D4E5ED",
"Y+	c #D5E5E9",
"Z+	c #D2E4E6",
"`+	c #D0DFE1",
" @	c #D2DCDE",
".@	c #D0D6D7",
"+@	c #CDD1D2",
"@@	c #262626",
"#@	c #D5D9D9",
"$@	c #D8DDDF",
"%@	c #DAE5E7",
"&@	c #D6E5EE",
"*@	c #D5E5EC",
"=@	c #D5E5ED",
"-@	c #D6E5ED",
";@	c #D4E5E8",
">@	c #D4E5E6",
",@	c #D0E0E2",
"'@	c #D1DFE0",
")@	c #D1DBDC",
"!@	c #D3DADB",
"~@	c #D1D6D6",
"{@	c #CED0D0",
"]@	c #D2D6D6",
"^@	c #D5D9DB",
"/@	c #D7DDE0",
"(@	c #D8E1E3",
"_@	c #D9E4E6",
":@	c #D9E5E8",
"<@	c #D5E5E8",
"[@	c #D5E4E4",
"}@	c #D3E0E1",
"|@	c #D5DEDF",
"1@	c #D4DBDC",
"2@	c #D0D4D6",
"3@	c #9C9C9C",
"4@	c #0B0B0B",
"5@	c #D7DDDF",
"6@	c #D8E0E3",
"7@	c #D8E2E3",
"8@	c #D8E3E5",
"9@	c #DAE4E6",
"0@	c #D4E4E5",
"a@	c #D3E2E3",
"b@	c #D4E0E0",
"c@	c #D5DEDE",
"d@	c #D3DBDB",
"e@	c #CED1D3",
"f@	c #CECECE",
"g@	c #D2D5D5",
"h@	c #D3D7D9",
"i@	c #D7DBDD",
"j@	c #D7DCDE",
"k@	c #D8DEE0",
"l@	c #D7DFE1",
"m@	c #D9E1E3",
"n@	c #D7E1E2",
"o@	c #D4DDDD",
"p@	c #D1DADA",
"q@	c #D1D7D7",
"r@	c #D0D5D6",
"s@	c #CDD1D3",
"t@	c #D0D2D2",
"u@	c #D1D5D5",
"v@	c #D6DBDD",
"w@	c #D8DCDE",
"x@	c #D8DCDD",
"y@	c #D5DADB",
"z@	c #D3D9D9",
"A@	c #D2D7D7",
"B@	c #CCD0D1",
"C@	c #D4D7D8",
"D@	c #D5D8D9",
"E@	c #D3D7D7",
"F@	c #D1D5D6",
"G@	c #CED1D1",
"H@	c #5F5F5F",
"I@	c #434343",
"J@	c #404040",
"K@	c #4A4A4A",
"L@	c #515151",
"M@	c #3D3D3D",
"N@	c #2D2E2E",
"O@	c #333434",
"P@	c #303131",
"Q@	c #2B2C2C",
"R@	c #262727",
"S@	c #202020",
"T@	c #1C1C1C",
"U@	c #161616",
"V@	c #101010",
"W@	c #131313",
"X@	c #020202",
"Y@	c #070707",
"Z@	c #050505",
"`@	c #0D0D0D",
" #	c #171717",
".#	c #252525",
"+#	c #2B2B2B",
"@#	c #292929",
"##	c #242424",
"$#	c #1B1B1B",
". . . + + + + + + + @ # # # # # $ % & * . . . . = - ; ",
". > , @ @ @ @ @ @ # ' ' # # ) ! ~ { ] ^ , / . . ( _ : ",
"< [ } | # ! 1 2 3 4 5 6 6 7 4 7 7 8 9 0 0 , / . . a : ",
"b c d e ! f g h i j k l m n n n o p q r s 0 t + . u v ",
"w c x ! y z n A B C D E F G H E I J K o q r ] | . u v ",
"L M N y z O P Q R S T S S U V W X Y Z ` o  .x e + ..+.",
"@.#.$.%.h P &.*.=.-.;.>.,.'.).!.~.{.].^./.(._.! @ :.<.",
"[.}.|.1.2.3.*.4.5.6.7.8.9.0.a.b.c.d.e.f.g.h.i.j.@ k.l.",
"m.n.o.p.q.r.=.;.7.s.t.u.v.w.x.y.b.c.z.A.B.C.4 ' @ k.D.",
"m.E., q P F.G.5.s.u.H.I.J.K.L.M.a.N.O.P.Q.R.S.T.@ k.D.",
"m.E.< 1.g.F.U.8.7.V.H.H.I.W.X.Y.9.Z.`. +.+++@+T.#+$+D.",
"m.E.%+$.&+e.*+9.H.H.=+I.-+;+K.Y.Y.>+`.,+'+)+!+~+@ $+D.",
"m.E.%+$.&+{+]+^+I.H.=+/+/+L.W.K.-+9.`.(+_+:+<+' #+$+D.",
"m.E.%+[+}+W |+1+2+/+/+3+I./+1+1+-+9.=.4+5+6+7+8+9+$+D.",
"m.E.t 0+}+{+a+v./+J.b+/+/+I.v.b+t.c+d+e+f+g+h+i+# j+D.",
"m.E.t k+l+m+c.2+/+n+H.t.o+s.I.t.p+p+q+r+s+t+u+i+% v+w+",
"m.E.% k+x+y+z.z+u.H.=+A+o+I.B+p+C+D+E+F+G+H+u+I+$ J+w+",
"m.E.% K+L+M+{+N+v.u.b+A+A+t.B+p+C+O+P+Q+R+++S+T+$ J+w+",
"m.E.& %.U+V+{.~.*+v.u.W+s.7.B+p+X+Y+Z+`+ @R..@+@, J+@@",
"m.E./ 9 #@$@^.%@z.;.,.&@*@=@-@*@;@>@,@'@)@!@~@~ t v+<.",
"m.E.. {@]@^@/@(@_@:@U.z.<@;.-.;@>@[@}@|@1@o 2@f & 3@4@",
"m.E.. * { ]@^@5@6@7@8@9@e.T T 0@a@b@c@d@(.~@e@9++ $+4@",
"m.E.. . f@{ g@h@i@j@k@l@m@^.m@n@B.o@p@q@r@s@# + . $+4@",
"m.E.. . . f@$ t@u@z p v@w@j@x@/.y@z@A@7 B@+ + . . $+4@",
"m.E.. . . . . * %+t@N 1.C@D@E@p.F@9 G@$ / + . . . $+4@",
"H@I@J@J@J@J@J@J@I@K@L@M@N@O@P@Q@R@S@T@U@V@<.<.W@J@X@X@",
"Y@v v v v v v v v Z@`@ #.#+#+#@###S@$# #V@V@V@Z@v : : "};
