/* XPM */
static char * Up[] = {
"27 27 44 1",
" 	c None",
".	c #CCCCCC",
"+	c #BABABA",
"@	c #808080",
"#	c #666666",
"$	c #D2D2D2",
"%	c #D0D0D0",
"&	c #CBCBCB",
"*	c #B4B4B4",
"=	c #000000",
"-	c #D1D1D1",
";	c #E8E8E8",
">	c #DADADA",
",	c #F3F3F3",
"'	c #E7E7E7",
")	c #B2B2B2",
"!	c #010101",
"~	c #F9F9F9",
"{	c #FAFAFA",
"]	c #E2E2E2",
"^	c #ACACAC",
"/	c #0A0A0A",
"(	c #FCFCFC",
"_	c #E0E0E0",
":	c #A1A1A1",
"<	c #0C0C0C",
"[	c #FEFEFE",
"}	c #F1F1F1",
"|	c #9B9B9B",
"1	c #2A2A2A",
"2	c #FFFFFF",
"3	c #E9E9E9",
"4	c #383838",
"5	c #232323",
"6	c #0B0B0B",
"7	c #5F5F5F",
"8	c #434343",
"9	c #404040",
"0	c #131313",
"a	c #020202",
"b	c #070707",
"c	c #030303",
"d	c #101010",
"e	c #050505",
"........................+@#",
".$%.....................&*=",
"-;$......................>=",
",'$......................)!",
"~'$......................)!",
"{]$......................^/",
"(_$......................:<",
"[}>......................|1",
"23.......................|4",
"23.......................|4",
"23.......................|4",
"23.......................|4",
"23.......................|4",
"23.......................|4",
"23.......................|4",
"23.......................|4",
"23.......................|4",
"23.......................|4",
"23.......................|5",
"23.......................|<",
"23.......................|6",
"23.......................|6",
"23.......................|6",
"23.......................|6",
"23.......................|6",
"789999999995<<<<<<<<<<<09aa",
"b!!!!!!!!!!cddddddddddde!=="};
