/* XPM */
static const char  * ZoomFitAlpha[] = {
"27 27 62 1",
" 	c None",
".	c #000000",
"+	c #020202",
"@	c #161616",
"#	c #212121",
"$	c #0E0E0E",
"%	c #060606",
"&	c #0A0A0A",
"*	c #424242",
"=	c #9D9D9D",
"-	c #A6A6A6",
";	c #8A8A8A",
">	c #939393",
",	c #5C5C5C",
"'	c #333333",
")	c #050505",
"!	c #525252",
"~	c #FFFFFF",
"{	c #E4E4E4",
"]	c #9B9B9B",
"^	c #494949",
"/	c #B6B6B6",
"(	c #DADADA",
"_	c #727272",
":	c #818181",
"<	c #9A9A9A",
"[	c #C3C3C3",
"}	c #363636",
"|	c #C9C9C9",
"1	c #A3A3A3",
"2	c #DEDEDE",
"3	c #606060",
"4	c #666666",
"5	c #7D7D7D",
"6	c #808080",
"7	c #FEFEFE",
"8	c #F6F6F6",
"9	c #454545",
"0	c #040404",
"a	c #181818",
"b	c #B4B4B4",
"c	c #E5E5E5",
"d	c #F5F5F5",
"e	c #FAFAFA",
"f	c #707070",
"g	c #0D0D0D",
"h	c #030303",
"i	c #2C2C2C",
"j	c #DBDBDB",
"k	c #757575",
"l	c #646464",
"m	c #888888",
"n	c #242424",
"o	c #141414",
"p	c #D2D2D2",
"q	c #B7B7B7",
"r	c #2F2F2F",
"s	c #373737",
"t	c #ACACAC",
"u	c #3B3B3B",
"v	c #A8A8A8",
"w	c #434343",
"...........................",
"........+@#@$%+............",
".......&*=-;>,')...........",
".......!~~~~~~{]...........",
"......^/~~~~~~~(_..........",
"......:~~~~~~~~~<..........",
"......-~~~~~~~~~[}.........",
"......-~~~~~~~~~|!.........",
"......1~~~~~~~~~23.........",
"......4~~~~~~~~~5..........",
".....)6~~~~~~7~89..........",
"...0ab~~~cd~e~2fg..........",
"..hij~~~kl94lmn+...........",
"..op~~~qr..................",
"..s~~~tu...................",
"...m~vw....................",
"....#n...~............~....",
".........7............~....",
".........~............~....",
".........~~~~~~~~~~~~~~....",
".........~............~....",
".........~............~....",
".........~............~....",
"...........................",
"...........................",
"...........................",
"..........................."};
