/* XPM */
static const char  * ZoomInDisabled[] = {
"27 27 105 2",
"  	c None",
". 	c #FFFFFF",
"+ 	c #EEEDEE",
"@ 	c #CAC9CA",
"# 	c #BDBDBD",
"$ 	c #9A9A9A",
"% 	c #B3B4B3",
"& 	c #D1D1D1",
"* 	c #F1F1F1",
"= 	c #D7D8D7",
"- 	c #A0A0A0",
"; 	c #B3B8BD",
"> 	c #C3CBD4",
", 	c #C7CED7",
"' 	c #C7D0DA",
") 	c #C3CDD7",
"! 	c #B0B6BD",
"~ 	c #9D9E9D",
"{ 	c #BDC6CD",
"] 	c #D1D8E1",
"^ 	c #E4E6EB",
"/ 	c #EEF1F5",
"( 	c #DAE2EB",
"_ 	c #CAD5E1",
": 	c #EBEBEB",
"< 	c #C7C6C7",
"[ 	c #D4D9E1",
"} 	c #EEF0F1",
"| 	c #FBFBFB",
"1 	c #FBFBFF",
"2 	c #F8F8FB",
"3 	c #EEF3F8",
"4 	c #D4DEE8",
"5 	c #CDD6E4",
"6 	c #B3B9C0",
"7 	c #C7C8C7",
"8 	c #E4E8EB",
"9 	c #EEF1F8",
"0 	c #E1E6EE",
"a 	c #CDD9E4",
"b 	c #D1DBE4",
"c 	c #C7D1DE",
"d 	c #B0B0B0",
"e 	c #F5F5F5",
"f 	c #F5F5F8",
"g 	c #FFFDFF",
"h 	c #F5F8FB",
"i 	c #E1E8F1",
"j 	c #D1DBE8",
"k 	c #CDD8E4",
"l 	c #E4E5E4",
"m 	c #F5F6FB",
"n 	c #D1DDE8",
"o 	c #D1D9E4",
"p 	c #CDD8E1",
"q 	c #E1E2E1",
"r 	c #F1F0F1",
"s 	c #AAABAA",
"t 	c #C0C8D1",
"u 	c #D4DDE4",
"v 	c #EBEEF5",
"w 	c #E1E8EE",
"x 	c #D4DDE8",
"y 	c #DEE6EE",
"z 	c #C3D0DA",
"A 	c #E1E0E1",
"B 	c #F6F5F6",
"C 	c #C0C0C0",
"D 	c #B0B3BA",
"E 	c #CDD6E1",
"F 	c #E4EAEE",
"G 	c #E4E3E4",
"H 	c #FDFDFD",
"I 	c #DADBDA",
"J 	c #9A9B9A",
"K 	c #B7C0C7",
"L 	c #C0CBD4",
"M 	c #CDD5DE",
"N 	c #D7E0E8",
"O 	c #DEE5EB",
"P 	c #D7DEE8",
"Q 	c #BDC6D1",
"R 	c #D7D6D7",
"S 	c #EBEAEB",
"T 	c #DAD9DA",
"U 	c #BAB9BA",
"V 	c #B0B4BA",
"W 	c #C3C5C3",
"X 	c #A6A8A6",
"Y 	c #C3C3C3",
"Z 	c #D4D5D4",
"` 	c #D4D3D4",
" .	c #A0A1A0",
"..	c #C0C2C0",
"+.	c #E8E8E8",
"@.	c #E8E6E8",
"#.	c #E1E1E1",
"$.	c #F5F3F5",
"%.	c #EEEEEE",
"&.	c #F89B9B",
"*.	c #DEDDDE",
"=.	c #D1D0D1",
"-.	c #9D9D9D",
";.	c #A3A5A3",
">.	c #CACBCA",
". . . . . . . . . . . . . . . . . . . . . . . . . . . ",
". . . . . . . . . + @ # $ $ % & * . . . . . . . . . . ",
". . . . . . . . = - ; > , ' ) ! ~ = . . . . . . . . . ",
". . . . . . . + - { ] ^ / / ( _ { ~ : . . . . . . . . ",
". . . . . . . < ; [ } | 1 2 3 4 5 6 7 * . . . . . . . ",
". . . . . . . % > 8 1 1 2 9 0 a b c d : e . . . . . . ",
". . . . . . . $ , f g h 9 i j a 4 k $ l * . . . . . . ",
". . . . . . . $ > / m 9 i n o k ( p $ q r . . . . . . ",
". . . . . . . s t u v w j o o x y z d A B . . . . . . ",
". . . . . . . C D ) E k k o 4 F b 6 < G H . . . . . . ",
". . . . . . B I J K L M ] N O P Q J R S . . . . . . . ",
". . . . . . T U $ ~ V t ) ) ) 6 J W G B . . . . . . . ",
". . . . : $ J J X C U s $ $ s Y Z G + . . . . . . . . ",
". . . l X G `  ...A +.S @.G q l S B . . . . . . . . . ",
". . S ~ A W $ $ I @.#.H $.* r * . . . . . . . . . . . ",
". + $ q W $ $ W q %.. . . . . &.&.. . . . . . . . . . ",
". $ *.7 $ $ Y A : . . . . . . &.&.. . . . . . . . . . ",
". =.-.;.$ < A : . . . . . . . &.&.. . . . . . . . . . ",
". . ..$ >.A : . . . . . . . . &.&.. . . . . . . . . . ",
". . . + +.+ . . . . . &.&.&.&.&.&.&.&.&.&.. . . . . . ",
". . . . . . . . . . . &.&.&.&.&.&.&.&.&.&.. . . . . . ",
". . . . . . . . . . . . . . . &.&.. . . . . . . . . . ",
". . . . . . . . . . . . . . . &.&.. . . . . . . . . . ",
". . . . . . . . . . . . . . . &.&.. . . . . . . . . . ",
". . . . . . . . . . . . . . . &.&.. . . . . . . . . . ",
". . . . . . . . . . . . . . . . . . . . . . . . . . . ",
". . . . . . . . . . . . . . . . . . . . . . . . . . . "};
