/* XPM */
static const char * ZoomFit[] = {
"20 18 9 1",
" 	c None",
".	c #CCCCCC",
"+	c #1C1C1C",
"@	c #F7F7F7",
"#	c #FFFFFF",
"$	c #CFCECC",
"%	c #AEAEAE",
"&	c #000000",
"*	c #3232C8",
"....................",
"........++++........",
".......+@##$+.......",
"......+##%%##+......",
".....+@#%####@+.....",
".....+#%######+.....",
".....+########+.....",
".....+@######@+.....",
"......+######+......",
".....+++@##@+.......",
"....+++.&++&........",
"...+++..............",
"..+++...............",
".+++..&............&",
"+++...&............&",
".+....&************&",
"......&............&",
"......&............&"};
