/* XPM */
static const char  * ZoomOutAlpha[] = {
"27 27 30 1",
" 	c None",
".	c #000000",
"+	c #2A2D2A",
"@	c #FFFFFF",
"#	c #212121",
"$	c #323132",
"%	c #191919",
"&	c #424142",
"*	c #4B494B",
"=	c #212521",
"-	c #4B4D4B",
";	c #161916",
">	c #8C8E8C",
",	c #424542",
"'	c #5B5A5B",
")	c #636663",
"!	c #323532",
"~	c #5B5E5B",
"{	c #959295",
"]	c #959695",
"^	c #6B6A6B",
"/	c #9D9A9D",
"(	c #3A393A",
"_	c #3A3D3A",
":	c #4B4B4B",
"<	c #191D19",
"[	c #2A292A",
"}	c #747674",
"|	c #E4E2E4",
"1	c #848284",
"...........................",
".........+@@@@@@#..........",
"........@@@@@@@@@@.........",
".......@@@@@@@@@@@$........",
".......@@@@@@@@@@@@#.......",
".......@@@@@@@@@@@@$%......",
".......@@@@@@@@@@@@&#......",
".......@@@@@@@@@@@@*=......",
".......@@@@@@@@@@@@-;......",
".......@@@@@@@@@@@>,.......",
"......;'@@@@@@@@@@)!.......",
"......~@@@@@@@@@@{,;.......",
"....$@@@@@@@@@@]^,+........",
"...&@@@@/-(!_,*&!;.........",
"..!@@@@@'_:.<#=#...........",
".+@@@@@{*[.................",
".@@@@@]-$..................",
".}@|@>-$...................",
"../@1-$....................",
".. +(+.....@@@@@@@@@@......",
"...........@@@@@@@@@@......",
"...........................",
"...........................",
"...........................",
"...........................",
"...........................",
"..........................."};
