/* XPM */
static const char  * ZoomIn[] = {
"27 27 112 2",
"  	c None",
". 	c #FFFFFF",
"+ 	c #E6E6E6",
"@ 	c #828282",
"# 	c #7C7C7C",
"$ 	c #9E9E9E",
"% 	c #C5C5C5",
"& 	c #A6A5A2",
"* 	c #3B3B41",
"= 	c #29323F",
"- 	c #000005",
"; 	c #12202E",
"> 	c #394146",
", 	c #A4A39F",
"' 	c #E8E3E4",
") 	c #000002",
"! 	c #506980",
"~ 	c #B2BCCC",
"{ 	c #D7E4F0",
"] 	c #B8CCE2",
"^ 	c #607C9D",
"/ 	c #0A181D",
"( 	c #92918D",
"_ 	c #62615F",
": 	c #4F6176",
"< 	c #DCE3EC",
"[ 	c #F0F6FD",
"} 	c #9AB7D3",
"| 	c #7088AC",
"1 	c #373D41",
"2 	c #E9E7E6",
"3 	c #10100D",
"4 	c #91A2BB",
"5 	c #FCFDFF",
"6 	c #DBE3F2",
"7 	c #A9BBD5",
"8 	c #7E9EBB",
"9 	c #99B9D9",
"0 	c #040B15",
"a 	c #CECDCA",
"b 	c #000000",
"c 	c #91A5BD",
"d 	c #E3E9F7",
"e 	c #A5BDD7",
"f 	c #839DBB",
"g 	c #839DBF",
"h 	c #ADC7E0",
"i 	c #BABAB6",
"j 	c #3B3B38",
"k 	c #576D89",
"l 	c #AFC1D8",
"m 	c #A5BBD1",
"n 	c #7C98BA",
"o 	c #879EBB",
"p 	c #AEC2D7",
"q 	c #92B0C9",
"r 	c #2F353E",
"s 	c #C4C0C1",
"t 	c #A09E9D",
"u 	c #0A1822",
"v 	c #6C8AA5",
"w 	c #889EBD",
"x 	c #96ABC4",
"y 	c #B0C8DA",
"z 	c #BFD1E4",
"A 	c #31485D",
"B 	c #4C4A4A",
"C 	c #D6D2D4",
"D 	c #D5D3D5",
"E 	c #575455",
"F 	c #1A242B",
"G 	c #556980",
"H 	c #5D7693",
"I 	c #637D99",
"J 	c #324153",
"K 	c #040802",
"L 	c #989595",
"M 	c #5B5C5B",
"N 	c #1C1B1C",
"O 	c #4E504C",
"P 	c #878282",
"Q 	c #514E49",
"R 	c #1A1410",
"S 	c #2E2C25",
"T 	c #82807C",
"U 	c #C2BDBF",
"V 	c #E8E5E8",
"W 	c #4C4F4C",
"X 	c #929292",
"Y 	c #6B6A6B",
"Z 	c #B6B5B6",
"` 	c #C7C5C7",
" .	c #EFEAEF",
"..	c #E0DDE0",
"+.	c #DDDDDD",
"@.	c #F7F7F7",
"#.	c #514D51",
"$.	c #8C8F8C",
"%.	c #434443",
"&.	c #4A4D4A",
"*.	c #D1D3D1",
"=.	c #EF0404",
"-.	c #CCCBCC",
";.	c #272527",
">.	c #4E524E",
",.	c #555455",
"'.	c #C5C3C5",
").	c #787A78",
"!.	c #585858",
"~.	c #BDBCBD",
"{.	c #E0DCE0",
"].	c #DBDBDB",
". . . . . . . . . . . . . . . . . . . . . . . . . . . ",
". . . . . . . . . . . . . . . . . . . . . . . . . . . ",
". . . . . . . . . + @ # $ % . . . . . . . . . . . . . ",
". . . . . . . . & * = - ; > , . . . . . . . . . . . . ",
". . . . . . . ' ) ! ~ { ] ^ / ( . . . . . . . . . . . ",
". . . . . . . _ : < . . [ } | 1 2 . . . . . . . . . . ",
". . . . . . . 3 4 . 5 6 7 8 9 0 a . . . . . . . . . . ",
". . . . . . . b c . d e f g h b i . . . . . . . . . . ",
". . . . . . . j k l m n o p q r s . . . . . . . . . . ",
". . . . . . . t u v w x y z A B C . . . . . . . . . . ",
". . . . . . D E b F G H I J K L . . . . . . . . . . . ",
". . . . . M N b O P Q R S T U V . . . . . . . . . . . ",
". . . . W X Y b Z ` .  ...+.. . . . . . . . . . . . . ",
". . @.#.$.%.b &.*.. . . . . . . . =.=.. . . . . . . . ",
". . -.;.>.b ,.'.. . . . . . . . . =.=.. . . . . . . . ",
". . . ).b !.~.. . . . . . . . . . =.=.. . . . . . . . ",
". . . . {.].. . . . . . . . . . . =.=.. . . . . . . . ",
". . . . . . . . . . . . . =.=.=.=.=.=.=.=.=.=.. . . . ",
". . . . . . . . . . . . . =.=.=.=.=.=.=.=.=.=.. . . . ",
". . . . . . . . . . . . . . . . . =.=.. . . . . . . . ",
". . . . . . . . . . . . . . . . . =.=.. . . . . . . . ",
". . . . . . . . . . . . . . . . . =.=.. . . . . . . . ",
". . . . . . . . . . . . . . . . . =.=.. . . . . . . . ",
". . . . . . . . . . . . . . . . . . . . . . . . . . . ",
". . . . . . . . . . . . . . . . . . . . . . . . . . . ",
". . . . . . . . . . . . . . . . . . . . . . . . . . . ",
". . . . . . . . . . . . . . . . . . . . . . . . . . . "};
